<svg id="Layer_1" data-name="Layer 1" xmlns="http://www.w3.org/2000/svg" xmlns:xlink="http://www.w3.org/1999/xlink" viewBox="0 0 1241.52 279.15"><defs><style>.cls-1{fill:#03033f;}.cls-2{fill:url(#linear-gradient);}.cls-3{fill:url(#linear-gradient-2);}</style><linearGradient id="linear-gradient" x1="42.49" y1="136.96" x2="246.01" y2="136.96" gradientUnits="userSpaceOnUse"><stop offset="0" stop-color="#36d1dc"/><stop offset="0.2" stop-color="#3cbfe0"/><stop offset="0.6" stop-color="#4a8feb"/><stop offset="1" stop-color="#5b59f7"/></linearGradient><linearGradient id="linear-gradient-2" x1="151.78" y1="162.23" x2="220.4" y2="162.23" gradientUnits="userSpaceOnUse"><stop offset="0" stop-color="#d4ff1a"/><stop offset="0.13" stop-color="#bff627"/><stop offset="0.41" stop-color="#88e049"/><stop offset="0.8" stop-color="#30bd7f"/><stop offset="1" stop-color="#00a99d"/></linearGradient></defs><path class="cls-1" d="M246.07,156.61V142h68.65v14.57H289.13v69H271.66v-69Z"/><path class="cls-1" d="M326.07,225.64V142H382.4v14.57H343.75v19.92h35.76v14.58H343.75v20h38.82v14.57Z"/><path class="cls-1" d="M466.41,142v83.6H451.14L414.77,173h-.61v52.62H396.48V142H412l36.08,52.58h.74V142Z"/><path class="cls-1" d="M526.33,166.08a10.32,10.32,0,0,0-4.2-7.67q-3.72-2.73-10.08-2.74a19.57,19.57,0,0,0-7.31,1.21,10.16,10.16,0,0,0-4.55,3.33,7.86,7.86,0,0,0-1.57,4.81,6.75,6.75,0,0,0,.95,3.92,9.41,9.41,0,0,0,2.88,2.88,20.5,20.5,0,0,0,4.25,2.08,40.8,40.8,0,0,0,5.14,1.49l7.51,1.8a52.29,52.29,0,0,1,10,3.26,30.6,30.6,0,0,1,7.92,5,21.24,21.24,0,0,1,5.21,7,22.46,22.46,0,0,1,1.9,9.27,23.14,23.14,0,0,1-3.9,13.29,24.82,24.82,0,0,1-11.11,8.69A44.36,44.36,0,0,1,512,226.82a45.8,45.8,0,0,1-17.61-3.1,25.7,25.7,0,0,1-11.67-9.2q-4.19-6.11-4.39-15.13h17.1a12.59,12.59,0,0,0,2.43,7,13,13,0,0,0,5.75,4.21,22.4,22.4,0,0,0,8.19,1.41,21.38,21.38,0,0,0,7.82-1.31,11.91,11.91,0,0,0,5.16-3.63,8.37,8.37,0,0,0,1.84-5.35,7,7,0,0,0-1.66-4.74,13,13,0,0,0-4.81-3.26,49.07,49.07,0,0,0-7.74-2.45l-9.1-2.29q-10.57-2.56-16.7-8t-6.08-14.73a21.9,21.9,0,0,1,4.06-13.27,27.16,27.16,0,0,1,11.29-8.86,40,40,0,0,1,16.33-3.18,38.76,38.76,0,0,1,16.26,3.18,25.7,25.7,0,0,1,10.84,8.86,23.37,23.37,0,0,1,4,13.14Z"/><path class="cls-1" d="M633.07,183.84q0,13.68-5.16,23.27a36,36,0,0,1-14,14.63,42,42,0,0,1-39.94,0,35.94,35.94,0,0,1-14-14.65q-5.14-9.6-5.15-23.23t5.15-23.27a35.82,35.82,0,0,1,14-14.63,42.08,42.08,0,0,1,39.94,0,36,36,0,0,1,14,14.63Q633.07,170.17,633.07,183.84Zm-17.92,0a37.56,37.56,0,0,0-2.63-14.94,20.34,20.34,0,0,0-7.41-9.23,21.49,21.49,0,0,0-22.37,0,20.38,20.38,0,0,0-7.4,9.23,37.55,37.55,0,0,0-2.64,14.94,37.48,37.48,0,0,0,2.64,14.94,20.33,20.33,0,0,0,7.4,9.23,21.49,21.49,0,0,0,22.37,0,20.28,20.28,0,0,0,7.41-9.23A37.49,37.49,0,0,0,615.15,183.84Z"/><path class="cls-1" d="M646.14,225.64V142h33a35.67,35.67,0,0,1,16.18,3.37,23.69,23.69,0,0,1,10.25,9.51,28.52,28.52,0,0,1,3.53,14.43,27.34,27.34,0,0,1-3.59,14.31,23.33,23.33,0,0,1-10.39,9.16A38.55,38.55,0,0,1,678.67,196H656.59V181.8h19.22a22,22,0,0,0,8.41-1.39,10.07,10.07,0,0,0,5-4.16,13.3,13.3,0,0,0,1.65-6.9,13.81,13.81,0,0,0-1.65-7,10.42,10.42,0,0,0-5-4.35,21,21,0,0,0-8.47-1.49H663.81v69.15Zm45.14-38,20.78,38H692.55l-20.33-38Z"/><path class="cls-1" d="M721.57,225.64V142h17.67v69h35.84v14.57Z"/><path class="cls-1" d="M860.36,183.84q0,13.68-5.17,23.27a36,36,0,0,1-14,14.63,42,42,0,0,1-39.94,0,36,36,0,0,1-14-14.65q-5.15-9.6-5.14-23.23t5.14-23.27a35.88,35.88,0,0,1,14-14.63,42.08,42.08,0,0,1,39.94,0,36,36,0,0,1,14,14.63Q860.37,170.17,860.36,183.84Zm-17.92,0a37.55,37.55,0,0,0-2.64-14.94,20.38,20.38,0,0,0-7.4-9.23,21.49,21.49,0,0,0-22.37,0,20.34,20.34,0,0,0-7.41,9.23A37.55,37.55,0,0,0,800,183.84a37.48,37.48,0,0,0,2.64,14.94A20.28,20.28,0,0,0,810,208a21.49,21.49,0,0,0,22.37,0,20.33,20.33,0,0,0,7.4-9.23A37.48,37.48,0,0,0,842.44,183.84Z"/><path class="cls-1" d="M928.85,169.06a18.38,18.38,0,0,0-2.41-5.28,15.29,15.29,0,0,0-3.77-3.92,16.79,16.79,0,0,0-5.06-2.47,21.65,21.65,0,0,0-6.27-.86,20,20,0,0,0-11.25,3.19,20.88,20.88,0,0,0-7.53,9.24,36.48,36.48,0,0,0-2.69,14.8,37.29,37.29,0,0,0,2.65,14.86,20.65,20.65,0,0,0,7.51,9.32,20.35,20.35,0,0,0,11.47,3.21A22.78,22.78,0,0,0,921.77,209a15.24,15.24,0,0,0,6.53-6.07,18.18,18.18,0,0,0,2.27-9.26l3.59.53H912.61V180.9h35v10.53q0,11-4.65,18.92a31.63,31.63,0,0,1-12.82,12.17,43.4,43.4,0,0,1-39.35-.94,35.66,35.66,0,0,1-13.86-14.82q-5-9.62-5-22.84a52,52,0,0,1,3-18.14,38.4,38.4,0,0,1,8.31-13.53,35.88,35.88,0,0,1,12.45-8.45,40.15,40.15,0,0,1,15.38-2.9A41.31,41.31,0,0,1,924.28,143a35.64,35.64,0,0,1,10.88,5.82,31.6,31.6,0,0,1,7.78,8.92,30.57,30.57,0,0,1,3.87,11.36Z"/><path class="cls-1" d="M978.53,142v83.6H960.85V142Z"/><path class="cls-1" d="M1066.86,171.31H1049a17.54,17.54,0,0,0-2-6.19,15.76,15.76,0,0,0-3.87-4.63,17.15,17.15,0,0,0-5.45-2.94,21.16,21.16,0,0,0-6.68-1,19.88,19.88,0,0,0-11.3,3.21,20.62,20.62,0,0,0-7.47,9.3,37,37,0,0,0-2.66,14.8,37.35,37.35,0,0,0,2.67,15,19.35,19.35,0,0,0,18.64,12.29,22.1,22.1,0,0,0,6.59-.94,17,17,0,0,0,5.41-2.76,15.76,15.76,0,0,0,3.94-4.42,17.45,17.45,0,0,0,2.18-6l17.88.08a32.3,32.3,0,0,1-3.45,11.08,33.5,33.5,0,0,1-7.38,9.51,34.62,34.62,0,0,1-11,6.61,40.32,40.32,0,0,1-14.43,2.43,39.3,39.3,0,0,1-20-5.06,35.71,35.71,0,0,1-13.87-14.65q-5.09-9.6-5.09-23.23t5.15-23.27a35.92,35.92,0,0,1,14-14.63,39.22,39.22,0,0,1,19.83-5,43.05,43.05,0,0,1,13.49,2,34.41,34.41,0,0,1,11,5.94,31.16,31.16,0,0,1,7.86,9.53A35.75,35.75,0,0,1,1066.86,171.31Z"/><path class="cls-1" d="M1088.54,226.41a8.18,8.18,0,0,1-8.17-8.16,8.17,8.17,0,1,1,15.21,4.1,8.56,8.56,0,0,1-3,3A7.76,7.76,0,0,1,1088.54,226.41Z"/><path class="cls-1" d="M1131.27,227a25.28,25.28,0,0,1-10.77-2.23,17.83,17.83,0,0,1-7.61-6.47,18.47,18.47,0,0,1-2.8-10.41,16.86,16.86,0,0,1,2-8.73,15,15,0,0,1,5.51-5.43,28.84,28.84,0,0,1,7.76-3,75.82,75.82,0,0,1,8.73-1.55l9.15-1.08a13.35,13.35,0,0,0,5.1-1.41,3.47,3.47,0,0,0,1.59-3.19v-.28q0-5.35-3-8.29t-8.92-2.94q-6.16,0-9.69,2.72a14.65,14.65,0,0,0-4.88,6L1112,178.13a22.07,22.07,0,0,1,6-9.25,24.27,24.27,0,0,1,9.08-5.14,35.78,35.78,0,0,1,10.82-1.62,39.73,39.73,0,0,1,8,.88,23.9,23.9,0,0,1,7.92,3.21,17.73,17.73,0,0,1,6.06,6.63q2.37,4.31,2.37,11.16v41.64H1150.3v-8.57h-.49a17.3,17.3,0,0,1-3.56,4.65,18.68,18.68,0,0,1-6.08,3.8A23.7,23.7,0,0,1,1131.27,227Zm2.66-9.8a17.69,17.69,0,0,0,8.67-2,14.08,14.08,0,0,0,5.51-5.24,13.55,13.55,0,0,0,1.9-7v-8.09a6.17,6.17,0,0,1-2.51,1.21,36.72,36.72,0,0,1-4.22.94q-2.37.39-4.62.69l-3.75.51a29.66,29.66,0,0,0-6.47,1.51,11.1,11.1,0,0,0-4.66,3,8.72,8.72,0,0,0,1.62,12.08A14.68,14.68,0,0,0,1133.93,217.23Z"/><path class="cls-1" d="M1184.63,153.27a7.64,7.64,0,0,1-5.45-2.15,7,7,0,0,1,0-10.28,8,8,0,0,1,10.89,0,7,7,0,0,1,0,10.28A7.63,7.63,0,0,1,1184.63,153.27Zm-6.17,72.37v-62.7h12.21v62.7Z"/><path class="cls-2" d="M244.75,46.16H107.27s-21.54-1-32.37,4.19S56.77,62.43,48,80.86s-4.55,21.9-4.55,21.9,2.81,3.75,8.15-1.77,9.83-11.84,17.86-16.2,8.93-4.65,18.27-5.55a86.07,86.07,0,0,1,15.79-.19l-10,75-3.35,19.32s-4.6,20-15.5,26.27c-4.22,2.43-6.54,3.66-7.81,4.28a2.67,2.67,0,0,0-1.51,2.43l.1,19.8a1.71,1.71,0,0,0,1.73,1.7c9.36-.12,19,.26,27.64-4.09,5.11-2.59,8.24-6.39,11.71-10.76a56.4,56.4,0,0,0,7.81-13.42c3.83-9.1,7.54-26,10.23-42.84s11.07-73.95,11.07-73.95L136,80.4s.18-1.17,2.11-1.21,63.94,0,63.94,0h42.73A1.27,1.27,0,0,0,246,77.92V47.43A1.27,1.27,0,0,0,244.75,46.16Z"/><path class="cls-3" d="M161.85,97.45h26.29l-5.25,69.2-.36,17s.45,13.2,9.51,14.18,26.48-.45,26.48-.45l1.88-.09-10.35,27.17s-10.29,3.35-25,2.39-21.89-6-27.64-13.52-5.5-18.31-5.62-22.5S161.85,97.45,161.85,97.45Z"/></svg>