<svg width="320" height="220" viewBox="0 0 320 220" fill="none" xmlns="http://www.w3.org/2000/svg">
<path d="M308.44 203.879C308.44 203.944 241.976 203.999 160.006 203.999C78.0358 203.999 11.5586 203.944 11.5586 203.879C11.5586 203.815 78.0082 203.76 160.006 203.76C242.004 203.76 308.44 203.815 308.44 203.879Z" fill="#263238"/>
<path d="M255.06 67.5039H64.9834C61.2841 67.5039 58.2852 70.5028 58.2852 74.2022V195.36C58.2852 199.059 61.2841 202.058 64.9834 202.058H255.06C258.759 202.058 261.758 199.059 261.758 195.36V74.2022C261.758 70.5028 258.759 67.5039 255.06 67.5039Z" fill="#263238"/>
<path d="M49.7819 192.105H270.228V195.696C270.228 200.211 266.564 203.879 262.045 203.879H57.9606C53.446 203.879 49.7773 200.215 49.7773 195.696V192.105H49.7819Z" fill="#263238"/>
<path d="M255.729 72.8516H63.75V186.479H255.729V72.8516Z" fill="#455A64"/>
<path d="M139.969 192.105L142.704 196.455H181.198L183.735 192.105H139.969Z" fill="#455A64"/>
<path d="M69.2104 76.6953H250.667C251.499 76.6953 252.17 77.3711 252.17 78.1986V184.608C252.17 185.44 251.494 186.111 250.667 186.111H69.2104C68.3782 186.111 67.707 185.436 67.707 184.608V78.1986C67.707 77.3665 68.3828 76.6953 69.2104 76.6953Z" fill="#EBEBEB"/>
<path d="M252.174 84.7129H67.707V186.116H252.174V84.7129Z" fill="#EBEBEB"/>
<path d="M82.8329 80.9204C82.8329 81.7341 82.1755 82.3915 81.3618 82.3915C80.548 82.3915 79.8906 81.7341 79.8906 80.9204C79.8906 80.1066 80.548 79.4492 81.3618 79.4492C82.1755 79.4492 82.8329 80.1066 82.8329 80.9204Z" fill="#455A64"/>
<path d="M73.9032 80.9204C73.9032 81.7341 73.2458 82.3915 72.4321 82.3915C71.6184 82.3915 70.9609 81.7341 70.9609 80.9204C70.9609 80.1066 71.6229 79.4492 72.4321 79.4492C73.2412 79.4492 73.9032 80.1066 73.9032 80.9204Z" fill="#455A64"/>
<path d="M78.1962 80.9204C78.1962 81.7341 77.5388 82.3915 76.725 82.3915C75.9113 82.3915 75.2539 81.7341 75.2539 80.9204C75.2539 80.1066 75.9113 79.4492 76.725 79.4492C77.5388 79.4492 78.1962 80.1066 78.1962 80.9204Z" fill="#455A64"/>
<path d="M260.01 192.104C260.01 192.178 214.851 192.237 159.154 192.237C103.458 192.237 58.2891 192.178 58.2891 192.104C58.2891 192.03 103.439 191.971 159.154 191.971C214.869 191.971 260.01 192.03 260.01 192.104Z" fill="#455A64"/>
<path d="M58.2391 193.582C58.2391 193.582 58.1839 193.555 58.0828 193.49C57.977 193.421 57.8299 193.32 57.6322 193.191C57.4346 193.058 57.1863 192.888 56.8967 192.69C56.607 192.488 56.2576 192.267 55.8991 191.969C55.5313 191.679 55.1221 191.357 54.6716 190.999C54.2256 190.635 53.7751 190.199 53.2648 189.743C52.2626 188.819 51.1822 187.67 50.0605 186.295C47.84 183.542 45.5735 179.758 44.0058 174.958C42.4703 170.168 41.6198 164.385 42.0979 158.054C42.3416 154.896 42.8519 151.595 43.8127 148.266C44.7598 144.938 46.1022 141.554 48.0606 138.364C48.5433 137.564 49.0858 136.792 49.6513 136.024C50.249 135.284 50.8466 134.539 51.4534 133.789C52.0925 133.068 52.7591 132.364 53.4211 131.638C54.0969 130.93 54.8279 130.268 55.5359 129.569C58.4506 126.871 61.7331 124.406 65.25 122.135C72.2931 117.579 80.251 113.81 88.4435 109.883C96.6129 105.884 105.219 102.045 114.046 98.1649C149.395 82.6811 181.751 69.496 205.316 60.3381C217.095 55.7408 226.703 52.2331 233.356 49.8287C236.684 48.6426 239.286 47.7599 241.042 47.153C241.92 46.8542 242.592 46.6243 243.047 46.4726C243.272 46.3991 243.442 46.3439 243.562 46.3025C243.677 46.2657 243.736 46.252 243.736 46.252C243.736 46.252 243.681 46.2795 243.571 46.3255C243.456 46.3715 243.286 46.4312 243.065 46.5186C242.615 46.6841 241.948 46.9278 241.074 47.245C239.323 47.8794 236.739 48.8081 233.42 50.008C226.791 52.4629 217.201 56.0167 205.441 60.6554C181.912 69.8914 149.583 83.127 114.239 98.6062C105.412 102.486 96.8152 106.316 88.6457 110.311C80.4487 114.232 72.5 117.984 65.4891 122.508C61.9859 124.765 58.7218 127.206 55.8209 129.882C55.1175 130.571 54.3865 131.229 53.7153 131.928C53.0579 132.645 52.3959 133.344 51.7615 134.056C51.1592 134.801 50.5616 135.536 49.9731 136.267C49.4168 137.021 48.8789 137.78 48.4008 138.571C46.4608 141.715 45.1229 145.067 44.1713 148.363C43.2059 151.664 42.691 154.942 42.4381 158.077C41.9416 164.362 42.7599 170.108 44.2632 174.876C45.7941 179.648 48.0238 183.422 50.2076 186.176C51.3109 187.551 52.3775 188.704 53.3613 189.633C53.8624 190.088 54.3084 190.534 54.7497 190.897C55.1957 191.261 55.5956 191.587 55.9588 191.881C56.3128 192.185 56.653 192.414 56.938 192.617C57.2231 192.824 57.4667 192.994 57.6598 193.136C57.8483 193.274 57.9954 193.38 58.0966 193.453C58.1931 193.527 58.2391 193.564 58.2391 193.568V193.582Z" fill="#263238"/>
<path d="M236.008 31.1202L244.522 38.1771L243.736 46.2637L250.71 42.3836L258.139 47.6613L285.824 29.8789L236.008 31.1202Z" fill="#40403E"/>
<g opacity="0.5">
<path d="M244.521 38.1763L285.073 29.8965L248.649 40.9209L243.734 46.2629L244.521 38.1763Z" fill="black"/>
</g>
<g opacity="0.8">
<path d="M248.649 40.9219L250.709 42.3838L243.734 46.264L248.649 40.9219Z" fill="black"/>
</g>
<path d="M121.124 137.394L76.8984 141.59L79.7267 171.398L123.952 167.202L121.124 137.394Z" fill="white"/>
<path d="M123.95 167.206C123.95 167.206 123.918 167.013 123.881 166.655C123.84 166.278 123.784 165.754 123.711 165.073C123.568 163.676 123.361 161.653 123.099 159.069C122.585 153.883 121.854 146.454 120.957 137.411L121.136 137.558C108.926 138.726 93.5662 140.202 76.9194 141.793C76.8734 141.838 77.2688 141.37 77.1032 141.572V141.581V141.595V141.627L77.1124 141.691L77.1262 141.816L77.1492 142.064L77.1952 142.56L77.2871 143.553C77.3515 144.215 77.4113 144.873 77.4756 145.526C77.5998 146.836 77.7239 148.137 77.8434 149.429C78.0871 152.012 78.3261 154.555 78.5652 157.051C79.0341 162.039 79.4847 166.839 79.9122 171.381L79.7053 171.211C92.7065 170.015 103.74 168.999 111.542 168.282C115.436 167.933 118.525 167.657 120.658 167.469C121.706 167.381 122.52 167.308 123.09 167.262C123.357 167.243 123.564 167.225 123.725 167.211C123.867 167.202 123.941 167.197 123.945 167.202C123.945 167.202 123.881 167.216 123.748 167.234C123.596 167.252 123.394 167.275 123.136 167.303C122.575 167.363 121.775 167.446 120.746 167.551C118.622 167.763 115.551 168.075 111.68 168.462C103.85 169.229 92.7801 170.31 79.7375 171.583L79.549 171.602L79.5306 171.413C79.0939 166.871 78.6342 162.076 78.1606 157.088C77.9216 154.591 77.6825 152.049 77.4343 149.465C77.3101 148.174 77.186 146.873 77.0619 145.562C76.9975 144.905 76.9377 144.247 76.8734 143.59L76.7814 142.597L76.7355 142.101L76.7125 141.852L76.6987 141.728V141.664L76.6895 141.632V141.618V141.609C76.524 141.806 76.9148 141.328 76.878 141.379C93.5295 139.816 108.894 138.372 121.104 137.223L121.27 137.209L121.283 137.374C122.111 146.468 122.787 153.939 123.26 159.152C123.486 161.722 123.665 163.736 123.784 165.129C123.84 165.795 123.881 166.315 123.913 166.682C123.941 167.032 123.945 167.202 123.945 167.202L123.95 167.206Z" fill="#455A64"/>
<path d="M121.125 137.397C121.125 137.397 121.019 137.558 120.785 137.838C120.522 138.146 120.173 138.551 119.741 139.052C118.794 140.128 117.47 141.631 115.842 143.479C112.486 147.231 107.884 152.375 102.758 158.112L102.644 158.241L102.496 158.149C102.124 157.91 101.724 157.657 101.319 157.4C94.5752 153.074 88.47 149.157 84.006 146.297C81.8315 144.877 80.0569 143.723 78.7834 142.891C78.1996 142.5 77.7306 142.187 77.3766 141.948C77.0594 141.728 76.8939 141.608 76.8985 141.594C76.9077 141.58 77.087 141.682 77.418 141.875C77.7858 142.095 78.2639 142.39 78.8662 142.753C80.1534 143.553 81.951 144.674 84.1577 146.049C88.6355 148.886 94.7637 152.766 101.536 157.05C101.94 157.308 102.34 157.565 102.712 157.8L102.45 157.837C107.613 152.136 112.247 147.019 115.631 143.291C117.3 141.479 118.656 140.004 119.626 138.946C120.081 138.464 120.444 138.077 120.725 137.783C120.978 137.521 121.116 137.388 121.129 137.397H121.125Z" fill="#455A64"/>
<path d="M214.608 94.334L208.633 115.477L240.004 124.342L245.979 103.199L214.608 94.334Z" fill="white"/>
<path d="M240.01 124.345C240.01 124.345 240.042 124.207 240.106 123.95C240.18 123.683 240.281 123.306 240.41 122.823C240.681 121.83 241.081 120.391 241.586 118.552C242.612 114.87 244.078 109.592 245.867 103.17L245.949 103.317C237.288 100.876 226.388 97.8092 214.577 94.4808C214.536 94.5037 214.927 94.2831 214.761 94.3796V94.398V94.421L214.743 94.467L214.72 94.5543L214.669 94.729L214.568 95.083L214.37 95.7864C214.237 96.2553 214.108 96.7196 213.975 97.184C213.713 98.1126 213.451 99.0367 213.193 99.9516C212.674 101.786 212.164 103.588 211.663 105.358C210.66 108.898 209.695 112.295 208.78 115.518L208.683 115.348C217.896 117.982 225.712 120.217 231.238 121.793C233.996 122.589 236.18 123.219 237.693 123.655C238.433 123.871 239.007 124.042 239.412 124.161C239.6 124.216 239.748 124.262 239.858 124.294C239.959 124.327 240.01 124.345 240.014 124.345C240.014 124.345 239.968 124.336 239.872 124.313C239.761 124.285 239.619 124.248 239.435 124.198C239.035 124.087 238.465 123.936 237.734 123.733C236.226 123.315 234.042 122.713 231.288 121.95C225.73 120.396 217.869 118.198 208.61 115.61L208.477 115.573L208.513 115.44C209.419 112.217 210.38 108.815 211.377 105.275C211.879 103.505 212.384 101.703 212.904 99.8688C213.161 98.9539 213.423 98.0299 213.685 97.1012C213.819 96.6369 213.947 96.168 214.081 95.7036L214.278 95.0002L214.38 94.6463L214.43 94.4716L214.453 94.3842L214.467 94.3382V94.3153L214.476 94.3061C214.311 94.3934 214.706 94.1681 214.665 94.1957C226.47 97.5426 237.366 100.637 246.023 103.092L246.138 103.124L246.106 103.239C244.257 109.679 242.74 114.966 241.678 118.663C241.15 120.479 240.736 121.904 240.451 122.888C240.313 123.361 240.203 123.724 240.124 123.986C240.051 124.23 240.01 124.35 240.01 124.35V124.345Z" fill="#455A64"/>
<path d="M245.989 103.202C245.989 103.202 245.874 103.285 245.639 103.414C245.377 103.556 245.032 103.74 244.605 103.97C243.672 104.457 242.366 105.133 240.761 105.965C237.47 107.643 232.955 109.942 227.93 112.503L227.815 112.562L227.737 112.457C227.544 112.195 227.337 111.914 227.13 111.629C223.664 106.88 220.529 102.582 218.235 99.4371C217.122 97.8878 216.216 96.6282 215.568 95.7225C215.274 95.2996 215.035 94.9594 214.856 94.7019C214.695 94.4674 214.617 94.3387 214.626 94.3341C214.635 94.3295 214.731 94.4445 214.906 94.6651C215.099 94.9134 215.348 95.2398 215.665 95.649C216.331 96.5408 217.265 97.7821 218.409 99.3084C220.722 102.439 223.885 106.719 227.379 111.445C227.586 111.73 227.792 112.011 227.986 112.273L227.797 112.227C232.845 109.698 237.369 107.427 240.674 105.772C242.297 104.977 243.616 104.324 244.559 103.86C245 103.648 245.35 103.483 245.621 103.354C245.864 103.244 245.993 103.189 245.998 103.198L245.989 103.202Z" fill="#455A64"/>
<path d="M80.5443 89.292C80.5443 89.292 82.7051 87.5404 86.0611 92.7951C89.4126 98.0499 90.7872 101.135 90.7872 101.135C90.7872 101.135 91.6423 102.22 92.364 101.388C93.0858 100.555 93.9685 98.3027 95.3569 98.5556C96.7958 98.8222 97.4119 100.339 97.3659 102.666C97.3199 104.992 97.4119 110.09 97.4211 110.55C97.4303 111.001 97.7521 111.64 98.336 111.152C98.9198 110.665 102.124 106.316 104.096 107.957C106.069 109.603 104.878 116.062 104.763 116.77C104.648 117.478 104.809 117.759 105.154 117.901C105.499 118.039 106.436 116.476 107.402 115.276C108.363 114.076 109.691 112.853 110.749 113.897C111.806 114.94 112.569 119.625 108.822 127.721L106.841 131.357L102.685 131.528C93.7662 131.353 89.8861 128.617 89.4126 127.206C88.939 125.799 90.6171 125.142 92.1158 124.802C93.6145 124.461 95.435 124.301 95.458 123.933C95.4856 123.56 95.3017 123.289 94.6121 123.087C93.9225 122.88 87.5966 121.124 86.9806 118.627C86.3645 116.136 91.679 115.156 92.3732 114.848C93.0674 114.54 92.6353 113.97 92.2353 113.763C91.8261 113.552 87.2794 111.24 85.1692 110.26C83.0591 109.281 81.9603 108.063 82.3511 106.651C82.7281 105.291 85.1416 105.484 86.2082 105.199C87.2748 104.914 86.6726 103.668 86.6726 103.668C86.6726 103.668 84.5026 101.079 81.2477 95.765C77.9928 90.4505 80.5811 89.2552 80.5811 89.2552" fill="#40403E"/>
<path d="M83.5586 93.9902C83.5586 93.9902 83.577 94.0316 83.623 94.1052C83.6689 94.1833 83.7333 94.2937 83.816 94.4362C83.9907 94.7304 84.2482 95.1534 84.5746 95.7004C85.2366 96.7946 86.2021 98.3761 87.4066 100.321C89.811 104.215 93.1808 109.566 96.923 115.464C100.665 121.363 104.049 126.709 106.472 130.589C107.681 132.525 108.66 134.097 109.34 135.187C109.676 135.725 109.938 136.143 110.122 136.437C110.209 136.575 110.278 136.681 110.329 136.759C110.375 136.833 110.402 136.865 110.402 136.865C110.402 136.865 110.384 136.823 110.338 136.75C110.292 136.672 110.228 136.561 110.145 136.419C109.97 136.125 109.713 135.702 109.386 135.155C108.724 134.06 107.759 132.479 106.554 130.534C104.15 126.64 100.78 121.289 97.0379 115.386C93.2957 109.488 89.9167 104.146 87.4893 100.266C86.2802 98.3301 85.301 96.7578 84.6206 95.6683C84.285 95.1304 84.0229 94.712 83.839 94.4178C83.7517 94.2799 83.6827 94.1741 83.6322 94.096C83.5862 94.0224 83.5586 93.9902 83.5586 93.9902Z" fill="#263238"/>
<path d="M94.2537 101.754C94.2537 101.754 94.2169 101.855 94.1755 102.044C94.1341 102.232 94.079 102.503 94.0146 102.843C93.8905 103.519 93.7434 104.462 93.6008 105.501C93.4675 106.526 93.3434 107.45 93.2468 108.163C93.2055 108.48 93.1687 108.746 93.1365 108.967C93.1089 109.156 93.0997 109.261 93.1089 109.266C93.1181 109.266 93.1457 109.165 93.1917 108.976C93.233 108.788 93.2882 108.517 93.348 108.176C93.4675 107.496 93.6008 106.558 93.7433 105.519C93.8859 104.499 94.0146 103.574 94.1157 102.862C94.1617 102.545 94.1985 102.278 94.2307 102.057C94.2582 101.869 94.2674 101.759 94.2582 101.759L94.2537 101.754Z" fill="#263238"/>
<path d="M92.7404 109.376C92.7496 109.339 90.8233 108.949 88.4465 108.507C86.0651 108.066 84.1342 107.739 84.125 107.776C84.1158 107.813 86.0421 108.204 88.4189 108.645C90.7957 109.086 92.7312 109.413 92.7404 109.376Z" fill="#263238"/>
<path d="M98.8942 118.178C98.8942 118.178 98.7839 118.178 98.5862 118.192C98.3609 118.215 98.0851 118.242 97.7587 118.274C97.0599 118.343 96.0945 118.431 95.0279 118.495C93.9613 118.559 92.9913 118.582 92.2879 118.596C91.9615 118.601 91.681 118.61 91.4558 118.614C91.2581 118.619 91.1523 118.628 91.1523 118.637C91.1523 118.647 91.2627 118.656 91.4558 118.67C91.6535 118.679 91.9385 118.693 92.2879 118.697C92.9913 118.711 93.9613 118.697 95.0325 118.637C96.1037 118.578 97.0691 118.467 97.7679 118.375C98.1173 118.329 98.3977 118.283 98.5908 118.251C98.7839 118.219 98.8896 118.192 98.8896 118.182L98.8942 118.178Z" fill="#263238"/>
<path d="M101.783 111.584C101.783 111.584 101.723 111.667 101.641 111.828C101.558 111.989 101.443 112.228 101.305 112.517C101.025 113.101 100.648 113.915 100.239 114.816C99.8294 115.717 99.4662 116.535 99.2087 117.133C99.08 117.432 98.9789 117.675 98.9099 117.841C98.8409 118.011 98.8088 118.103 98.8179 118.108C98.8271 118.108 98.8777 118.025 98.9605 117.864C99.0432 117.703 99.1582 117.469 99.2961 117.174C99.5765 116.59 99.9535 115.777 100.363 114.876C100.772 113.975 101.135 113.156 101.388 112.559C101.517 112.26 101.618 112.016 101.687 111.851C101.756 111.681 101.788 111.589 101.779 111.584H101.783Z" fill="#263238"/>
<path d="M108.201 118.666C108.201 118.666 108.127 118.776 108.026 118.983C107.911 119.218 107.764 119.512 107.589 119.866C107.226 120.615 106.734 121.654 106.201 122.804C105.668 123.953 105.19 125.001 104.849 125.76C104.693 126.123 104.56 126.422 104.454 126.661C104.362 126.877 104.316 126.996 104.325 127.001C104.335 127.001 104.399 126.891 104.5 126.684C104.615 126.449 104.762 126.155 104.937 125.801C105.3 125.052 105.792 124.013 106.325 122.863C106.858 121.714 107.337 120.666 107.677 119.907C107.833 119.544 107.966 119.245 108.072 119.006C108.164 118.79 108.21 118.671 108.201 118.666Z" fill="#263238"/>
<path d="M104.364 126.77C104.364 126.77 104.226 126.766 103.977 126.779C103.702 126.798 103.348 126.816 102.925 126.844C102.037 126.899 100.81 126.973 99.4536 127.014C98.0974 127.06 96.8653 127.064 95.978 127.064C95.5551 127.064 95.2011 127.064 94.9252 127.064C94.677 127.064 94.5391 127.074 94.5391 127.083C94.5391 127.092 94.677 127.106 94.9252 127.12C95.1735 127.133 95.5321 127.152 95.978 127.161C96.8699 127.189 98.102 127.193 99.4628 127.152C100.824 127.11 102.051 127.023 102.938 126.94C103.384 126.899 103.743 126.862 103.987 126.83C104.235 126.798 104.368 126.779 104.368 126.77H104.364Z" fill="#263238"/>
<path d="M241.325 130.759C239.78 130.047 237.941 130.157 236.364 130.796C234.788 131.435 233.45 132.562 232.319 133.835C230.131 136.295 228.912 139.881 228.301 143.112C231.928 143.558 235.473 141.232 237.197 139.94C239.923 137.899 243.605 132.548 241.325 130.759Z" fill="#40403E"/>
<path d="M221.741 144.382C223.475 143.6 224.606 141.752 224.739 139.853C224.872 137.959 224.081 136.06 222.808 134.654C222.22 134.001 221.438 133.408 220.56 133.454C219.742 133.495 219.029 134.111 218.684 134.86C218.339 135.605 218.312 136.46 218.395 137.279C218.67 140.083 219.452 142.745 221.741 144.382Z" fill="#40403E"/>
<path d="M216.971 153.53C216.971 153.53 217.155 153.36 217.427 153.011C217.702 152.661 218.089 152.151 218.548 151.503C219.454 150.206 220.695 148.358 221.527 146.05C222.36 143.738 222.433 141.439 222.079 139.871C221.914 139.085 221.679 138.474 221.481 138.074C221.284 137.674 221.141 137.472 221.123 137.481C221.054 137.513 221.569 138.373 221.826 139.917C222.102 141.453 221.992 143.669 221.183 145.921C220.369 148.174 219.183 150.022 218.332 151.351C217.468 152.675 216.925 153.493 216.971 153.525V153.53Z" fill="#263238"/>
<path d="M238.051 134.516C238.051 134.516 237.71 134.736 237.131 135.191C236.556 135.647 235.733 136.313 234.722 137.154C232.708 138.833 229.959 141.196 226.989 143.876C224.02 146.561 221.394 149.057 219.523 150.891C218.586 151.811 217.836 152.56 217.33 153.089C216.82 153.617 216.549 153.916 216.567 153.935C216.586 153.953 216.894 153.686 217.432 153.195C218.015 152.652 218.783 151.939 219.707 151.084C221.624 149.296 224.277 146.836 227.242 144.152C230.208 141.471 232.925 139.081 234.897 137.357C235.844 136.525 236.63 135.835 237.228 135.306C237.775 134.819 238.069 134.539 238.055 134.52L238.051 134.516Z" fill="#263238"/>
<path d="M223.827 149.341C227.146 147.098 231.578 146.601 235.311 148.059C236.263 148.431 237.292 149.112 237.311 150.132C237.329 151.153 236.313 151.87 235.366 152.251C231.417 153.833 226.548 152.716 223.68 149.576" fill="#40403E"/>
<path d="M232.842 149.912C232.851 149.889 232.64 149.783 232.249 149.618C232.056 149.53 231.812 149.434 231.518 149.351C231.228 149.264 230.902 149.144 230.525 149.075C229.78 148.891 228.874 148.777 227.863 148.74C226.852 148.726 225.734 148.809 224.585 149.043C223.44 149.291 222.388 149.668 221.464 150.091C220.553 150.533 219.767 151.006 219.16 151.475C218.843 151.691 218.595 151.93 218.36 152.128C218.126 152.321 217.947 152.51 217.799 152.666C217.51 152.978 217.358 153.158 217.376 153.176C217.427 153.227 218.075 152.542 219.307 151.687C219.919 151.254 220.7 150.813 221.597 150.399C222.503 150.004 223.537 149.645 224.649 149.402C225.767 149.172 226.856 149.085 227.845 149.08C228.833 149.094 229.725 149.181 230.46 149.328C231.936 149.609 232.805 149.976 232.828 149.907L232.842 149.912Z" fill="#263238"/>
<path d="M220.759 49.2441H104.566V176.65H220.759V49.2441Z" fill="#FAFAFA"/>
<path d="M220.761 176.644C220.761 175.738 220.72 125.375 220.656 49.2387L220.761 49.3444C186.691 49.3444 146.896 49.3536 104.583 49.3582H104.569L104.688 49.2387C104.684 96.1175 104.674 139.902 104.67 176.644L104.569 176.543C174.439 176.603 219.897 176.644 220.761 176.644C219.902 176.644 174.443 176.686 104.569 176.745H104.468V176.644C104.463 139.902 104.458 96.1221 104.449 49.2387V49.1191H104.583C146.896 49.1237 186.691 49.1283 220.761 49.1329H220.867V49.2387C220.803 125.375 220.761 175.738 220.761 176.644Z" fill="#263238"/>
<path d="M189.341 150.291H144.94C141.256 150.291 138.27 153.278 138.27 156.962V158.313C138.27 161.997 141.256 164.984 144.94 164.984H189.341C193.025 164.984 196.012 161.997 196.012 158.313V156.962C196.012 153.278 193.025 150.291 189.341 150.291Z" fill="#40403E"/>
<g opacity="0.5">
<path d="M189.337 150.291H144.936C141.252 150.291 138.266 153.278 138.266 156.962V158.313C138.266 161.997 141.252 164.984 144.936 164.984H189.337C193.021 164.984 196.008 161.997 196.008 158.313V156.962C196.008 153.278 193.021 150.291 189.337 150.291Z" fill="black"/>
</g>
<path d="M184.49 150.291H140.089C136.405 150.291 133.418 153.278 133.418 156.962V158.313C133.418 161.997 136.405 164.984 140.089 164.984H184.49C188.174 164.984 191.16 161.997 191.16 158.313V156.962C191.16 153.278 188.174 150.291 184.49 150.291Z" fill="#40403E"/>
<path d="M149.355 158.591L149.553 158.154C149.797 158.352 150.183 158.49 150.56 158.49C151.033 158.49 151.236 158.32 151.236 158.095C151.236 157.437 149.424 157.869 149.424 156.738C149.424 156.246 149.815 155.828 150.652 155.828C151.015 155.828 151.401 155.925 151.663 156.099L151.484 156.541C151.208 156.38 150.909 156.302 150.643 156.302C150.174 156.302 149.981 156.486 149.981 156.715C149.981 157.364 151.787 156.941 151.787 158.058C151.787 158.545 151.392 158.963 150.555 158.963C150.082 158.963 149.608 158.816 149.355 158.596V158.591Z" fill="#FAFAFA"/>
<path d="M152.324 157.587V155.867H152.89V157.564C152.89 158.189 153.17 158.46 153.662 158.46C154.154 158.46 154.43 158.189 154.43 157.564V155.867H154.986V157.587C154.986 158.474 154.485 158.957 153.657 158.957C152.83 158.957 152.324 158.474 152.324 157.587Z" fill="#FAFAFA"/>
<path d="M158.492 158.089C158.492 158.613 158.083 158.916 157.302 158.916H155.789V155.873H157.214C157.945 155.873 158.336 156.181 158.336 156.664C158.336 156.976 158.18 157.206 157.945 157.335C158.272 157.441 158.492 157.698 158.492 158.094V158.089ZM156.35 156.314V157.156H157.15C157.541 157.156 157.761 157.018 157.761 156.737C157.761 156.457 157.541 156.314 157.15 156.314H156.35ZM157.922 158.029C157.922 157.726 157.692 157.592 157.265 157.592H156.35V158.471H157.265C157.692 158.471 157.922 158.337 157.922 158.029Z" fill="#FAFAFA"/>
<path d="M158.84 158.591L159.038 158.154C159.281 158.352 159.667 158.49 160.044 158.49C160.518 158.49 160.72 158.32 160.72 158.095C160.72 157.437 158.909 157.869 158.909 156.738C158.909 156.246 159.3 155.828 160.136 155.828C160.499 155.828 160.886 155.925 161.148 156.099L160.968 156.541C160.693 156.38 160.394 156.302 160.127 156.302C159.658 156.302 159.465 156.486 159.465 156.715C159.465 157.364 161.272 156.941 161.272 158.058C161.272 158.545 160.876 158.963 160.04 158.963C159.566 158.963 159.093 158.816 158.84 158.596V158.591Z" fill="#FAFAFA"/>
<path d="M161.613 157.392C161.613 156.482 162.307 155.824 163.245 155.824C163.742 155.824 164.169 156.004 164.45 156.335L164.087 156.679C163.866 156.44 163.59 156.321 163.273 156.321C162.643 156.321 162.188 156.762 162.188 157.392C162.188 158.022 162.643 158.463 163.273 158.463C163.59 158.463 163.866 158.348 164.087 158.1L164.45 158.449C164.165 158.78 163.742 158.96 163.241 158.96C162.307 158.96 161.613 158.302 161.613 157.392Z" fill="#FAFAFA"/>
<path d="M166.983 158.911L166.362 158.019C166.325 158.019 166.284 158.019 166.247 158.019H165.558V158.907H164.992V155.863H166.243C167.043 155.863 167.539 156.272 167.539 156.948C167.539 157.408 167.305 157.748 166.891 157.909L167.59 158.911H166.983ZM166.215 156.346H165.553V157.56H166.215C166.712 157.56 166.969 157.334 166.969 156.953C166.969 156.571 166.712 156.346 166.215 156.346Z" fill="#FAFAFA"/>
<path d="M168.176 155.869H168.741V158.913H168.176V155.869Z" fill="#FAFAFA"/>
<path d="M172.27 158.089C172.27 158.613 171.86 158.916 171.079 158.916H169.566V155.873H170.992C171.723 155.873 172.113 156.181 172.113 156.664C172.113 156.976 171.957 157.206 171.723 157.335C172.049 157.441 172.27 157.698 172.27 158.094V158.089ZM170.127 156.314V157.156H170.927C171.318 157.156 171.539 157.018 171.539 156.737C171.539 156.457 171.318 156.314 170.927 156.314H170.127ZM171.7 158.029C171.7 157.726 171.47 157.592 171.042 157.592H170.127V158.471H171.042C171.47 158.471 171.7 158.337 171.7 158.029Z" fill="#FAFAFA"/>
<path d="M175.156 158.439V158.913H172.871V155.869H175.092V156.343H173.437V157.133H174.908V157.598H173.437V158.439H175.156Z" fill="#FAFAFA"/>
<path d="M196.48 140.495C196.48 140.559 181.704 140.614 163.481 140.614C145.257 140.614 130.477 140.559 130.477 140.495C130.477 140.43 145.248 140.375 163.481 140.375C181.714 140.375 196.48 140.43 196.48 140.495Z" fill="#263238"/>
<path d="M206.803 144.485C206.803 144.549 187.403 144.604 163.478 144.604C139.554 144.604 120.148 144.549 120.148 144.485C120.148 144.42 139.545 144.365 163.478 144.365C187.412 144.365 206.803 144.42 206.803 144.485Z" fill="#263238"/>
<path d="M110.038 54.1987C110.038 54.7412 109.597 55.1825 109.054 55.1825C108.512 55.1825 108.07 54.7412 108.07 54.1987C108.07 53.6562 108.512 53.2148 109.054 53.2148C109.597 53.2148 110.038 53.6562 110.038 54.1987Z" fill="#E0E0E0"/>
<path d="M112.331 55.1825C112.875 55.1825 113.315 54.742 113.315 54.1987C113.315 53.6553 112.875 53.2148 112.331 53.2148C111.788 53.2148 111.348 53.6553 111.348 54.1987C111.348 54.742 111.788 55.1825 112.331 55.1825Z" fill="#E0E0E0"/>
<path d="M116.593 54.1987C116.593 54.7412 116.151 55.1825 115.609 55.1825C115.066 55.1825 114.625 54.7412 114.625 54.1987C114.625 53.6562 115.066 53.2148 115.609 53.2148C116.151 53.2148 116.593 53.6562 116.593 54.1987Z" fill="#E0E0E0"/>
<path d="M212.121 74.7968L214.034 67.9054C214.034 67.9054 214.723 65.1056 214.889 64.4528C215.105 63.5885 214.498 63.3172 214.139 63.9057C214.001 64.131 212.493 66.9813 212.493 66.9813C212.493 66.9813 213.698 62.315 213.744 62.1449C214.135 60.6232 213.192 60.7795 212.916 61.322C212.631 61.8829 210.926 66.4756 210.926 66.4756C212.53 60.4761 212.029 59.9474 211.579 59.8509C211.128 59.7543 209.717 65.2435 209.717 65.2435C209.717 65.2435 209.206 64.3057 208.268 63.6575C206.82 62.6598 204.402 63.6574 204.287 64.3379C204.172 65.0183 205.032 65.2113 205.032 65.2113C206.848 64.039 208.71 65.4596 208.517 67.1928C208.328 68.926 206.131 68.6869 205.86 67.4502C205.262 64.7424 204.329 65.6251 204.329 65.6251L205.262 71.5924L204.273 74.5945" fill="#9A654B"/>
<path d="M143.295 102.883L184.602 102.607L185.738 130.692L142.969 130.269L143.295 102.883Z" fill="#455A64"/>
<path d="M143.297 102.883L164.279 85.9277L184.604 102.607" fill="#263238"/>
<path d="M142.969 130.27C142.919 130.22 146.229 126.615 150.357 122.211C154.49 117.807 157.883 114.276 157.934 114.327C157.984 114.377 154.679 117.982 150.541 122.386C146.408 126.79 143.015 130.316 142.965 130.27H142.969Z" fill="#263238"/>
<path d="M185.738 130.692C185.687 130.738 182.465 127.198 178.552 122.789C174.635 118.375 171.505 114.762 171.555 114.711C171.606 114.665 174.824 118.205 178.745 122.619C182.662 127.032 185.793 130.646 185.743 130.692H185.738Z" fill="#263238"/>
<path d="M184.604 102.607L163.856 119.167L143.297 102.883" fill="#263238"/>
<path d="M115.695 71.2341H115.833L115.281 69.3814L113.511 62.3199C113.341 61.6808 113.699 61.0188 114.343 60.7798L115.616 60.7384L119.979 58.6972C120.802 58.3938 121.712 58.9087 121.818 59.75C121.979 61.0464 122.862 64.5358 123.8 63.3129C123.823 63.2853 123.846 63.2623 123.869 63.2347C125.188 61.4188 126.834 60.435 127.51 60.4626C128.172 60.4901 128.415 61.2901 127.969 61.7682C127.905 61.8509 127.827 61.9245 127.721 61.9843C127.675 62.0073 127.625 62.0486 127.579 62.0808C127.068 62.4946 126.457 63.2255 126.011 63.8048C125.583 64.3565 125.257 64.9863 125.05 65.6437C124.816 66.3747 124.646 67.0183 124.512 67.5608L124.852 71.1651" fill="#9A654B"/>
<path d="M127.339 39.2415C127.339 39.2415 122.241 38.2669 114.917 31.61C107.594 24.9622 103.989 15.9515 103.116 16.0204C102.242 16.0894 98.3852 14.4298 91.5858 30.3963C84.7864 46.3628 87.747 49.9441 89.186 49.8751C90.625 49.8061 100.339 46.7995 106.477 47.319C112.609 47.8431 120.563 50.8038 120.563 50.8038L127.339 39.2415Z" fill="#455A64"/>
<path d="M138.348 47.5318L136.711 50.8648L135.98 52.359C134.978 54.4094 132.541 55.3104 130.445 54.4186L119.48 50.943L125.393 36.3281L136.403 41.8035C138.518 42.8563 139.387 45.4124 138.348 47.5364V47.5318Z" fill="#263238"/>
<path d="M132.238 52.9676L128.969 59.8452L127.227 59.4131L116.189 68.9249L112.855 62.8335C112.855 62.8335 119.453 59.7671 120.62 57.3535C121.788 54.9353 120.345 54.4388 120.345 54.4388L123.388 50.7793L132.242 52.9722L132.238 52.9676Z" fill="#263238"/>
<path d="M92.1799 30.6675C88.5664 39.315 87.178 46.9695 89.0767 47.7649C90.9754 48.5602 95.4486 42.1929 99.062 33.5454C102.676 24.8978 104.064 17.2433 102.165 16.448C100.267 15.6526 95.7934 22.0199 92.1799 30.6675Z" fill="#263238"/>
<path d="M139.411 52.2521L136.441 51.4108L138.165 47.8984L140.409 49.2041L139.411 52.2521Z" fill="#455A64"/>
<path d="M122.336 52.0312L130.386 56.8492L131.319 54.8908L122.336 52.0312Z" fill="#455A64"/>
<path d="M138.165 47.8984L136.441 51.4108L137.053 51.5855L138.432 48.0547L138.165 47.8984Z" fill="#455A64"/>
<path d="M136.16 48.755C136.118 48.8516 134.633 48.3229 132.845 47.5735C131.052 46.8242 129.631 46.1392 129.673 46.0426C129.714 45.9461 131.199 46.4748 132.987 47.2241C134.78 47.9735 136.196 48.6585 136.16 48.755Z" fill="#455A64"/>
<path d="M137.005 46.6663C136.959 46.7629 135.617 46.2388 134.003 45.4986C132.385 44.7584 131.111 44.0826 131.157 43.9861C131.199 43.8895 132.546 44.4136 134.16 45.1538C135.773 45.894 137.051 46.5698 137.005 46.6663Z" fill="#455A64"/>
<path d="M135.078 50.9464C135.064 50.9969 134.71 50.928 134.149 50.7717C133.869 50.6935 133.533 50.5924 133.165 50.4774C132.797 50.3579 132.416 50.1786 132.007 50.0039C130.375 49.3005 129.124 48.6063 129.161 48.519C129.207 48.4132 130.536 48.9603 132.154 49.6591C132.558 49.8292 132.935 50.0177 133.289 50.1556C133.643 50.289 133.965 50.4131 134.232 50.5188C134.765 50.7395 135.091 50.9004 135.078 50.951V50.9464Z" fill="#455A64"/>
<path d="M99.9902 28.548C99.9902 28.548 95.5078 25.9413 93.2689 31.9592C91.03 37.9771 95.6871 38.823 95.6871 38.823C97.4985 35.8301 98.942 32.4189 99.9856 28.548H99.9902Z" fill="#455A64"/>
<path d="M104.469 21.3256C104.497 21.3256 104.446 21.7348 104.326 22.4658C104.207 23.1967 104.041 24.2587 103.793 25.5598C103.623 26.2034 103.439 26.9068 103.246 27.6607C103.145 28.0377 103.044 28.4285 102.938 28.8285C102.883 29.0307 102.832 29.233 102.777 29.4399C102.717 29.6468 102.639 29.8445 102.566 30.0559C102.271 30.8835 101.963 31.7524 101.646 32.6488C101.568 32.8741 101.485 33.0994 101.403 33.3292C101.324 33.5591 101.209 33.7752 101.113 34.005C100.911 34.4556 100.704 34.9107 100.497 35.375C100.29 35.8348 100.083 36.2945 99.8808 36.7404C99.7751 36.9611 99.6877 37.191 99.5682 37.4025C99.4487 37.6139 99.3338 37.8254 99.2188 38.0369C98.7545 38.8736 98.3086 39.6781 97.881 40.4459C97.7707 40.6344 97.6741 40.8321 97.5592 41.0114C97.4397 41.1907 97.3247 41.3654 97.2098 41.54C96.9799 41.8848 96.7547 42.2205 96.5386 42.5469C96.1018 43.1951 95.6973 43.7973 95.3249 44.349C94.5112 45.3926 93.8308 46.2155 93.3618 46.7902C92.8883 47.3603 92.6171 47.6683 92.5987 47.6499C92.5803 47.6361 92.8102 47.2959 93.2469 46.6982C93.702 46.0914 94.3365 45.2363 95.118 44.1835C95.4766 43.6272 95.8628 43.0204 96.2811 42.3676C96.4926 42.0412 96.7087 41.7056 96.934 41.3608C97.0443 41.1861 97.1592 41.0114 97.2742 40.8321C97.3845 40.6528 97.481 40.4597 97.5868 40.2666C98.0051 39.4988 98.4419 38.6943 98.8924 37.8622C99.0073 37.6553 99.1223 37.4438 99.2372 37.2324C99.3567 37.0209 99.4395 36.791 99.5452 36.5703C99.7475 36.1244 99.9498 35.6693 100.157 35.2095C100.364 34.7498 100.57 34.2993 100.768 33.8533C100.865 33.6281 100.98 33.412 101.058 33.1867C101.141 32.9615 101.223 32.7362 101.301 32.5109C101.628 31.619 101.94 30.7593 102.239 29.941C102.313 29.7341 102.396 29.5365 102.455 29.3342C102.51 29.1319 102.57 28.9296 102.625 28.7273C102.736 28.332 102.846 27.9458 102.952 27.5688C103.163 26.824 103.361 26.1298 103.54 25.4908C103.812 24.2128 104.032 23.1738 104.189 22.4336C104.349 21.7118 104.446 21.3118 104.474 21.3164L104.469 21.3256Z" fill="#263238"/>
<path d="M130.94 87.0332L126.384 69.7151L114.992 70.0186L118.537 94.1867C118.992 99.446 122.086 102.889 127.295 103.726C130.421 104.227 133.804 101.248 136.315 99.3219C137.951 98.0622 138.245 98.3105 139.933 96.775L147.27 91.4696L147.449 92.3385H147.403L148.649 107.11L163.848 119.044L181.975 104.521L181.561 98.2415C181.607 98.2369 181.649 98.1496 181.557 98.1496L181.088 91.0283L190.374 101.68C192.512 104.802 196.149 106.549 199.923 106.259C204.001 105.951 207.536 103.322 209.012 99.5058L213.798 75.1584L203.297 72.9011L198.378 90.4444L186.646 76.9605C179.883 68.1475 171.981 68.8922 171.981 68.8922L157.416 68.6348C157.416 68.6348 157.393 68.6348 157.384 68.6348C156.952 68.6578 148.815 68.906 143.298 74.7998L130.936 87.0378L130.94 87.0332Z" fill="#40403E"/>
<path d="M187.239 77.9218C187.239 77.9218 187.082 77.8482 186.77 77.7517C186.462 77.6506 185.984 77.5586 185.363 77.6046C184.747 77.6552 184.007 77.8528 183.207 78.2206C182.402 78.5792 181.57 79.1493 180.6 79.7056C179.639 80.248 178.481 80.8411 177.12 80.8089C176.449 80.7859 175.773 80.602 175.116 80.3446C174.458 80.0871 173.815 79.7699 173.134 79.4987C171.787 78.947 170.21 78.7631 168.656 79.0757C167.093 79.3746 165.659 80.2526 164.192 81.1031C163.452 81.5261 162.707 81.9353 161.926 82.2387C161.144 82.5421 160.331 82.7398 159.526 82.8225C157.912 82.9972 156.313 82.7582 154.938 82.1835C153.554 81.618 152.391 80.7997 151.329 80.032C150.267 79.2642 149.288 78.5286 148.332 77.977C147.371 77.4253 146.433 77.0529 145.578 76.8414C144.723 76.6391 143.96 76.5932 143.344 76.6575C142.102 76.7909 141.514 77.223 141.5 77.1816C141.5 77.1816 141.537 77.154 141.61 77.1127C141.684 77.0713 141.794 77.0115 141.941 76.938C142.245 76.8138 142.704 76.6345 143.334 76.561C143.96 76.4828 144.737 76.515 145.61 76.7081C146.479 76.9104 147.435 77.2736 148.414 77.8253C149.394 78.3769 150.382 79.1079 151.444 79.8665C152.511 80.6204 153.665 81.4296 155.021 81.972C156.368 82.5237 157.926 82.7536 159.503 82.5789C160.289 82.4961 161.08 82.303 161.843 82.0042C162.606 81.71 163.342 81.3054 164.077 80.8825C165.539 80.0366 166.997 79.1401 168.615 78.8321C170.215 78.5149 171.838 78.7125 173.217 79.2826C174.582 79.8389 175.824 80.5607 177.125 80.602C178.421 80.6434 179.557 80.0779 180.513 79.5492C181.478 79.0068 182.329 78.4413 183.152 78.0919C183.965 77.7287 184.724 77.5402 185.354 77.5034C185.984 77.4667 186.471 77.5816 186.779 77.6965C187.092 77.8115 187.234 77.9126 187.234 77.9126L187.239 77.9218Z" fill="#FAFAFA"/>
<path d="M195.679 86.5514C195.679 86.5514 195.637 86.7859 195.43 87.1905C195.223 87.5904 194.823 88.1513 194.111 88.6478C193.412 89.1443 192.405 89.5673 191.182 89.6868C189.964 89.8247 188.571 89.6776 187.059 89.5075C185.555 89.3558 183.845 89.1673 182.149 89.7282C181.307 90.0132 180.512 90.4913 179.717 91.0062C178.917 91.5211 178.098 92.0912 177.156 92.4958C175.289 93.3187 173.078 93.6267 170.89 93.2267C169.796 93.0429 168.715 92.6521 167.708 92.1096C166.697 91.5671 165.759 90.8959 164.785 90.2661C163.81 89.6408 162.817 89.0524 161.741 88.7398C160.67 88.418 159.548 88.3812 158.472 88.5375C156.312 88.8501 154.353 89.719 152.395 90.2477C151.42 90.5235 150.436 90.7166 149.466 90.7396C148.501 90.758 147.545 90.6201 146.703 90.2707C145.007 89.5719 143.756 88.3812 142.648 87.3468C141.54 86.2986 140.52 85.3607 139.485 84.7401C138.46 84.1057 137.435 83.8206 136.594 83.7517C135.748 83.6827 135.09 83.8344 134.672 83.9815C134.254 84.1378 134.056 84.2712 134.047 84.2574C134.047 84.2574 134.235 84.1103 134.654 83.9356C135.072 83.7701 135.739 83.6 136.598 83.6551C137.453 83.7103 138.506 83.9861 139.554 84.6206C140.612 85.2412 141.651 86.1745 142.763 87.2181C143.881 88.2433 145.126 89.411 146.777 90.0822C147.6 90.4178 148.519 90.5419 149.462 90.5235C150.404 90.5005 151.37 90.3074 152.335 90.0316C153.3 89.7604 154.28 89.4156 155.286 89.0938C156.293 88.7719 157.337 88.4547 158.44 88.303C159.539 88.1421 160.702 88.1789 161.81 88.5099C162.923 88.8363 163.934 89.4386 164.913 90.0638C165.892 90.6982 166.83 91.3648 167.823 91.8981C168.812 92.4314 169.865 92.8084 170.936 92.9923C173.078 93.3831 175.243 93.0842 177.073 92.2889C178.903 91.489 180.337 90.1052 182.093 89.5351C182.962 89.2455 183.845 89.1627 184.686 89.1627C185.528 89.1627 186.328 89.2455 187.086 89.3328C188.599 89.5167 189.978 89.673 191.178 89.5489C192.382 89.4477 193.371 89.0478 194.065 88.5697C194.773 88.0961 195.177 87.5537 195.393 87.1675C195.61 86.7767 195.669 86.5422 195.683 86.5514H195.679Z" fill="#FAFAFA"/>
<path d="M208.968 98.2528C208.968 98.2528 208.789 98.0046 208.333 97.7333C207.888 97.4621 207.106 97.246 206.173 97.4115C205.239 97.5724 204.251 98.1793 203.263 98.9654C202.761 99.3516 202.242 99.7791 201.658 100.161C201.074 100.538 200.408 100.882 199.663 101.02C198.918 101.168 198.173 101.099 197.493 100.961C196.808 100.818 196.169 100.607 195.567 100.4C194.964 100.193 194.399 99.9906 193.856 99.8481C193.314 99.7056 192.799 99.6228 192.326 99.5907C191.379 99.5217 190.606 99.701 190.137 99.94C189.659 100.175 189.448 100.395 189.434 100.372C189.429 100.368 189.48 100.312 189.586 100.216C189.636 100.165 189.705 100.11 189.792 100.05C189.875 99.986 189.976 99.9217 190.1 99.8573C190.574 99.5815 191.365 99.3746 192.339 99.4205C192.827 99.4435 193.355 99.5217 193.907 99.655C194.463 99.7929 195.038 99.9906 195.636 100.193C196.826 100.579 198.196 101.053 199.617 100.786C200.32 100.657 200.955 100.331 201.529 99.963C202.104 99.5953 202.624 99.1769 203.129 98.7907C204.131 98.0138 205.161 97.3931 206.145 97.246C207.124 97.0943 207.933 97.3518 208.384 97.6552C208.614 97.8023 208.756 97.9678 208.853 98.0735C208.936 98.1885 208.977 98.2528 208.972 98.2574L208.968 98.2528Z" fill="#FAFAFA"/>
<path d="M211.273 85.0407C211.273 85.0407 211.149 85.1602 210.877 85.289C210.606 85.4177 210.183 85.5556 209.641 85.6016C209.103 85.6475 208.455 85.6016 207.76 85.4315C207.066 85.2706 206.34 84.9901 205.581 84.7051C204.823 84.4247 204.096 84.1718 203.416 84.0569C202.735 83.9419 202.106 83.9511 201.595 84.0523C200.556 84.2454 200.078 84.7649 200.055 84.7189C200.046 84.7097 200.152 84.5764 200.395 84.3971C200.639 84.2178 201.034 84.0109 201.563 83.8868C202.092 83.7626 202.745 83.7351 203.453 83.8408C204.161 83.9465 204.905 84.1948 205.664 84.4798C206.423 84.7649 207.14 85.0453 207.811 85.2154C208.482 85.3855 209.107 85.4545 209.627 85.4315C210.68 85.3901 211.25 84.9947 211.268 85.0407H211.273Z" fill="#FAFAFA"/>
<path d="M180.792 102.418C180.778 102.445 180.388 102.16 179.588 101.866C178.792 101.581 177.556 101.337 176.039 101.498C174.521 101.632 172.784 102.229 170.968 103.107C169.143 103.967 167.212 105.116 164.964 105.843C163.842 106.201 162.697 106.427 161.58 106.427C160.463 106.427 159.396 106.197 158.426 105.884C157.456 105.572 156.569 105.181 155.746 104.818C154.923 104.454 154.16 104.105 153.452 103.825C152.041 103.245 150.822 102.983 149.976 102.919C149.765 102.905 149.576 102.887 149.411 102.887C149.255 102.891 149.117 102.896 148.997 102.9C148.772 102.905 148.652 102.905 148.652 102.9C148.652 102.891 148.767 102.877 148.993 102.855C149.112 102.845 149.25 102.832 149.411 102.818C149.576 102.818 149.769 102.827 149.981 102.832C150.841 102.868 152.082 103.112 153.512 103.673C154.233 103.944 154.997 104.284 155.824 104.643C156.652 105.001 157.534 105.378 158.491 105.682C159.447 105.985 160.486 106.201 161.575 106.201C162.665 106.201 163.787 105.981 164.885 105.622C167.097 104.905 169.028 103.769 170.867 102.914C172.696 102.041 174.466 101.448 176.016 101.337C177.56 101.195 178.815 101.471 179.615 101.783C180.415 102.11 180.788 102.422 180.788 102.422L180.792 102.418Z" fill="#FAFAFA"/>
<path d="M118.004 90.6672C118.004 90.6672 118.068 90.6074 118.225 90.5614C118.376 90.5154 118.625 90.4971 118.919 90.589C119.208 90.681 119.544 90.8786 119.824 91.2188C120.105 91.5544 120.316 92.0004 120.555 92.4693C120.785 92.9428 121.112 93.4164 121.571 93.8209C122.027 94.2301 122.62 94.5381 123.272 94.7588C124.592 95.2001 126.155 95.2277 127.75 94.9748C129.35 94.7404 130.881 94.414 132.306 94.4278C133.736 94.4048 135.009 94.8369 135.91 95.4254C136.83 96.0092 137.345 96.7724 137.552 97.3333C137.763 97.8987 137.745 98.2435 137.745 98.2435C137.713 98.2481 137.699 97.9125 137.464 97.3701C137.234 96.8368 136.715 96.115 135.814 95.5679C134.927 95.0116 133.695 94.6117 132.302 94.6438C130.904 94.6438 129.391 94.9702 127.778 95.2093C126.173 95.4668 124.555 95.4346 123.199 94.9657C122.523 94.7312 121.912 94.4002 121.438 93.9634C120.96 93.5359 120.624 93.021 120.399 92.5383C120.169 92.0556 119.972 91.6188 119.719 91.2924C119.466 90.9706 119.158 90.7683 118.887 90.6672C118.326 90.4649 118.004 90.6902 118.004 90.6534V90.6672Z" fill="#FAFAFA"/>
<path d="M127.973 76.6212C127.946 76.6671 127.463 76.0879 126.369 75.7891C125.831 75.6419 125.155 75.5776 124.419 75.6603C123.684 75.7431 122.898 75.9913 122.107 76.3269C121.316 76.6671 120.585 77.0533 119.905 77.3889C119.229 77.7245 118.604 78.0004 118.061 78.1889C117.519 78.3773 117.064 78.4785 116.747 78.5245C116.429 78.5704 116.25 78.5704 116.25 78.5566C116.245 78.5153 116.953 78.4463 118.006 78.0279C118.535 77.8211 119.142 77.5314 119.813 77.1866C120.48 76.8418 121.215 76.4465 122.02 76.1017C122.824 75.7569 123.638 75.5086 124.406 75.4351C125.169 75.3569 125.872 75.4442 126.424 75.6189C126.98 75.7936 127.385 76.0465 127.633 76.2534C127.881 76.4603 127.987 76.6074 127.978 76.6166L127.973 76.6212Z" fill="#FAFAFA"/>
<g opacity="0.3">
<path d="M161.262 117.014C167.165 113.594 173.996 109.58 177.403 103.668C179.582 99.889 180.662 95.3699 181.085 91.0254L181.973 104.519L163.845 119.041L161.262 117.014Z" fill="black"/>
</g>
<g opacity="0.2">
<path d="M145.968 72.3789C144.575 77.5555 141.908 82.0149 137.862 85.5364C136.888 86.3869 135.826 87.1777 134.603 87.596C133.38 88.0144 131.96 88.019 130.852 87.3478L130.939 87.0398L140.124 77.9417L145.963 72.3789H145.968Z" fill="black"/>
</g>
<path d="M132.107 94.2712C132.071 94.2574 132.218 93.8528 132.342 93.1816C132.466 92.5104 132.53 91.5588 132.365 90.529C132.195 89.4992 131.827 88.6211 131.491 88.0234C131.156 87.4258 130.884 87.0902 130.917 87.0672C130.935 87.0488 131.257 87.3476 131.634 87.9407C132.015 88.5292 132.42 89.4302 132.599 90.4922C132.774 91.5542 132.677 92.5426 132.507 93.2184C132.337 93.8988 132.13 94.285 132.107 94.2758V94.2712Z" fill="#263238"/>
<path d="M129.476 91.9536C129.416 91.9076 130.216 91.0709 130.57 89.7377C130.947 88.4136 130.694 87.2827 130.768 87.2735C130.795 87.2689 130.896 87.5355 130.952 87.9999C131.007 88.4596 130.988 89.1124 130.8 89.802C130.607 90.487 130.29 91.0571 130.005 91.4249C129.719 91.7927 129.494 91.972 129.476 91.9536Z" fill="#263238"/>
<path d="M146.581 82.4531C146.645 82.4485 147.022 86.1126 147.422 90.6364C147.822 95.1647 148.094 98.838 148.025 98.8426C147.96 98.8472 147.583 95.1831 147.183 90.6593C146.783 86.1356 146.512 82.4577 146.581 82.4531Z" fill="#263238"/>
<path d="M171.127 68.3652C171.127 68.3652 171.168 68.448 171.223 68.6135C171.288 68.779 171.352 69.0272 171.426 69.3537C171.559 70.0019 171.628 70.9857 171.38 72.1626C171.122 73.3211 170.525 74.6865 169.375 75.7991C168.244 76.9208 166.525 77.6426 164.691 77.6886C162.856 77.7254 161.105 77.0772 159.923 76.006C158.728 74.944 158.07 73.6108 157.762 72.4614C157.464 71.2983 157.491 70.3145 157.597 69.6571C157.652 69.3307 157.707 69.0778 157.762 68.9123C157.813 68.7468 157.841 68.6595 157.85 68.6595C157.877 68.6687 157.762 69.0181 157.689 69.6709C157.615 70.3191 157.615 71.2891 157.928 72.4155C158.25 73.5326 158.907 74.8245 160.07 75.8359C161.215 76.8611 162.907 77.4771 164.686 77.4449C166.461 77.399 168.125 76.7094 169.224 75.6336C170.341 74.567 170.943 73.2476 171.214 72.1212C171.476 70.9765 171.435 70.0111 171.329 69.3674C171.228 68.7192 171.095 68.3744 171.122 68.3652H171.127Z" fill="#263238"/>
<path d="M197.831 96.0651C197.767 96.0651 197.661 94.7732 197.758 93.1779C197.845 91.5827 198.098 90.3092 198.158 90.3184C198.227 90.3276 198.084 91.6057 197.997 93.1917C197.905 94.7732 197.905 96.0605 197.831 96.0651Z" fill="#263238"/>
<path d="M199.677 96.8973C199.649 96.9065 199.488 96.5525 199.286 95.9595C199.083 95.3664 198.84 94.5297 198.647 93.5918C198.454 92.654 198.343 91.7897 198.297 91.1645C198.247 90.5392 198.256 90.1484 198.288 90.1484C198.362 90.1439 198.495 91.684 198.886 93.5459C199.267 95.4078 199.75 96.8743 199.686 96.9019L199.677 96.8973Z" fill="#263238"/>
<path d="M181.089 97.1639C181.025 97.1639 180.873 94.5757 180.754 91.3805C180.634 88.1808 180.588 85.5879 180.657 85.5879C180.722 85.5879 180.873 88.1762 180.993 91.3713C181.112 94.5665 181.158 97.1639 181.089 97.1639Z" fill="#263238"/>
<path d="M164.603 76.9606C161.155 76.8963 158.355 74.1608 158.212 70.7129C158.107 68.1935 158.019 65.8811 158.019 65.8811C158.019 65.8811 152.746 65.3202 152.429 60.0931C152.112 54.8613 152.433 42.8025 152.433 42.8025C158.364 39.9062 165.398 40.4441 170.818 44.2139L171.623 44.7748L171.241 70.5428C171.186 74.1516 168.211 77.0296 164.603 76.9606Z" fill="#9A654B"/>
<path d="M158.012 65.8082C158.012 65.8082 161.332 65.9185 164.738 63.5371C164.738 63.5371 163.309 67.3805 158.063 67.1644L158.008 65.8082H158.012Z" fill="#57301B"/>
<path d="M171.246 50.228C171.333 50.1867 174.791 48.9914 174.85 52.5727C174.91 56.154 171.301 55.4782 171.292 55.3724C171.283 55.2667 171.246 50.228 171.246 50.228Z" fill="#9A654B"/>
<path d="M172.363 53.997C172.363 53.997 172.428 54.0384 172.533 54.0844C172.639 54.1304 172.814 54.1579 173.002 54.0844C173.379 53.9373 173.687 53.335 173.692 52.6868C173.692 52.3604 173.623 52.0524 173.503 51.7949C173.388 51.5329 173.218 51.3536 173.025 51.3214C172.837 51.28 172.703 51.395 172.658 51.5007C172.612 51.6018 172.635 51.6708 172.616 51.68C172.607 51.6892 172.538 51.6202 172.566 51.4731C172.579 51.3996 172.621 51.3168 172.703 51.2478C172.786 51.1743 172.915 51.1375 173.048 51.1513C173.324 51.1651 173.577 51.4179 173.71 51.6938C173.857 51.9742 173.949 52.3236 173.945 52.6868C173.936 53.4086 173.577 54.089 173.062 54.2499C172.809 54.3188 172.598 54.2499 172.487 54.1625C172.377 54.0752 172.354 53.997 172.368 53.9878L172.363 53.997Z" fill="#57301B"/>
<path d="M154.938 50.7141C154.924 51.1095 155.246 51.4451 155.66 51.4681C156.073 51.4911 156.418 51.1877 156.432 50.7923C156.446 50.3969 156.124 50.0613 155.71 50.0383C155.297 50.0153 154.952 50.3188 154.938 50.7141Z" fill="#263238"/>
<path d="M154.028 49.9685C154.12 50.065 154.685 49.6467 155.494 49.6467C156.299 49.6375 156.887 50.0512 156.975 49.9547C157.016 49.9133 156.924 49.734 156.667 49.5455C156.414 49.357 155.982 49.1777 155.48 49.1777C154.979 49.1777 154.556 49.3662 154.313 49.5547C154.065 49.7432 153.982 49.9225 154.028 49.9639V49.9685Z" fill="#263238"/>
<path d="M162.668 50.8059C162.655 51.2013 162.976 51.5369 163.39 51.5599C163.804 51.5829 164.149 51.2795 164.163 50.8841C164.176 50.4887 163.855 50.1531 163.441 50.1301C163.027 50.1071 162.682 50.4106 162.668 50.8059Z" fill="#263238"/>
<path d="M161.942 50.1169C162.034 50.2135 162.604 49.7951 163.408 49.7951C164.213 49.7859 164.801 50.1997 164.889 50.1031C164.93 50.0617 164.838 49.8824 164.581 49.694C164.328 49.5055 163.896 49.3262 163.395 49.3262C162.893 49.3262 162.47 49.5147 162.227 49.7032C161.979 49.8916 161.896 50.0709 161.942 50.1123V50.1169Z" fill="#263238"/>
<path d="M159.022 56.0875C159.022 56.0415 158.525 55.9542 157.716 55.8531C157.509 55.8301 157.316 55.7887 157.279 55.6508C157.229 55.5037 157.316 55.2784 157.417 55.0393C157.61 54.5428 157.812 54.0187 158.024 53.4716C158.87 51.2419 159.481 49.4122 159.389 49.3754C159.297 49.3432 158.543 51.1224 157.698 53.3521C157.495 53.9038 157.302 54.4279 157.114 54.929C157.036 55.1635 156.902 55.4255 157.008 55.7335C157.063 55.8852 157.215 56.0002 157.348 56.0323C157.481 56.0737 157.596 56.0737 157.698 56.0829C158.516 56.1289 159.022 56.1289 159.022 56.0829V56.0875Z" fill="#263238"/>
<path d="M161.387 56.6448C161.258 56.6356 161.254 57.5091 160.504 58.1297C159.759 58.7504 158.826 58.6538 158.817 58.778C158.803 58.8331 159.024 58.9481 159.419 58.9573C159.805 58.9711 160.366 58.8469 160.826 58.4653C161.281 58.0838 161.479 57.5781 161.506 57.2195C161.539 56.8563 161.442 56.6356 161.382 56.6448H161.387Z" fill="#263238"/>
<path d="M161.734 46.9643C161.812 47.1849 162.617 47.0792 163.564 47.1941C164.511 47.2907 165.274 47.5665 165.398 47.3688C165.453 47.2769 165.32 47.07 165.012 46.8585C164.709 46.647 164.221 46.4448 163.651 46.3804C163.086 46.3206 162.566 46.408 162.222 46.5505C161.877 46.6884 161.702 46.8631 161.734 46.9643Z" fill="#263238"/>
<path d="M154.322 47.6397C154.465 47.8236 155.017 47.6305 155.688 47.6259C156.354 47.5937 156.92 47.75 157.049 47.557C157.104 47.465 157.016 47.2811 156.768 47.1064C156.525 46.9317 156.12 46.7938 155.66 46.8076C155.201 46.8214 154.805 46.9869 154.571 47.1754C154.336 47.3639 154.258 47.5524 154.322 47.6397Z" fill="#263238"/>
<path d="M149.766 39.346C149.71 38.6978 149.949 37.999 150.478 37.6174C151.007 37.2358 151.825 37.2588 152.257 37.7507C152.009 36.8772 152.726 35.8658 153.632 35.8106C154.487 35.7555 155.213 36.4037 156.041 36.629C156.845 36.8496 157.71 36.6565 158.487 36.3485C159.264 36.0359 159.985 35.6038 160.772 35.3187C162.408 34.7211 164.279 34.7946 165.865 35.521C167.451 36.2474 168.725 37.6174 169.341 39.2494C170.486 38.8908 171.787 39.4747 172.495 40.4447C173.203 41.4148 173.382 42.6882 173.244 43.8835C173.148 44.6881 172.918 45.4696 172.646 46.2328C172.646 46.3017 172.651 46.3661 172.651 46.435C172.596 49.3176 172.269 52.6966 171.042 52.7196C168.9 52.7518 169.41 48.7153 169.41 48.7153C166.78 47.6993 167.759 43.7594 167.102 43.1617C166.445 42.5641 165.07 41.1757 159.567 43.9893C157.429 45.0834 154.588 45.0466 153.039 44.6973C152.993 44.6881 152.947 44.6789 152.901 44.6697C152.892 44.6697 152.878 44.6697 152.869 44.6651C152.85 44.6651 152.841 44.6513 152.823 44.6467C152.326 44.518 151.853 44.3249 151.411 44.049C150.915 43.7318 150.46 43.3089 150.248 42.7572C150.037 42.2055 150.115 41.5205 150.547 41.1159C150.143 40.6056 149.821 40.0034 149.766 39.3552V39.346Z" fill="#263238"/>
</svg>
