<svg width="73" height="87" viewBox="0 0 73 87" fill="none" xmlns="http://www.w3.org/2000/svg">
<path d="M9.37953 86.8198C4.47339 85.6922 0.702793 82.0499 0.00838656 76.9188L0 13.6329C0.474679 8.51876 4.85246 3.96927 9.9582 3.564C14.6295 3.19435 19.7721 3.85057 24.4938 3.57248C25.8574 1.69368 28.2526 0.394791 30.5573 0.187919C33.3198 -0.0613446 38.9941 -0.0783014 41.7248 0.232007C43.9238 0.482966 46.1932 1.78016 47.4981 3.57248C55.6918 4.28805 66.8392 0.583011 71.0626 10.1737C72.215 12.7919 72.2519 17.6923 71.9969 20.5818C71.9349 21.2889 71.6061 21.9875 70.8178 22.0112C70.1938 22.0316 69.6252 21.4771 69.5178 20.8717C68.8754 17.2464 70.4236 14.05 68.3337 10.3925C67.3088 8.59845 64.3115 6.10582 62.1947 6.10582H48.8852C49.0362 6.34321 49.1771 7.5624 49.2324 7.61496C49.3012 7.6794 50.7923 7.77436 51.0993 7.84388C55.2053 8.7782 57.6777 12.3578 57.255 16.5969C60.618 16.251 63.4577 18.8522 63.9056 22.1418L63.9576 72.6932C63.6003 76.0303 61.1682 78.4347 57.8471 78.6992L13.6936 78.6467C11.4359 78.3737 9.40133 76.8527 8.53584 74.7229C7.93033 73.2324 7.79279 68.4014 8.04774 66.7753C8.1618 66.0529 8.66331 65.629 9.37785 65.6663C9.87936 65.6917 10.4463 66.0682 10.5453 66.6006C11.181 69.9835 8.84279 75.3656 14.1666 76.1388L57.6727 76.1557C59.8767 75.9353 61.3695 74.455 61.4483 72.1879L61.4399 22.7743C61.341 21.1905 60.0662 19.4423 58.4727 19.1744C58.1255 19.1167 56.4784 19.0557 56.2855 19.1693C56.2302 19.2015 55.8159 19.9883 55.5861 20.2375C53.845 22.1282 52.2583 23.0185 49.6467 23.2016C40.7117 22.6759 31.0353 23.8799 22.1875 23.1931C19.3428 22.9727 17.117 21.5483 15.6225 19.1303C13.0344 18.7555 10.822 20.0256 10.552 22.7726V61.0151C10.5436 61.6594 10.0219 62.2478 9.37785 62.2801C8.65325 62.3174 8.05613 61.7459 8.03432 61.0151C8.20373 47.7414 7.70892 34.393 8.28592 21.16C9.12625 18.3248 11.7496 16.2815 14.7352 16.5952C14.3125 12.3544 16.7849 8.7765 20.8909 7.84219C21.1979 7.77266 22.689 7.6794 22.7578 7.61327C22.8131 7.5607 22.954 6.34151 23.105 6.10412H9.79718C6.59687 6.10412 2.56796 10.5502 2.51597 13.8042L2.50926 76.2456C2.84304 80.5594 6.28992 83.8066 10.4698 84.2746H61.5221C64.9421 84.2458 69.4759 80.244 69.4759 76.7475V26.3284C69.4759 25.8282 70.2995 25.3822 70.8144 25.3975C71.6313 25.4229 72.0053 25.835 71.9936 26.6591L71.965 77.0697C71.3361 81.0393 68.8402 84.3679 65.182 85.9499L62.2769 86.8198H9.37953ZM30.4315 2.76873C28.2057 3.07395 26.2063 4.77302 25.4867 6.90787C25.106 8.03719 25.4163 9.96347 24.1835 10.1585C22.2546 10.4637 21.0855 9.89056 19.2706 11.2844C15.3021 14.3281 17.5095 20.4987 22.3468 20.6666C31.2114 20.1256 40.8744 21.3652 49.6451 20.6666C55.987 20.1612 56.4633 11.6574 50.7689 10.3823C49.9084 10.189 47.6675 10.3026 47.218 9.9109C46.7685 9.5192 46.8003 7.86932 46.5957 7.15544C45.9332 4.84424 43.6336 2.96543 41.2686 2.72634C38.9036 2.48725 32.7713 2.44825 30.4315 2.76873Z" fill="#305D7A"/>
<path d="M70.8156 25.3976C70.3007 25.3824 69.4771 25.8266 69.4771 26.3286V76.7511C69.4771 80.2475 64.9434 84.2493 61.5233 84.2782H10.4693C6.28945 83.8119 2.84257 80.5629 2.50879 76.2491L2.5155 13.8077C2.56582 10.5537 6.5964 6.10767 9.79671 6.10767H23.1062C22.9552 6.34506 22.8143 7.56425 22.759 7.61681C22.6902 7.68125 21.1991 7.77621 20.8921 7.84573C16.7861 8.78005 14.3137 12.3596 14.7364 16.5988C11.7525 16.2851 9.12746 18.3267 8.28713 21.1635C7.71013 34.3966 8.20494 47.7449 8.03553 61.0186C8.05733 61.7495 8.65446 62.3209 9.37906 62.2836V65.6682C8.66452 65.6308 8.16301 66.0548 8.04895 66.7771C7.794 68.4033 7.93154 73.2342 8.53705 74.7247C9.40254 76.8545 11.4371 78.3755 13.6948 78.6485L57.8483 78.7011C61.1694 78.4349 63.6015 76.0304 63.9588 72.695L63.9068 22.1436C63.4589 18.854 60.6192 16.2512 57.2562 16.5988C57.6789 12.3596 55.2066 8.78005 51.1005 7.84573C50.7936 7.77621 49.3024 7.68295 49.2337 7.61681C49.1783 7.56425 49.0374 6.34506 48.8865 6.10767H62.1959C64.3127 6.10767 67.31 8.6003 68.3349 10.3943C70.4248 14.0536 68.875 17.2499 69.5191 20.8736C69.6264 21.4789 70.195 22.0317 70.819 22.0131V25.3976H70.8156Z" fill="#F26628"/>
<path d="M9.37912 62.2851C10.0232 62.2529 10.5449 61.6645 10.5549 61.0202V22.7777C10.8233 20.029 13.0357 18.7589 15.6221 19.1354C17.1166 21.5534 19.3423 22.9761 22.1871 23.1982C31.0349 23.8849 40.7113 22.6827 49.6463 23.2067C52.2579 23.0235 53.8446 22.1333 55.5857 20.2426C55.8155 19.9934 56.2298 19.2066 56.2851 19.1744C56.4763 19.0607 58.1251 19.1218 58.4724 19.1794C60.0658 19.4474 61.3422 21.1939 61.4395 22.7794L61.4479 72.1929C61.3691 74.4584 59.8763 75.9404 57.6723 76.1608L14.1662 76.1439C8.84238 75.3706 11.1822 69.9886 10.5449 66.6057C10.4442 66.0733 9.87896 65.6968 9.37744 65.6714V62.2868L9.37912 62.2851ZM41.0401 54.8632C52.3921 50.7902 54.4871 35.0577 44.3494 28.2055C35.0101 21.8925 21.9271 28.019 21.0985 39.3596C20.5181 47.2954 30.0553 47.7159 31.0969 41.3436C31.3553 39.7649 31.0349 39.1121 32.1486 37.6691C35.1594 33.7673 41.2916 36.2752 40.8472 41.2164C40.4899 45.1928 36.7277 45.1707 34.3191 47.3073C30.6977 50.5189 28.7856 59.5907 34.4935 61.3491C38.5576 62.6005 41.6758 58.8192 41.0401 54.8632ZM35.4529 62.6667C28.8946 63.4738 29.8239 73.7089 36.9021 72.761C43.0008 71.9437 41.9039 61.8714 35.4529 62.6667Z" fill="#F7F5F6"/>
<path d="M30.4311 2.7686C32.7693 2.44812 38.8663 2.48373 41.2682 2.72621C43.6701 2.96869 45.9328 4.8441 46.5954 7.1553C46.8 7.86918 46.7631 9.51398 47.2177 9.91077C47.6722 10.3076 49.9081 10.1889 50.7685 10.3822C56.463 11.6573 55.9866 20.1611 49.6447 20.6664C40.8741 21.365 31.2111 20.1255 22.3465 20.6664C17.5091 20.4985 15.3001 14.328 19.2703 11.2843C21.0868 9.89212 22.2559 10.4653 24.1831 10.1583C25.416 9.96334 25.1057 8.03536 25.4864 6.90774C26.206 4.77288 28.2053 3.07382 30.4311 2.7686ZM25.4042 11.2232C21.5665 12.5662 21.8567 17.8669 25.8873 18.6113H46.1056C50.2167 17.8431 50.4196 12.4085 46.4494 11.1961L25.4042 11.2232Z" fill="#F8A36C"/>
<path d="M41.0402 54.8632C41.6759 58.8209 38.5578 62.6022 34.4937 61.3491C28.7858 59.5907 30.6979 50.5188 34.3192 47.3072C36.7279 45.1724 40.4901 45.1944 40.8473 41.2164C41.2918 36.2735 35.1596 33.7656 32.1488 37.669C31.0351 39.1121 31.3554 39.7649 31.0971 41.3436C30.0555 47.7159 20.5183 47.2954 21.0987 39.3596C21.9273 28.0173 35.0103 21.8908 44.3496 28.2055C54.4855 35.0577 52.3906 50.7902 41.0402 54.8632ZM36.1072 28.1699C29.6848 28.1411 23.7891 33.4146 23.5995 40.0277C23.4905 43.8159 27.5714 44.1397 28.4235 41.5199C28.8562 40.1888 28.5845 38.9561 29.2688 37.4673C32.9187 29.5196 45.4079 33.6113 43.1436 42.6933C41.8286 47.9703 36.6725 47.1156 34.4601 51.1751C33.6114 52.7334 33.286 54.853 33.4823 56.6182C33.7624 59.1295 36.8889 59.9519 38.1452 57.7763C38.9771 56.3367 37.9355 54.4426 39.1063 53.1641C39.8594 52.3417 42.32 51.6278 43.5126 50.6799C52.8116 43.2902 47.778 28.2225 36.1056 28.1682L36.1072 28.1699Z" fill="#305D7A"/>
<path d="M35.4533 62.6664C41.9042 61.8712 43.0012 71.9434 36.9025 72.7608C29.8242 73.7103 28.895 63.4753 35.4533 62.6664ZM35.7938 65.1964C32.5566 65.449 32.7629 70.8345 36.572 70.2257C39.4218 69.7696 38.9505 64.9488 35.7938 65.1964Z" fill="#305D7A"/>
<path d="M25.4042 11.2236L46.4494 11.1964C50.4196 12.4105 50.2166 17.8452 46.1056 18.6116H25.8872C21.8567 17.8672 21.5665 12.5665 25.4042 11.2236ZM25.904 13.7586C24.8641 14.0604 25.1123 16.1936 26.367 16.0952H45.6242C46.8134 16.1936 47.1287 14.2215 46.2028 13.8112L25.9023 13.7586H25.904Z" fill="#305D7A"/>
<path d="M36.1073 28.1699C47.7797 28.2225 52.8133 43.2919 43.5143 50.6817C42.3217 51.6296 39.8611 52.3434 39.108 53.1658C37.9372 54.4444 38.9772 56.3384 38.1469 57.7781C36.8906 59.9536 33.7641 59.1312 33.484 56.6199C33.2877 54.8547 33.6115 52.7351 34.4619 51.1768C36.6742 47.1174 41.8303 47.972 43.1453 42.6951C45.4097 33.6114 32.9187 29.5214 29.2706 37.469C28.5862 38.9578 28.858 40.1906 28.4252 41.5217C27.5731 44.1415 23.4922 43.8176 23.6013 40.0295C23.7908 33.4163 29.6866 28.1428 36.109 28.1716L36.1073 28.1699Z" fill="#305D7A"/>
<path d="M35.7943 65.1967C38.9526 64.9491 39.4223 69.7699 36.5725 70.2261C32.7617 70.8348 32.5554 65.4494 35.7943 65.1967Z" fill="#305D7A"/>
<path d="M25.9042 13.7585L46.2047 13.811C47.1306 14.2214 46.8152 16.1935 45.626 16.0951H26.3688C25.1142 16.1935 24.8659 14.0603 25.9059 13.7585H25.9042Z" fill="#F26628"/>
</svg>
