<svg width="87" height="87" viewBox="0 0 87 87" fill="none" xmlns="http://www.w3.org/2000/svg">
<path d="M63.3771 2.90872V5.7882H21.1766L17.3091 9.38709V2.90872H63.3771Z" fill="#F26628"/>
<path d="M5.07227 14.4269L14.4301 5.06909V12.357C14.4301 12.5031 12.5063 14.4269 12.3602 14.4269H5.07227Z" fill="#F26628"/>
<path d="M66.256 5.78883H71.0251C71.438 5.78883 72.1862 6.82017 72.024 7.3106L72.0041 48.8692C72.4278 48.9954 73.4556 49.4624 73.4556 49.969V53.6581C75.255 52.4951 75.8554 49.7761 78.2301 51.6729C79.4742 52.6664 82.8549 56.0147 83.8087 57.2515C85.5559 59.5198 82.826 60.223 81.7352 61.9341H85.4242C86.0174 61.9341 86.3763 62.9402 86.4231 63.4559C86.6756 66.2506 86.2266 69.433 86.4033 72.271C86.4502 72.655 85.7091 73.452 85.4242 73.452H81.7352C82.8982 75.2514 85.6172 75.8518 83.7204 78.2265C82.7269 79.4706 79.3786 82.8513 78.1417 83.8051C75.8735 85.5523 75.1703 82.8224 73.4592 81.7316V85.4206C73.4592 86.0138 72.4531 86.3726 71.9374 86.4195C69.1427 86.672 65.9603 86.223 63.1223 86.3997C62.7382 86.4466 61.9413 85.7055 61.9413 85.4206V81.7316C60.9857 82.2689 59.7019 84.4452 58.6129 84.4416C57.1271 84.4362 55.2556 81.2808 53.9303 80.657L7.31781 80.6624C6.82738 80.8247 5.79604 80.0764 5.79604 79.6635V74.8944H1.02155C0.608656 74.8944 -0.139611 73.8631 0.0226638 73.3726L0.112816 15.3162C5.08203 10.1414 10.1522 4.8855 15.4568 0.0677402L64.7342 0.0226638C65.2246 -0.139611 66.256 0.608656 66.256 1.02155V5.79063V5.78883ZM63.3765 2.90935H17.3085V9.38772L21.1779 5.78883H63.3765V2.90935ZM5.07121 14.4272H12.3591C12.5052 14.4272 14.4291 12.5034 14.4291 12.3573V5.06941L5.07121 14.4272ZM69.1355 8.6683H23.0657V22.074C23.0657 22.285 22.2868 23.0639 22.0758 23.0639H8.6701V77.7703H51.3195C50.0429 75.9221 52.8395 74.8421 53.6581 73.452H49.969C49.6841 73.452 48.9431 72.6568 48.99 72.271C49.1667 69.433 48.7177 66.2506 48.9701 63.4559C49.017 62.9402 49.3758 61.9341 49.969 61.9341H53.6581C52.5672 60.2212 49.8374 59.5198 51.5846 57.2515C52.5384 56.0147 55.9191 52.6664 57.1632 51.6729C59.536 49.7743 60.1364 52.4951 61.9377 53.6581V49.969C61.9377 49.7581 62.7166 48.9791 62.9276 48.9791H69.1355V8.6683ZM20.188 20.1862V10.8284L10.8302 20.1862H20.188ZM9.38952 17.3067H2.91115V72.0131H5.79063V21.1743L9.38952 17.3049V17.3067ZM70.5743 51.8568H64.8154V57.7059C64.8154 58.2288 63.8201 58.73 63.29 58.7084C62.0062 58.6543 59.0239 54.4694 58.4524 54.5704C57.4968 55.7496 55.5386 57.0604 54.7273 58.2414C54.6173 58.4001 54.4694 58.4848 54.6371 58.6958C55.3295 59.6893 58.3099 61.8692 58.6165 62.8266C58.8328 63.5027 58.4344 64.8154 57.7059 64.8154H51.8568V70.5743H57.7059C58.2288 70.5743 58.7301 71.5696 58.7084 72.0997C58.6543 73.3835 54.4694 76.3657 54.5704 76.9373C55.7496 77.8929 57.0604 79.851 58.2414 80.6624C58.4001 80.7724 58.4848 80.9202 58.6958 80.7525C59.6893 80.0602 61.8692 77.0797 62.8266 76.7732C63.5027 76.5568 64.8154 76.9553 64.8154 77.6837V83.5328H70.5743V77.6837C70.5743 77.1609 71.5696 76.6596 72.0997 76.6812C73.3835 76.7353 76.3657 80.9202 76.9373 80.8192C77.8929 79.64 79.851 78.3292 80.6624 77.1482C80.7724 76.9896 80.9202 76.9048 80.7525 76.6939C80.0602 75.7004 77.0797 73.5205 76.7732 72.5631C76.5568 71.8869 76.9553 70.5743 77.6837 70.5743H83.5328V64.8154H77.6837C77.1609 64.8154 76.6596 63.8201 76.6812 63.29C76.7353 62.0062 80.9202 59.0239 80.8193 58.4524C79.6401 57.4968 78.3292 55.5386 77.1482 54.7273C76.9896 54.6173 76.9048 54.4694 76.6939 54.6371C75.7004 55.3295 73.5205 58.3099 72.5631 58.6165C71.8869 58.8328 70.5743 58.4343 70.5743 57.7059V51.8568Z" fill="#305D7A"/>
<path d="M69.1358 8.66757V48.9766H62.9279C62.7169 48.9766 61.938 49.7537 61.938 49.9665V53.6555C60.1385 52.4926 59.5381 49.7736 57.1635 51.6704C55.9194 52.6639 52.5387 56.0121 51.5849 57.249C49.8377 59.5173 52.5675 60.2205 53.6584 61.9315H49.9693C49.3761 61.9315 49.0173 62.9377 48.9704 63.4533C48.718 66.2481 49.167 69.4304 48.9903 72.2685C48.9434 72.6525 49.6844 73.4494 49.9693 73.4494H53.6584C52.8398 74.8396 50.0414 75.9196 51.3198 77.7678H8.67041V23.0631H22.0761C22.2871 23.0631 23.066 22.286 23.066 22.0733V8.66757H69.134H69.1358ZM29.8527 14.4644C29.3027 14.6194 28.9241 15.0378 28.8357 15.6057C28.6068 17.068 28.6753 21.417 28.8159 22.982C28.8844 23.7411 29.0738 24.2207 29.8527 24.4641L62.0299 24.5074C62.6538 24.4912 63.1731 24.0747 63.3372 23.476C63.1514 21.0816 63.723 17.9064 63.3642 15.6075C63.2759 15.0396 62.8954 14.6213 62.3473 14.4662H29.8527V14.4644ZM15.4571 30.3006C14.8585 30.4647 14.4402 30.984 14.4258 31.6078C14.8152 37.1738 13.9209 43.4106 14.4203 48.8955C14.5177 49.9647 14.8801 50.3271 15.9493 50.4245C21.3801 50.9203 27.5502 50.0296 33.0621 50.4245C33.9708 50.4659 34.6326 49.8042 34.5911 48.8955C34.1962 43.3835 35.0869 37.2135 34.5911 31.7827C34.528 31.0849 34.3873 30.6342 33.6914 30.3421L15.4553 30.3006H15.4571ZM41.3706 30.3006C39.8181 30.8199 40.0453 33.007 41.6879 33.1458H62.0299C63.8528 32.9655 63.8492 30.4376 62.0299 30.2591L41.3706 30.3024V30.3006ZM41.3706 36.0595C39.8181 36.5788 40.0453 38.7659 41.6879 38.9048H62.0299C63.8528 38.7245 63.8492 36.1966 62.0299 36.0181L41.3706 36.0613V36.0595ZM41.3706 41.8167C39.8181 42.336 40.0453 44.5231 41.6879 44.6619H62.0299C63.8528 44.4816 63.8492 41.9537 62.0299 41.7752L41.3706 41.8185V41.8167ZM41.3706 47.5756C39.9083 48.0048 40.0039 50.1684 41.522 50.4064C45.1858 50.0278 50.0396 50.9546 53.5574 50.4064C55.1459 50.1594 55.1513 47.7974 53.5574 47.5486L41.3688 47.5756H41.3706ZM15.4571 56.2141C13.9047 56.7334 14.1319 58.9205 15.7744 59.0593H44.7549C46.5778 58.879 46.5742 56.3511 44.7549 56.1726L15.4571 56.2159V56.2141ZM15.4571 61.973C13.9047 62.4923 14.1319 64.6794 15.7744 64.8182H44.7549C46.5778 64.6379 46.5742 62.1101 44.7549 61.9315L15.4571 61.9748V61.973ZM15.4571 67.7302C13.9047 68.2495 14.1319 70.4365 15.7744 70.5754H44.7549C46.5778 70.3951 46.5742 67.8672 44.7549 67.6887L15.4571 67.732V67.7302Z" fill="#F8A36C"/>
<path d="M70.5749 51.8556V57.7047C70.5749 58.4331 71.8875 58.8316 72.5637 58.6152C73.5211 58.3069 75.701 55.3265 76.6945 54.6359C76.9036 54.4682 76.9902 54.6161 77.1488 54.7261C78.328 55.5374 79.6407 57.4937 80.8198 58.4512C80.919 59.0227 76.7341 62.0068 76.6818 63.2887C76.6602 63.8188 77.1597 64.8141 77.6843 64.8141H83.5334V70.5731H77.6843C76.9559 70.5731 76.5574 71.8857 76.7738 72.5618C77.0821 73.5193 80.0626 75.6992 80.7531 76.6926C80.9208 76.9018 80.773 76.9883 80.663 77.147C79.8516 78.3262 77.8953 79.6388 76.9379 80.818C76.3663 80.9172 73.3823 76.7323 72.1003 76.68C71.5702 76.6584 70.5749 77.1578 70.5749 77.6825V83.5316H64.816V77.6825C64.816 76.9541 63.5033 76.5556 62.8272 76.772C61.8698 77.0803 59.6899 80.0607 58.6964 80.7513C58.4872 80.919 58.4007 80.7711 58.242 80.6612C57.0628 79.8498 55.7502 77.8935 54.571 76.9361C54.4718 76.3645 58.6567 73.3804 58.709 72.0985C58.7307 71.5684 58.2312 70.5731 57.7065 70.5731H51.8574V64.8141H57.7065C58.435 64.8141 58.8334 63.5015 58.6171 62.8254C58.3087 61.8679 55.3283 59.6881 54.6377 58.6946C54.47 58.4854 54.6179 58.3989 54.7279 58.2402C55.5393 57.061 57.4956 55.7484 58.453 54.5692C59.0246 54.47 62.0086 58.6549 63.2906 58.7072C63.8207 58.7288 64.816 58.2294 64.816 57.7047V51.8556H70.5749ZM66.5721 60.5409C57.6074 61.7742 59.0264 75.9768 68.6655 74.8716C77.8178 73.8222 76.3771 59.1922 66.5721 60.5409Z" fill="#F26628"/>
<path d="M9.39048 17.3057L5.79158 21.1733V72.0103H2.91211V17.3057H9.39048Z" fill="#F26628"/>
<path d="M20.1884 20.1855H10.8306L20.1884 10.8276V20.1855Z" fill="#F26628"/>
<path d="M29.8531 14.4648H62.3477C62.8976 14.6199 63.2762 15.0382 63.3646 15.6062C63.7234 17.9051 63.1518 21.0802 63.3375 23.4747C63.1735 24.0733 62.6542 24.4916 62.0303 24.506L29.8531 24.4628C29.0741 24.2193 28.8848 23.7379 28.8163 22.9806C28.6757 21.4174 28.6071 17.0666 28.8361 15.6044C28.9245 15.0364 29.3049 14.6181 29.8531 14.463V14.4648ZM60.4977 17.3064H31.7048V21.6248H60.4977V17.3064Z" fill="#305D7A"/>
<path d="M15.4571 30.3003L33.6931 30.3417C34.3873 30.6338 34.528 31.0846 34.5929 31.7824C35.0887 37.2132 34.198 43.3832 34.5929 48.8951C34.6343 49.8039 33.9708 50.4656 33.0639 50.4241C27.5537 50.0293 21.3819 50.92 15.9511 50.4241C14.8819 50.3268 14.5195 49.9644 14.4221 48.8951C13.9227 43.4103 14.817 37.1735 14.4275 31.6075C14.4438 30.9836 14.8603 30.4643 15.4589 30.3003H15.4571ZM31.7044 33.1401H17.3088V47.5356H31.7044V33.1401Z" fill="#305D7A"/>
<path d="M15.4568 56.2139L44.7546 56.1707C46.5739 56.3492 46.5775 58.877 44.7546 59.0573H15.7742C14.1316 58.9185 13.9044 56.7314 15.4568 56.2121V56.2139Z" fill="#305D7A"/>
<path d="M15.4568 61.9734L44.7546 61.9301C46.5739 62.1086 46.5775 64.6365 44.7546 64.8168H15.7742C14.1316 64.6779 13.9044 62.4908 15.4568 61.9716V61.9734Z" fill="#305D7A"/>
<path d="M15.4568 67.7302L44.7546 67.6869C46.5739 67.8654 46.5775 70.3933 44.7546 70.5736H15.7742C14.1316 70.4347 13.9044 68.2476 15.4568 67.7284V67.7302Z" fill="#305D7A"/>
<path d="M41.3704 30.3007L62.0298 30.2574C63.8491 30.4359 63.8527 32.9638 62.0298 33.1441H41.6877C40.0452 33.0053 39.818 30.8182 41.3704 30.2989V30.3007Z" fill="#305D7A"/>
<path d="M41.3704 36.0593L62.0298 36.016C63.8491 36.1945 63.8527 38.7224 62.0298 38.9027H41.6877C40.0452 38.7638 39.818 36.5767 41.3704 36.0575V36.0593Z" fill="#305D7A"/>
<path d="M41.3704 41.8169L62.0298 41.7737C63.8491 41.9522 63.8527 44.48 62.0298 44.6603H41.6877C40.0452 44.5215 39.818 42.3344 41.3704 41.8151V41.8169Z" fill="#305D7A"/>
<path d="M41.3702 47.5756L53.5588 47.5486C55.1527 47.7992 55.1473 50.1594 53.5588 50.4064C50.0411 50.9546 45.1872 50.0278 41.5234 50.4064C40.0053 50.1684 39.9097 48.0048 41.372 47.5756H41.3702Z" fill="#305D7A"/>
<path d="M66.5713 60.5412C76.3763 59.1907 77.817 73.8225 68.6647 74.8719C59.0255 75.9772 57.6065 61.7745 66.5713 60.5412ZM66.9283 63.4171C61.6075 64.2609 62.6244 72.7118 68.3113 71.9942C73.9981 71.2766 72.7955 62.4867 66.9283 63.4171Z" fill="#305D7A"/>
<path d="M60.4975 17.3057H31.7046V21.624H60.4975V17.3057Z" fill="#F26628"/>
<path d="M31.7047 33.14H17.3091V47.5356H31.7047V33.14Z" fill="#305D7A"/>
</svg>
