<svg width="84" height="84" viewBox="0 0 84 84" fill="none" xmlns="http://www.w3.org/2000/svg">
<path d="M71.8115 67.1899H6.74582C5.87956 67.1899 5.04851 66.847 4.43435 66.236C3.82018 65.6251 3.47285 64.7959 3.46826 63.9297V62.3689H75.0717V63.9643C75.0581 64.8216 74.7092 65.6393 74.0997 66.2423C73.4903 66.8453 72.6688 67.1854 71.8115 67.1899Z" fill="#D8D6D5"/>
<path d="M73.3378 10.5346H5.20269C3.28719 10.5346 1.73438 12.0874 1.73438 14.0029V57.1141C1.73438 59.0296 3.28719 60.5824 5.20269 60.5824H73.3378C75.2533 60.5824 76.8062 59.0296 76.8062 57.1141V14.0029C76.8062 12.0874 75.2533 10.5346 73.3378 10.5346Z" fill="#F26628"/>
<path d="M51.0372 41.0558C49.6499 42.4432 45.6786 43.2929 40.6322 43.2929H39.8865C39.7825 39.0789 40.4415 33.8417 42.1236 32.1596C43.323 31.0177 44.9157 30.3808 46.5717 30.3808C48.2278 30.3808 49.8204 31.0177 51.0198 32.1596C52.1985 33.3399 52.8605 34.9397 52.8605 36.6077C52.8605 38.2757 52.1985 39.8755 51.0198 41.0558H51.0372Z" fill="#E5E6E5"/>
<path d="M53.4812 29.6974C52.8029 29.0079 52.0255 28.4234 51.1748 27.9633L53.9841 25.1539C55.329 25.5907 56.4771 26.487 57.227 27.6858L57.4004 27.9633C57.6181 28.3255 57.7983 28.709 57.938 29.1078L55.146 32.0038C54.7069 31.1578 54.146 30.3807 53.4812 29.6974Z" fill="#BDBBBA"/>
<path d="M78.9561 8.19331L60.5913 26.5581C60.4526 26.2806 60.2618 26.0378 60.1058 25.7777C59.9497 25.5176 59.9497 25.5002 59.8456 25.3788C59.2708 24.5973 58.5809 23.9074 57.7993 23.3325L57.4178 23.0897C57.1577 22.9163 56.8976 22.7429 56.6201 22.5868L74.9849 4.22208C75.5202 3.71212 76.2312 3.42767 76.9705 3.42767C77.7098 3.42767 78.4208 3.71212 78.9561 4.22208C79.4824 4.74886 79.778 5.46305 79.778 6.20769C79.778 6.95234 79.4824 7.66653 78.9561 8.19331Z" fill="#999797"/>
<path d="M78.7482 6.59779V6.16425H79.1818V6.59779H78.7482ZM78.7482 7.03133H79.1818V6.59779H78.7482V7.03133ZM78.7482 6.16425H78.3147V6.59779H78.7482V6.16425ZM75.9215 4.79426V3.92719H75.2626L75.0718 4.08326V4.79426H75.9215ZM72.6787 10.8638V10.4303H72.2451V10.8638H72.6787ZM78.7482 6.96196V6.52842H78.3147V6.96196H78.7482ZM75.0718 8.26258V9.12966H75.9389V8.26258H75.0718ZM72.696 6.96196V6.52842L72.3318 6.8926L72.696 6.96196ZM72.2625 11.3667H72.696V10.9332H72.2625V11.3667ZM72.2625 10.4997H71.8289V10.9332H72.2625V10.4997ZM71.8289 14.9044V15.338L72.1931 14.9738L71.8289 14.9044ZM66.1929 15.338V14.9044H65.7594V15.338H66.1929ZM72.2625 11.4361V11.0026H71.8289V11.4361H72.2625ZM68.586 12.7367V13.6038H69.3664V12.7367H68.586ZM66.2102 19.6734V19.2398H65.7767V19.6734H66.2102ZM68.6034 17.1415V18.0086H69.3144L69.4705 17.8525V17.1415H68.6034ZM65.794 15.8409H66.2276V15.4073H65.794V15.8409ZM65.794 20.1763H66.2276V19.7427H65.794V20.1763ZM65.794 14.9738H65.3605V15.4073H65.794V14.9738ZM65.794 19.3092H65.3605V19.7427H65.794V19.3092ZM65.794 15.8409V15.4073H65.3605V15.8409H65.794ZM62.9847 18.0086V17.1415H62.2564L62.1176 17.2802V18.0086H62.9847ZM59.7418 24.0781V23.6446H59.3083V24.0781H59.7418ZM65.8114 20.1763V19.7427H65.3779V20.1763H65.8114ZM62.135 21.4769V22.344H63.0021V21.4769H62.135ZM59.7592 20.1763V19.7427L59.395 20.1069L59.7592 20.1763ZM59.3256 24.5117H59.7592V24.0781H59.3256V24.5117ZM59.3256 23.6446H58.8921V24.0781H59.3256V23.6446ZM59.3256 24.1475H58.8921V24.2169H58.9615V24.3209H59.2216L59.3256 24.1475Z" fill="#305D7A"/>
<path d="M83.2397 6.21655C83.2426 5.39169 83.0817 4.57446 82.7661 3.81234C82.4506 3.05022 81.9867 2.35841 81.4015 1.7771C80.2049 0.636365 78.6152 0 76.962 0C75.3088 0 73.7191 0.636365 72.5226 1.7771L65.4992 8.80045H6.74588C4.95676 8.80045 3.24092 9.51117 1.97582 10.7763C0.710725 12.0414 0 13.7572 0 15.5463V63.9294C0 65.7185 0.710725 67.4343 1.97582 68.6994C3.24092 69.9645 4.95676 70.6753 6.74588 70.6753H30.0356V79.7102H21.7637C21.3038 79.7102 20.8627 79.8929 20.5375 80.2182C20.2122 80.5434 20.0295 80.9845 20.0295 81.4444C20.0295 81.9043 20.2122 82.3454 20.5375 82.6706C20.8627 82.9958 21.3038 83.1786 21.7637 83.1786H56.7937C57.2537 83.1786 57.6947 82.9958 58.02 82.6706C58.3452 82.3454 58.5279 81.9043 58.5279 81.4444C58.5279 80.9845 58.3452 80.5434 58.02 80.2182C57.6947 79.8929 57.2537 79.7102 56.7937 79.7102H48.5565V70.6579H71.8116C73.6007 70.6579 75.3165 69.9472 76.5816 68.6821C77.8467 67.417 78.5574 65.7012 78.5574 63.912V13.8122C78.5635 13.7314 78.5635 13.6502 78.5574 13.5694L81.4535 10.6733C82.0306 10.0851 82.4856 9.38845 82.7922 8.62352C83.0987 7.8586 83.2508 7.04055 83.2397 6.21655ZM45.0882 79.7102H33.504V70.6579H45.0882V79.7102ZM71.8462 67.1896H6.74588C5.87961 67.1896 5.04857 66.8467 4.4344 66.2358C3.82024 65.6248 3.4729 64.7956 3.46832 63.9294V62.3686H75.0718V63.9641C75.0582 64.8213 74.7092 65.6391 74.0998 66.242C73.4903 66.845 72.6689 67.1852 71.8116 67.1896H71.8462ZM75.0718 58.9003H3.46832V15.5463C3.46832 14.6771 3.81363 13.8434 4.42829 13.2287C5.04296 12.6141 5.87662 12.2688 6.74588 12.2688H62.0309L52.2329 22.0668L47.3772 26.9224C47.0998 26.9224 46.8396 26.9224 46.5622 26.9224C45.2738 26.9145 43.9968 27.1634 42.8058 27.6547C41.6148 28.146 40.5336 28.8698 39.6255 29.7838C36.4174 32.8879 36.4174 41.0905 36.4174 43.501V45.027C36.4174 45.487 36.6001 45.9281 36.9253 46.2533C37.2505 46.5785 37.6916 46.7612 38.1515 46.7612H40.6314C44.2037 46.7612 50.6375 46.345 53.4815 43.501C54.3947 42.5923 55.1179 41.5111 55.6092 40.3202C56.1004 39.1293 56.3498 37.8526 56.3429 36.5643C56.3429 36.2869 56.3429 36.0268 56.3429 35.7493L61.1985 30.911L75.1585 16.951L75.0718 58.9003ZM57.418 28.0149C57.6357 28.3772 57.8158 28.7607 57.9556 29.1595L55.1463 32.0035C54.6859 31.1529 54.1014 30.3756 53.4121 29.6971C52.7338 29.0076 51.9564 28.4231 51.1057 27.9629L53.915 25.1536C55.2855 25.5759 56.4602 26.4738 57.2273 27.6854L57.418 28.0149ZM51.0363 32.1596C52.215 33.3399 52.877 34.9397 52.877 36.6077C52.877 38.2757 52.215 39.8755 51.0363 41.0558C49.649 42.4431 45.6778 43.2929 40.6314 43.2929H39.8857C39.7816 39.0789 40.4406 33.8417 42.1227 32.1596C43.3208 31.0103 44.9159 30.3671 46.576 30.3639C48.2363 30.3606 49.8338 30.9976 51.0363 32.1422V32.1596ZM78.9563 8.21083L60.5915 26.5582C60.4528 26.2808 60.2621 26.038 60.106 25.7779C59.9499 25.5177 59.9499 25.5004 59.8458 25.379C59.271 24.5975 58.5811 23.9076 57.7995 23.3327L57.418 23.0899C57.1579 22.9165 56.8978 22.7431 56.6203 22.587L67.4415 11.7659L74.9677 4.23961C75.503 3.72965 76.214 3.4452 76.9533 3.4452C77.6927 3.4452 78.4036 3.72965 78.9389 4.23961C79.4653 4.76639 79.7609 5.48057 79.7609 6.22522C79.7609 6.96987 79.4653 7.68405 78.9389 8.21083H78.9563Z" fill="#305D7A"/>
</svg>
