<svg width="58" height="76" viewBox="0 0 58 76" fill="none" xmlns="http://www.w3.org/2000/svg">
<path d="M48.2174 75.9886H10.5585C5.21105 75.9886 0.882568 71.6666 0.882568 66.327V12.9468C0.882568 10.3665 1.88859 7.9392 3.71713 6.11552C5.54567 4.29184 7.97438 3.28516 10.5585 3.28516H16.3766C17.0977 3.28516 17.6827 3.86934 17.6827 4.58932C17.6827 5.30931 17.0977 5.89349 16.3766 5.89349H10.5585C6.66396 5.89349 3.49477 9.05798 3.49477 12.9468V66.3292C3.49477 70.218 6.66396 73.3803 10.5585 73.3803H48.2174C52.112 73.3803 55.279 70.2158 55.279 66.3292V12.9468C55.279 9.05798 52.1098 5.89564 48.2174 5.89564H42.3993C41.6783 5.89564 41.0932 5.31146 41.0932 4.59148C41.0932 3.87149 41.6783 3.28731 42.3993 3.28731H48.2174C53.5735 3.28731 57.8933 7.62016 57.8933 12.9489V66.3313C57.8933 71.6946 53.5433 75.9886 48.2174 75.9886Z" fill="#FF611A"/>
<path d="M48.2173 70.597H10.5584C8.12322 70.597 6.14355 68.6181 6.14355 66.1887V13.0865C6.14355 10.655 8.12538 8.67822 10.5584 8.67822H16.3765C17.0975 8.67822 17.6826 9.2624 17.6826 9.98239C17.6826 10.7024 17.0975 11.2866 16.3765 11.2866H10.5584C9.56317 11.2866 8.75576 12.0949 8.75576 13.0865V66.1887C8.75576 67.1825 9.56532 67.9887 10.5584 67.9887H48.2173C49.2103 67.9887 50.0199 67.1803 50.0199 66.1887V13.0865C50.0199 12.0928 49.2103 11.2866 48.2173 11.2866H42.3992C41.6781 11.2866 41.0931 10.7024 41.0931 9.98239C41.0931 9.2624 41.6781 8.67822 42.3992 8.67822H48.2173C50.6525 8.67822 52.6321 10.6571 52.6321 13.0865V66.1887C52.6321 68.6181 50.6525 70.597 48.2173 70.597Z" fill="#FF611A"/>
<path d="M41.1191 14.57H17.6568C16.2298 14.57 15.0684 13.4103 15.0684 11.9854V2.58462C15.0684 1.15974 16.2298 0 17.6568 0H41.117C42.544 0 43.7054 1.15974 43.7054 2.58462V11.9854C43.7054 13.4103 42.544 14.57 41.1191 14.57ZM17.6827 11.9595H41.0932V2.61049H17.6827V11.9595Z" fill="#FF611A"/>
<path d="M28.7057 41.6515C23.4187 38.4223 19.8242 33.7252 19.0772 27.5816C18.5483 23.2207 19.7012 19.8946 19.7486 19.7544C20.0185 18.9935 20.9101 18.6529 21.6225 19.0539C25.0465 20.9832 27.9371 19.6488 28.7402 19.194C29.1396 18.9676 29.6297 18.9676 30.0291 19.194C30.8343 19.6488 33.7228 20.9853 37.1468 19.0539C37.8527 18.6572 38.7508 18.9892 39.0207 19.7544C39.0703 19.8946 40.221 23.2207 39.6921 27.5816C39.3812 30.1533 38.55 32.559 37.2223 34.7319C35.5773 37.4264 33.168 39.7545 30.0658 41.6536C29.6642 41.9015 29.1331 41.9123 28.7057 41.6515ZM21.8622 22.0373C21.6247 23.2617 21.4045 25.178 21.6851 27.3725C22.2939 32.1257 24.8824 36.0317 29.3879 38.9936C33.8912 36.0317 36.4819 32.1257 37.0906 27.3725C37.3713 25.178 37.1511 23.2617 36.9136 22.0373C34.3986 22.9901 31.7324 22.8564 29.3879 21.7872C27.052 22.8543 24.3858 22.9922 21.8622 22.0373Z" fill="#FF611A"/>
<path d="M27.581 33.5897C27.2356 33.5897 26.9031 33.4517 26.657 33.2081L24.5154 31.0697C24.0059 30.561 24.0059 29.7354 24.5154 29.2245C25.0249 28.7157 25.8517 28.7157 26.3634 29.2245L27.581 30.4403L32.4125 25.6159C32.922 25.1072 33.7488 25.1072 34.2604 25.6159C34.7699 26.1247 34.7699 26.9503 34.2604 27.4612L28.5071 33.206C28.2589 33.4539 27.9286 33.5897 27.581 33.5897Z" fill="#FF611A"/>
<path d="M45.6138 48.4741H14.1767C13.4557 48.4741 12.8706 47.8899 12.8706 47.1699C12.8706 46.4499 13.4557 45.8657 14.1767 45.8657H45.6138C46.3349 45.8657 46.9199 46.4499 46.9199 47.1699C46.9221 47.8899 46.337 48.4741 45.6138 48.4741Z" fill="#FF611A"/>
<path d="M45.6138 56.0746H14.1767C13.4557 56.0746 12.8706 55.4905 12.8706 54.7705C12.8706 54.0505 13.4557 53.4663 14.1767 53.4663H45.6138C46.3349 53.4663 46.9199 54.0505 46.9199 54.7705C46.9199 55.4905 46.337 56.0746 45.6138 56.0746Z" fill="#FF611A"/>
<path d="M45.6138 63.6738H14.1767C13.4557 63.6738 12.8706 63.0896 12.8706 62.3696C12.8706 61.6496 13.4557 61.0654 14.1767 61.0654H45.6138C46.3349 61.0654 46.9199 61.6496 46.9199 62.3696C46.9221 63.0896 46.337 63.6738 45.6138 63.6738Z" fill="#FF611A"/>
</svg>
