<svg width="503" height="517" viewBox="0 0 503 517" fill="none" xmlns="http://www.w3.org/2000/svg">
<path d="M12.5002 350C-23.4998 411.2 27.5002 452.5 57.5002 465.5C83.0001 480 151.7 510.5 222.5 516.5C293.3 522.5 360.333 464.333 385 434.5L463.5 287.5C479.167 256.667 505 172.7 483 83.5C461 -5.70002 362.833 -6.00002 316.5 4.99998C291.667 16.8333 217.3 40.5 118.5 40.5C19.7 40.5 21 152.833 34 209C41.8334 230.5 48.5002 288.8 12.5002 350Z" fill="#FFFBE7"/>
<g style="mix-blend-mode:multiply">
<path d="M169.981 231.343L0 332.928L105.613 394.009L239.861 340.192L170.544 235.999" fill="#D6EAF2"/>
</g>
<path d="M256.998 304.728V296.504L251.089 299.471L240.717 293.486C237.341 291.542 231.854 291.542 228.478 293.486L124.246 353.672L118.312 350.782V358.903C118.184 360.271 119.016 361.665 120.819 362.714L134.58 370.656C137.956 372.6 143.43 372.6 146.806 370.656L254.466 308.501C256.256 307.465 257.087 306.083 256.972 304.728H256.998Z" fill="#3FABAE"/>
<path d="M124.272 353.672L118.338 350.782V358.903C118.21 360.271 119.041 361.665 120.845 362.714L134.606 370.656C136.256 371.603 138.391 372.076 140.553 372.101V344.259L124.272 353.659V353.672Z" fill="#288588"/>
<path d="M134.606 361.972C137.982 363.929 143.456 363.929 146.832 361.972L254.491 299.817C257.868 297.86 257.868 294.701 254.491 292.757L240.73 284.815C237.354 282.858 231.867 282.858 228.491 284.815L120.832 346.97C117.455 348.927 117.455 352.086 120.832 354.03L134.593 361.972H134.606Z" fill="#3FABAE"/>
<path d="M167.218 340.513L159.711 336.267V297.873L208.118 269.929L167.218 340.513Z" fill="#288588"/>
<path d="M215.626 312.568L167.219 340.513V302.119L215.626 274.175V312.568Z" fill="#3FABAE"/>
<path d="M295.366 71.3895L288.319 67.3737C288.178 67.2586 288.012 67.1691 287.846 67.1051C287.168 66.8494 286.285 66.9517 285.339 67.5016L82.7329 184.471C80.5588 185.725 78.8066 188.781 78.8066 191.288V346.881C78.8066 348.135 79.2415 349.017 79.9577 349.426C80.06 349.49 80.1751 349.529 80.2902 349.58L87.2987 353.608L88.7566 346.024L86.6592 346.894L285.352 232.188C287.526 230.934 289.291 227.878 289.291 225.371V75.6355L295.391 71.3895H295.366Z" fill="#3FABAE"/>
<path d="M288.319 67.3739C288.178 67.2588 288.012 67.1692 287.845 67.1053C287.168 66.8495 286.285 66.9518 285.339 67.5017L82.7326 184.472C81.7862 185.021 80.9293 185.904 80.2515 186.94L215.689 272.372L285.326 232.162C287.5 230.909 289.265 227.852 289.265 225.346V75.6357L295.365 71.3897L288.319 67.3739Z" fill="#3FABAE"/>
<path d="M296.542 229.515C296.542 232.022 294.777 235.078 292.616 236.332L90.0098 353.301C87.8356 354.555 86.0835 353.544 86.0835 351.038V195.445C86.0835 192.938 87.8484 189.881 90.0098 188.628L292.616 71.6582C294.79 70.4049 296.542 71.4152 296.542 73.9219V229.515Z" fill="#3FABAE"/>
<path d="M292.718 218.12L89.8945 335.23V195.176L292.718 78.0655V218.12Z" fill="#EAFCF9"/>
<path d="M290.736 79.2165V216.572L89.8945 332.532V335.23L292.718 218.12V78.0655L290.736 79.2165Z" fill="white"/>
<path d="M273.739 112.482L192.886 159.162V154.533L273.739 107.852V112.482Z" fill="#D4EAE7"/>
<path d="M273.739 120.757L147.484 193.655V189.025L273.739 116.127V120.757Z" fill="#D4EAE7"/>
<path d="M273.739 129.031L147.484 201.929V197.299L273.739 124.401V129.031Z" fill="#D4EAE7"/>
<path d="M273.739 137.305L147.484 210.204V205.574L273.739 132.676V137.305Z" fill="#D4EAE7"/>
<path d="M273.739 145.58L147.484 218.478V213.848L273.739 140.95V145.58Z" fill="#D4EAE7"/>
<path d="M273.739 153.854L147.484 226.753V222.123L273.739 149.225V153.854Z" fill="#D4EAE7"/>
<path d="M273.739 170.404L192.886 217.084V212.455L273.739 165.774V170.404Z" fill="#D4EAE7"/>
<path d="M273.739 178.678L147.484 251.576V246.947L273.739 174.048V178.678Z" fill="#D4EAE7"/>
<path d="M273.739 186.953L147.484 259.851V255.221L273.739 182.323V186.953Z" fill="#D4EAE7"/>
<path d="M273.739 195.228L147.484 268.126V263.496L273.739 190.598V195.228Z" fill="#D4EAE7"/>
<path d="M273.739 203.502L147.484 276.401V271.771L273.739 198.873V203.502Z" fill="#D4EAE7"/>
<path d="M208.028 249.722L147.484 284.675V280.045L208.028 245.079V249.722Z" fill="#D4EAE7"/>
<path d="M469.414 349.874L360.77 287.156L339.77 139.159L360.77 127.15L469.414 189.881V349.874Z" fill="#0A3A59"/>
<path d="M464.004 347.086L445.779 356.396L340.243 144.569L360.297 133.123L464.004 192.989V347.086Z" fill="white"/>
<path d="M448.414 361.883L339.77 299.152V139.16L448.414 201.878V361.883Z" fill="#305D7A"/>
<path d="M444.935 364.032L336.291 301.314L315.292 153.317L336.291 141.308L444.935 204.039V364.032Z" fill="#3FABAE"/>
<path d="M439.526 361.257L421.301 370.567L315.765 158.74L335.818 147.281L439.526 207.16V361.257Z" fill="white"/>
<path d="M423.936 376.041L315.292 313.323V153.318L423.936 216.036V376.041Z" fill="#3FABAE"/>
<g style="mix-blend-mode:multiply">
<path d="M315.292 313.323V153.318L423.936 216.036L315.292 313.323Z" fill="#C4DDE8"/>
</g>
<path d="M343.019 160.159L333.772 154.928V135.271L338.402 141.832L343.019 138.788V160.159Z" fill="#F26628"/>
<g style="mix-blend-mode:multiply">
<path d="M246.256 451.534L159.839 401.644L122.124 381.258L257.024 306.326L410.507 372.971L274.622 451.547L246.256 451.534Z" fill="#D6EAF2"/>
</g>
<path d="M273.471 450.141L172.846 392.04V369.492L307.835 314.115L408.448 372.203L273.471 450.141Z" fill="#0A3A59"/>
<path d="M307.836 306.864L177.847 367.178V387.692L273.471 442.89L408.448 364.953L307.836 306.864Z" fill="#E5E5E5"/>
<path d="M307.836 301.62L286.286 311.621V376.207H177.847V382.448L273.471 437.646L408.448 359.709L307.836 301.62Z" fill="#F4F4F4"/>
<path d="M307.836 296.811L286.286 306.812V376.206H177.847V377.639L273.471 432.85L408.448 354.913L307.836 296.811Z" fill="white"/>
<path d="M273.471 427.593L172.846 369.492L307.835 291.555L408.448 349.656L273.471 427.593Z" fill="#305D7A"/>
<path d="M273.791 419.536L178.179 364.338V342.904L306.442 290.289L402.041 345.487L273.791 419.536Z" fill="#288588"/>
<path d="M306.442 283.409L182.937 340.704V360.195L273.791 412.644L402.041 338.594L306.442 283.409Z" fill="#E5E5E5"/>
<path d="M306.442 278.421L285.967 287.924V349.286H182.937V355.208L273.791 407.669L402.041 333.619L306.442 278.421Z" fill="#F4F4F4"/>
<path d="M306.442 273.855L285.967 283.357V349.286H182.937V350.654L273.791 403.103L402.041 329.053L306.442 273.855Z" fill="white"/>
<path d="M273.791 398.102L178.179 342.904L306.442 268.868L402.041 324.053L273.791 398.102Z" fill="#3FABAE"/>
<path d="M274.507 392.59L183.116 339.835V319.359L305.713 269.059L397.091 321.815L274.507 392.59Z" fill="#F26628"/>
<path d="M305.713 262.473L187.668 317.249V335.87L274.507 386.016L397.091 315.228L305.713 262.473Z" fill="#E5E5E5"/>
<path d="M305.713 257.715L286.145 266.795V325.446H187.668V331.112L274.507 381.246L397.091 310.47L305.713 257.715Z" fill="#F4F4F4"/>
<path d="M305.713 253.355L286.145 262.435V325.447H187.668V326.752L274.507 376.885L397.091 306.11L305.713 253.355Z" fill="white"/>
<path d="M274.507 372.114L183.116 319.359L305.713 248.571L397.091 301.339L274.507 372.114Z" fill="#F8A36C"/>
<g style="mix-blend-mode:multiply">
<path d="M183.116 319.359L255.682 361.243L316.225 326.291L243.66 284.406L183.116 319.359Z" fill="#F8A36C"/>
</g>
<g style="mix-blend-mode:multiply">
<path d="M237.854 287.757L305.713 248.571L355.501 277.321L237.854 287.757Z" fill="#F8A36C"/>
</g>
<g style="mix-blend-mode:multiply">
<path d="M421.275 151.999C418.117 147.382 421.915 115.396 417.375 112.544C417.413 111.803 417.4 111.035 417.298 110.217C418.385 109.987 395.62 83.2828 391.067 87.4521C386.514 91.6213 390.07 98.681 390.07 98.681C390.07 98.681 390.338 99.8704 388.535 100.65C389.533 101.047 390.543 101.098 391.438 101.021C391.477 101.303 391.502 101.571 391.553 101.865C391.784 103.451 392.116 105.152 392.589 107.007C393.101 108.963 393.523 110.767 393.919 112.404C393.728 112.596 393.536 112.775 393.344 112.979C393.28 112.979 393.267 113.056 393.267 113.056C393.152 113.197 393.05 113.337 392.935 113.478C392.692 113.772 392.449 114.054 392.218 114.373C384.085 124.873 386.745 137.202 381.744 141.346C380.043 142.752 376.27 145.783 371.551 147.702L364.978 149.237L355.693 131.549L355.872 137.036L355.693 136.793L356.255 151.014C353.889 151.232 352.048 158.713 355.961 160.964C356.204 161.105 364.568 161.693 364.786 161.77L366.065 171.208L365.681 180.34C360.552 184.982 356.127 190.2 354.925 195.111C351.664 208.489 352.841 239.49 352.841 239.49C352.841 239.49 352.892 239.592 352.981 239.72C351.357 240.961 345.576 245.475 344.182 247.509C344.042 247.713 343.952 247.918 343.888 248.122C343.632 248.928 343.952 249.683 344.745 250.169C344.835 250.22 344.95 250.271 345.052 250.322C345.103 250.348 345.154 250.373 345.218 250.399C345.308 250.437 345.41 250.463 345.512 250.501C345.602 250.527 345.679 250.552 345.781 250.578C345.87 250.604 345.973 250.616 346.075 250.629C346.19 250.642 346.293 250.668 346.42 250.68C346.523 250.68 346.625 250.693 346.727 250.706C346.855 250.706 346.996 250.706 347.137 250.706C347.252 250.706 347.354 250.706 347.469 250.706C347.623 250.706 347.776 250.68 347.93 250.655C348.045 250.642 348.16 250.629 348.275 250.604C348.441 250.578 348.62 250.54 348.799 250.501C348.914 250.476 349.042 250.45 349.157 250.412C349.349 250.361 349.541 250.297 349.746 250.233C349.873 250.194 349.989 250.156 350.117 250.118C350.334 250.041 350.564 249.951 350.794 249.849C350.909 249.798 351.012 249.759 351.127 249.708C351.472 249.555 351.83 249.389 352.188 249.197C358.276 245.987 359.568 245.143 360.757 244.465C360.962 244.35 361.115 244.222 361.23 244.081C361.256 244.056 361.294 244.017 361.32 243.992C361.435 243.851 361.524 243.71 361.576 243.544C361.576 243.544 361.576 243.531 361.576 243.518C361.627 243.352 361.652 243.173 361.652 242.981C361.652 242.943 361.652 242.904 361.652 242.866C361.652 242.636 361.64 242.38 361.601 242.099C361.755 242.035 361.87 241.984 361.87 241.984L366.998 196.595C366.998 196.595 375.234 210.126 381.284 207.683C377.421 212.466 378.304 206.379 377.6 211.443C375.708 225.089 375.682 254.773 375.682 254.773C375.682 254.773 375.759 254.862 375.887 254.977C373.904 256.512 368.738 260.592 367.433 262.485C367.292 262.689 367.203 262.894 367.139 263.099C366.883 263.904 367.203 264.672 367.996 265.158C368.085 265.222 368.2 265.26 368.303 265.311C368.354 265.337 368.405 265.362 368.469 265.388C368.558 265.426 368.661 265.452 368.763 265.477C368.853 265.503 368.929 265.529 369.032 265.554C369.121 265.58 369.224 265.592 369.326 265.605C369.441 265.631 369.556 265.644 369.671 265.656C369.773 265.656 369.876 265.669 369.978 265.669C370.106 265.669 370.247 265.669 370.387 265.669C370.502 265.669 370.605 265.669 370.72 265.656C370.873 265.656 371.027 265.631 371.18 265.605C371.295 265.592 371.41 265.58 371.526 265.554C371.692 265.529 371.871 265.49 372.05 265.452C372.165 265.426 372.293 265.401 372.421 265.362C372.613 265.311 372.804 265.247 372.996 265.183C373.124 265.145 373.239 265.106 373.367 265.068C373.585 264.991 373.815 264.902 374.045 264.8C374.16 264.748 374.262 264.71 374.378 264.672C374.723 264.518 375.081 264.352 375.452 264.16C381.54 260.95 382.831 260.106 384.021 259.428C384.225 259.313 384.379 259.185 384.494 259.057C384.519 259.019 384.545 258.993 384.583 258.968C384.686 258.827 384.775 258.686 384.839 258.52C384.839 258.52 384.839 258.507 384.839 258.494C384.89 258.328 384.916 258.149 384.916 257.957C384.916 257.919 384.916 257.881 384.916 257.842C384.916 257.356 384.839 256.781 384.737 256.065C384.711 255.886 384.596 255.732 384.43 255.579C384.724 255.348 390.62 197.119 390.62 197.119C390.62 197.119 414.779 186.3 418.117 184.484C433.975 175.864 421.314 152.012 421.314 152.012L421.275 151.999Z" fill="#E2E2E2"/>
</g>
<path d="M386.309 98.3489C386.309 98.3489 386.437 97.0572 389.941 104.833C393.446 112.609 385.03 137.458 383.035 140.182C381.04 142.906 355.999 150.58 350.487 142.075C353.927 140.31 350.602 137.765 351.28 133.8C361.511 137.381 371.666 129.235 374.786 126.639C380.004 122.316 376.858 109.117 386.297 98.3489H386.309Z" fill="#C7EBF9"/>
<path d="M346.459 224.68C346.459 224.68 338.849 230.423 337.225 232.789C335.588 235.155 339.143 237.687 345.231 234.477C351.319 231.267 352.61 230.423 353.8 229.745C354.976 229.067 354.759 228.108 354.529 226.368C354.298 224.616 346.471 224.68 346.471 224.68H346.459Z" fill="white"/>
<path d="M353.787 228.658C352.597 229.335 351.305 230.18 345.218 233.39C340.639 235.807 337.506 234.975 336.918 233.402C336.227 235.551 339.655 237.405 345.218 234.477C351.305 231.267 352.597 230.422 353.787 229.745C354.695 229.233 354.771 228.542 354.656 227.468C354.58 227.954 354.337 228.338 353.787 228.658Z" fill="#4C4C4C"/>
<path d="M411.568 151.615C411.568 151.615 411.287 168.804 396.106 172.538C380.925 176.272 364.875 184.01 364.875 184.01L354.912 227.263C354.912 227.263 352.789 228.324 350.628 227.953C347.124 227.34 345.883 224.782 345.883 224.782C345.883 224.782 344.706 193.781 347.968 180.403C351.229 167.026 378.572 151.27 378.572 151.27L411.555 151.628L411.568 151.615Z" fill="#0A3A59"/>
<path d="M369.696 239.643C369.696 239.643 362.087 245.385 360.463 247.751C358.826 250.117 362.381 252.649 368.469 249.439C374.556 246.229 375.848 245.385 377.037 244.707C378.227 244.029 377.997 243.07 377.766 241.331C377.536 239.579 369.709 239.643 369.709 239.643H369.696Z" fill="white"/>
<path d="M377.025 243.634C375.835 244.312 374.544 245.156 368.456 248.366C363.877 250.783 360.744 249.952 360.156 248.379C359.465 250.527 362.905 252.382 368.456 249.453C374.544 246.243 375.835 245.399 377.025 244.721C377.933 244.196 378.009 243.519 377.894 242.444C377.818 242.93 377.575 243.314 377.025 243.634Z" fill="#4C4C4C"/>
<path d="M426.595 161.757C426.595 161.757 428.066 178.881 413.333 184.138C398.613 189.394 383.432 198.717 383.432 198.717L377.907 240.436C377.907 240.436 376.423 242.073 373.482 242.073C370.54 242.073 368.711 240.026 368.711 240.026C368.711 240.026 365.297 208.45 367.177 194.804C369.07 181.158 389.762 165.107 389.762 165.107L426.582 161.744L426.595 161.757Z" fill="#305D7A"/>
<path d="M376.437 152.677C376.437 152.677 374.8 101.329 390.466 95.3307C406.133 89.3325 420.483 103.605 426.596 117.43C432.722 131.255 431.11 155.312 426.596 164.252C405.11 179.036 375.823 159.775 376.437 152.677Z" fill="#E6F7FF"/>
<path d="M426.595 117.443C420.469 103.618 406.12 89.3457 390.466 95.3438C389.954 95.5356 389.456 95.7914 388.982 96.0856C400.518 97.5563 410.328 108.632 415.111 119.426C421.237 133.251 419.612 157.307 415.111 166.247C412.962 167.718 410.737 168.843 408.473 169.687C414.599 169.713 420.879 168.204 426.595 164.265C431.11 155.325 432.721 131.269 426.595 117.443Z" fill="white"/>
<path d="M386.053 72.4508C386.053 72.4508 382.14 78.7047 385.644 92.2868C388.483 103.286 388.905 109.386 393.509 109.846C398.101 110.307 411.862 106.956 410.353 95.4969C411.721 95.2028 414.522 89.9592 412.309 85.7899C410.097 81.6207 408.549 86.1736 408.549 86.1736C408.549 86.1736 408.639 77.0933 402.219 73.7809C395.799 70.4685 386.04 72.438 386.04 72.438L386.053 72.4508Z" fill="url(#paint0_linear_82_8)"/>
<path d="M401.145 83.3602C401.119 82.8359 396.246 89.7932 388.407 87.5423C391.105 86.7238 391.719 84.831 391.719 84.831C391.719 84.831 389.097 88.3352 384.595 87.1458C386.514 86.3529 387.447 85.496 387.447 85.496C387.447 85.496 384.455 87.0691 381.603 85.9308C383.406 85.1507 383.137 83.9613 383.137 83.9613C383.137 83.9613 381.539 85.5599 378.444 82.8486C379.71 82.6824 379.582 76.9017 384.135 72.7324C388.688 68.5631 392.384 67.5912 398.497 68.6271C397.001 67.0796 395.415 66.2099 393.266 66.5552C395.709 65.1996 400.863 67.6295 402.385 69.8932C407.13 68.0771 416.057 71.2233 413.103 88.5015C413.051 88.0666 412.642 85.253 410.98 84.7286C409.304 84.1915 407.897 87.4911 408.281 88.3224C408.665 89.1537 408.844 94.0775 408.844 94.0775L406.682 95.2158C406.682 95.2158 407.36 90.9314 405.813 89.6397C404.265 88.348 401.464 89.9466 401.17 83.373L401.145 83.3602Z" fill="#0A3A59"/>
<path d="M348.748 122.073L358.033 134.529L388.01 127.547L386.284 166.298L359.017 165.965L350.039 155.043L348.748 122.073Z" fill="white"/>
<path d="M348.748 116.842L358.033 134.529L359.017 165.965L350.039 155.043L348.748 116.842Z" fill="#E6F7FF"/>
<path d="M394.136 148.534C394.136 148.534 393.216 149.954 391.259 148.534C389.302 147.114 388.573 144.697 387.358 143.802C387.205 146.897 387.358 149.058 383.521 148.982C379.685 148.905 377.216 148.38 375.029 148.534C372.842 148.687 375.451 158.318 386.655 158.535C392.832 158.151 395.454 154.698 395.454 154.698L394.124 148.534H394.136Z" fill="url(#paint1_linear_82_8)"/>
<path d="M349.298 136.294C349.298 136.294 351.357 140.515 352.636 141.001C353.914 141.487 352.917 148.508 349.003 146.257C345.09 144.006 346.932 136.524 349.298 136.307V136.294Z" fill="url(#paint2_linear_82_8)"/>
<path d="M414.062 115.832C414.062 115.832 414.727 105.281 422.145 109.476C429.562 113.683 437.453 138.699 437.453 142.075C437.453 145.452 403.05 162.205 393.586 158.599C395.313 155.146 395.313 150.631 393.51 147.025C403.882 143.866 417.17 139.812 419.421 136.435C421.672 133.059 412.796 130.079 414.049 115.819L414.062 115.832Z" fill="#C7EBF9"/>
<path d="M203.565 489.838L48.5093 400.314V394.469L254.019 454.86V460.704L203.565 489.838Z" fill="#F1682E"/>
<path d="M203.565 489.838L48.5093 400.314V394.469L203.578 483.405V489.262L203.565 489.838Z" fill="#F1682E"/>
<path d="M203.565 483.993L48.5093 394.469L98.9626 365.336L254.019 454.86L203.565 483.993Z" fill="#F8A36C"/>
<path d="M103.465 381.718L93.2461 375.823V374.569L110.051 376.667V377.92L103.465 381.718Z" fill="#F1682E"/>
<path d="M103.465 380.478L93.2461 374.569L99.8325 370.771L110.051 376.667L103.465 380.478Z" fill="#FDDEC9"/>
<path d="M114.399 388.049L104.181 382.153V380.9L120.998 382.997V384.251L114.399 388.049Z" fill="#F1682E"/>
<path d="M114.399 386.795L104.181 380.9L110.78 377.089L120.998 382.997L114.399 386.795Z" fill="#FDDEC9"/>
<path d="M125.347 394.38L115.128 388.471V387.218L131.946 389.315V390.569L125.347 394.38Z" fill="#F1682E"/>
<path d="M125.347 393.127L115.128 387.218L121.715 383.42L131.946 389.316L125.347 393.127Z" fill="#FDDEC9"/>
<path d="M136.294 400.71L126.063 394.801V393.548L142.881 395.645V396.899L136.294 400.71Z" fill="#F1682E"/>
<path d="M136.294 399.457L126.063 393.548L132.662 389.75L142.881 395.646L136.294 399.457Z" fill="#FDDEC9"/>
<path d="M147.229 407.028L137.01 401.132V399.879L153.828 401.976V403.23L147.229 407.028Z" fill="#F1682E"/>
<path d="M147.229 405.774L137.01 399.879L143.597 396.067L153.828 401.976L147.229 405.774Z" fill="#FDDEC9"/>
<path d="M158.177 413.358L147.945 407.45V406.197L164.763 408.294V409.547L158.177 413.358Z" fill="#F1682E"/>
<path d="M158.177 412.106L147.945 406.197L154.545 402.399L164.763 408.294L158.177 412.106Z" fill="#FDDEC9"/>
<path d="M169.112 419.677L158.893 413.781V412.528L175.711 414.625V415.879L169.112 419.677Z" fill="#F1682E"/>
<path d="M169.112 418.436L158.893 412.528L165.479 408.729L175.711 414.625L169.112 418.436Z" fill="#FDDEC9"/>
<path d="M180.058 426.007L169.827 420.111V418.858L186.658 420.956V422.196L180.058 426.007Z" fill="#F1682E"/>
<path d="M180.058 424.754L169.827 418.858L176.426 415.047L186.658 420.956L180.058 424.754Z" fill="#FDDEC9"/>
<path d="M190.993 432.337L180.775 426.429V425.188L197.593 427.273V428.526L190.993 432.337Z" fill="#F1682E"/>
<path d="M190.993 431.084L180.775 425.189L187.361 421.377L197.593 427.273L190.993 431.084Z" fill="#FDDEC9"/>
<path d="M201.941 438.669L191.723 432.761V431.507L208.54 433.605V434.858L201.941 438.669Z" fill="#F1682E"/>
<path d="M201.941 437.415L191.723 431.507L198.309 427.696L208.54 433.604L201.941 437.415Z" fill="#FDDEC9"/>
<path d="M212.876 444.986L202.658 439.09V437.837L219.475 439.934V441.175L212.876 444.986Z" fill="#F1682E"/>
<path d="M212.876 443.733L202.658 437.837L209.257 434.026L219.475 439.935L212.876 443.733Z" fill="#FDDEC9"/>
<path d="M223.824 451.318L213.605 445.409V444.156L230.423 446.253V447.506L223.824 451.318Z" fill="#F1682E"/>
<path d="M223.824 450.064L213.605 444.155L220.191 440.357L230.423 446.253L223.824 450.064Z" fill="#FDDEC9"/>
<path d="M234.771 457.648L224.54 451.739V450.486L241.357 452.583V453.837L234.771 457.648Z" fill="#F1682E"/>
<path d="M234.771 456.395L224.54 450.486L231.139 446.675L241.357 452.584L234.771 456.395Z" fill="#FDDEC9"/>
<path d="M100.894 390.21L84.7158 380.734V379.48L107.481 385.146V386.399L100.894 390.21Z" fill="#F1682E"/>
<path d="M100.894 388.957L84.7158 379.48L91.315 375.682L107.481 385.146L100.894 388.957Z" fill="#FDDEC9"/>
<path d="M111.828 396.529L101.61 390.633V389.379L118.428 391.477V392.73L111.828 396.529Z" fill="#F1682E"/>
<path d="M111.828 395.275L101.61 389.379L108.196 385.568L118.428 391.476L111.828 395.275Z" fill="#FDDEC9"/>
<path d="M122.776 402.859L112.545 396.95V395.71L129.363 397.794V399.048L122.776 402.859Z" fill="#F1682E"/>
<path d="M122.776 401.606L112.545 395.71L119.144 391.899L129.363 397.795L122.776 401.606Z" fill="#FDDEC9"/>
<path d="M133.711 409.189L123.493 403.281V402.027L140.31 404.125V405.378L133.711 409.189Z" fill="#F1682E"/>
<path d="M133.711 407.923L123.493 402.028L130.092 398.216L140.31 404.125L133.711 407.923Z" fill="#FDDEC9"/>
<path d="M144.659 415.507L134.44 409.611V408.358L151.258 410.456V411.709L144.659 415.507Z" fill="#F1682E"/>
<path d="M144.659 414.254L134.44 408.358L141.027 404.547L151.258 410.455L144.659 414.254Z" fill="#FDDEC9"/>
<path d="M155.606 421.838L145.375 415.93V414.676L162.193 416.774V418.027L155.606 421.838Z" fill="#F1682E"/>
<path d="M155.606 420.585L145.375 414.676L151.974 410.878L162.193 416.774L155.606 420.585Z" fill="#FDDEC9"/>
<path d="M166.541 428.156L156.322 422.26V421.007L173.14 423.104V424.357L166.541 428.156Z" fill="#F1682E"/>
<path d="M166.541 426.915L156.322 421.007L162.909 417.195L173.14 423.104L166.541 426.915Z" fill="#FDDEC9"/>
<path d="M177.489 434.487L167.257 428.591V427.337L184.075 429.435V430.675L177.489 434.487Z" fill="#F1682E"/>
<path d="M177.489 433.234L167.257 427.338L173.857 423.527L184.075 429.435L177.489 433.234Z" fill="#FDDEC9"/>
<path d="M188.423 440.817L178.205 434.908V433.655L195.022 435.753V437.006L188.423 440.817Z" fill="#F1682E"/>
<path d="M188.423 439.564L178.205 433.655L184.791 429.857L195.022 435.753L188.423 439.564Z" fill="#FDDEC9"/>
<path d="M199.371 447.135L189.139 441.239V439.986L205.957 442.083V443.337L199.371 447.135Z" fill="#F1682E"/>
<path d="M199.371 445.894L189.139 439.985L195.738 436.174L205.957 442.083L199.371 445.894Z" fill="#FDDEC9"/>
<path d="M210.305 453.465L200.087 447.557V446.316L216.905 448.414V449.654L210.305 453.465Z" fill="#F1682E"/>
<path d="M210.305 452.212L200.087 446.317L206.673 442.505L216.905 448.414L210.305 452.212Z" fill="#FDDEC9"/>
<path d="M226.202 462.7L211.021 453.888V452.635L232.789 457.648V458.889L226.202 462.7Z" fill="#F1682E"/>
<path d="M226.202 461.446L211.021 452.635L217.621 448.836L232.789 457.648L226.202 461.446Z" fill="#FDDEC9"/>
<path d="M88.2328 392.832L76.0703 385.734V384.493L93.9496 387.256V388.509L88.2328 392.832Z" fill="#F1682E"/>
<path d="M88.6037 391.783L76.0703 384.494L82.6567 380.682L95.1901 387.985L88.6037 391.783Z" fill="#FDDEC9"/>
<path d="M98.2977 398.639L88.0664 392.743V391.489L104.897 393.587V394.84L98.2977 398.639Z" fill="#F1682E"/>
<path d="M98.2977 397.398L88.0664 391.489L94.6656 387.678L104.897 393.587L98.2977 397.398Z" fill="#FDDEC9"/>
<path d="M109.233 404.969L99.0142 399.073V397.82L115.832 399.917V401.158L109.233 404.969Z" fill="#F1682E"/>
<path d="M109.233 403.716L99.0142 397.82L105.613 394.009L115.832 399.917L109.233 403.716Z" fill="#FDDEC9"/>
<path d="M120.18 411.3L109.962 405.391V404.151L126.78 406.236V407.489L120.18 411.3Z" fill="#F1682E"/>
<path d="M120.18 410.046L109.962 404.151L116.548 400.339L126.78 406.235L120.18 410.046Z" fill="#FDDEC9"/>
<path d="M131.115 417.63L120.896 411.721V410.468L137.714 412.566V413.819L131.115 417.63Z" fill="#F1682E"/>
<path d="M131.115 416.377L120.896 410.469L127.496 406.657L137.714 412.566L131.115 416.377Z" fill="#FDDEC9"/>
<path d="M142.063 423.948L131.844 418.04V416.799L148.662 418.896V420.137L142.063 423.948Z" fill="#F1682E"/>
<path d="M142.063 422.695L131.844 416.799L138.431 412.988L148.662 418.897L142.063 422.695Z" fill="#FDDEC9"/>
<path d="M153.01 430.279L142.778 424.37V423.117L159.596 425.215V426.468L153.01 430.279Z" fill="#F1682E"/>
<path d="M153.01 429.025L142.778 423.117L149.378 419.318L159.596 425.214L153.01 429.025Z" fill="#FDDEC9"/>
<path d="M163.945 436.597L153.726 430.701V429.447L170.544 431.545V432.798L163.945 436.597Z" fill="#F1682E"/>
<path d="M163.945 435.356L153.726 429.447L160.313 425.636L170.544 431.545L163.945 435.356Z" fill="#FDDEC9"/>
<path d="M174.892 442.927L164.661 437.032V435.778L181.479 437.863V439.129L174.892 442.927Z" fill="#F1682E"/>
<path d="M174.892 441.674L164.661 435.778L171.26 431.967L181.479 437.863L174.892 441.674Z" fill="#FDDEC9"/>
<path d="M185.827 449.258L175.609 443.349V442.096L192.427 444.193V445.447L185.827 449.258Z" fill="#F1682E"/>
<path d="M185.827 448.004L175.609 442.096L182.208 438.297L192.427 444.193L185.827 448.004Z" fill="#FDDEC9"/>
<path d="M196.774 455.576L186.556 449.68V448.427L203.361 450.524V451.777L196.774 455.576Z" fill="#F1682E"/>
<path d="M196.774 454.335L186.556 448.427L193.142 444.628L203.361 450.524L196.774 454.335Z" fill="#FDDEC9"/>
<path d="M207.709 461.907L197.491 455.998V454.757L214.309 456.842V458.095L207.709 461.907Z" fill="#F1682E"/>
<path d="M207.709 460.653L197.491 454.757L204.09 450.946L214.309 456.842L207.709 460.653Z" fill="#FDDEC9"/>
<path d="M217.544 467.585L208.438 462.329V461.075L224.131 462.533V463.774L217.544 467.585Z" fill="#F1682E"/>
<path d="M217.544 466.332L208.438 461.075L215.025 457.277L224.131 462.533L217.544 466.332Z" fill="#FDDEC9"/>
<path d="M84.7793 400.8L67.3477 390.748V389.495L91.3785 395.736V396.989L84.7793 400.8Z" fill="#F1682E"/>
<path d="M84.7793 399.547L67.3477 389.494L73.9469 385.683L91.3785 395.735L84.7793 399.547Z" fill="#FDDEC9"/>
<path d="M95.7269 407.118L85.4956 401.222V399.969L102.313 402.066V403.319L95.7269 407.118Z" fill="#F1682E"/>
<path d="M95.7269 405.864L85.4956 399.968L92.0948 396.157L102.313 402.066L95.7269 405.864Z" fill="#FDDEC9"/>
<path d="M106.662 413.449L96.4434 407.541V406.287L113.261 408.385V409.638L106.662 413.449Z" fill="#F1682E"/>
<path d="M106.662 412.195L96.4434 406.287L103.03 402.488L113.261 408.384L106.662 412.195Z" fill="#FDDEC9"/>
<path d="M117.609 419.78L107.378 413.871V412.618L124.196 414.715V415.968L117.609 419.78Z" fill="#F1682E"/>
<path d="M117.609 418.526L107.378 412.617L113.977 408.819L124.196 414.714L117.609 418.526Z" fill="#FDDEC9"/>
<path d="M128.544 426.097L118.326 420.201V418.947L135.143 421.045V422.298L128.544 426.097Z" fill="#F1682E"/>
<path d="M128.544 424.844L118.326 418.948L124.912 415.137L135.143 421.045L128.544 424.844Z" fill="#FDDEC9"/>
<path d="M139.491 432.428L129.26 426.532V425.266L146.09 427.364V428.617L139.491 432.428Z" fill="#F1682E"/>
<path d="M139.491 431.174L129.26 425.266L135.859 421.467L146.09 427.363L139.491 431.174Z" fill="#FDDEC9"/>
<path d="M150.439 438.759L140.208 432.85V431.597L157.025 433.694V434.948L150.439 438.759Z" fill="#F1682E"/>
<path d="M150.439 437.505L140.208 431.596L146.807 427.798L157.025 433.694L150.439 437.505Z" fill="#FDDEC9"/>
<path d="M161.374 445.076L151.155 439.18V437.927L167.973 440.024V441.278L161.374 445.076Z" fill="#F1682E"/>
<path d="M161.374 443.836L151.155 437.927L157.742 434.116L167.973 440.025L161.374 443.836Z" fill="#FDDEC9"/>
<path d="M172.321 451.407L162.09 445.498V444.258L178.908 446.355V447.596L172.321 451.407Z" fill="#F1682E"/>
<path d="M172.321 450.153L162.09 444.257L168.689 440.446L178.908 446.355L172.321 450.153Z" fill="#FDDEC9"/>
<path d="M183.256 457.738L173.037 451.829V450.576L189.855 452.673V453.926L183.256 457.738Z" fill="#F1682E"/>
<path d="M183.256 456.484L173.037 450.575L179.624 446.777L189.855 452.673L183.256 456.484Z" fill="#FDDEC9"/>
<path d="M194.204 464.055L183.972 458.159V456.906L200.79 459.003V460.257L194.204 464.055Z" fill="#F1682E"/>
<path d="M194.204 462.802L183.972 456.906L190.571 453.095L200.79 459.004L194.204 462.802Z" fill="#FDDEC9"/>
<path d="M209.001 472.496L194.92 464.477V463.237L215.587 467.444V468.698L209.001 472.496Z" fill="#F1682E"/>
<path d="M209.001 471.256L194.92 463.237L201.506 459.426L215.587 467.444L209.001 471.256Z" fill="#FDDEC9"/>
<path d="M71.2487 402.911L58.856 395.646V394.393L77.8351 397.846V399.099L71.2487 402.911Z" fill="#F1682E"/>
<path d="M71.2487 401.657L58.856 394.392L65.4424 390.594L77.8351 397.845L71.2487 401.657Z" fill="#FDDEC9"/>
<path d="M82.1834 409.241L71.9648 403.333V402.08L88.7826 404.177V405.43L82.1834 409.241Z" fill="#F1682E"/>
<path d="M82.1834 407.988L71.9648 402.079L78.5513 398.281L88.7826 404.176L82.1834 407.988Z" fill="#FDDEC9"/>
<path d="M93.1311 415.559L82.9126 409.663V408.409L99.7176 410.507V411.76L93.1311 415.559Z" fill="#F1682E"/>
<path d="M93.1311 414.318L82.9126 408.41L89.499 404.599L99.7176 410.507L93.1311 414.318Z" fill="#FDDEC9"/>
<path d="M158.574 453.491L93.8477 415.981V414.74L165.16 448.427V449.68L158.574 453.491Z" fill="#F1682E"/>
<path d="M158.574 452.238L93.8477 414.74L100.447 410.929L165.16 448.427L158.574 452.238Z" fill="#FDDEC9"/>
<path d="M169.725 459.848L159.494 453.939V452.699L176.312 454.796V456.037L169.725 459.848Z" fill="#F1682E"/>
<path d="M169.725 458.595L159.494 452.699L166.093 448.888L176.312 454.796L169.725 458.595Z" fill="#FDDEC9"/>
<path d="M180.66 466.178L170.441 460.269V459.016L187.259 461.113V462.367L180.66 466.178Z" fill="#F1682E"/>
<path d="M180.66 464.925L170.441 459.016L177.028 455.218L187.259 461.114L180.66 464.925Z" fill="#FDDEC9"/>
<path d="M191.608 472.496L181.389 466.601V465.347L198.207 467.445V468.698L191.608 472.496Z" fill="#F1682E"/>
<path d="M191.608 471.256L181.389 465.347L187.976 461.536L198.207 467.444L191.608 471.256Z" fill="#FDDEC9"/>
<path d="M200.42 477.561L192.324 472.918V471.665L207.006 472.496V473.75L200.42 477.561Z" fill="#F1682E"/>
<path d="M200.42 476.307L192.324 471.665L198.923 467.867L207.006 472.496L200.42 476.307Z" fill="#FDDEC9"/>
<path d="M204.895 278.356V313.258C204.895 320.433 209.64 327.62 219.129 333.094C238.096 344.042 268.867 344.042 287.833 333.094C297.322 327.62 302.067 320.433 302.054 313.258V278.369H204.882L204.895 278.356Z" fill="#0A3A59"/>
<path d="M251.614 323.835L168.344 275.76V273.458H334.884V275.76L251.614 323.835Z" fill="#0A3A59"/>
<path d="M251.614 321.533L168.344 273.459L251.614 225.384L334.884 273.459L251.614 321.533Z" fill="#305D7A"/>
<path d="M297.63 326.29H294.752V296.683L250.962 274.75L252.254 272.166L297.63 294.906V326.29Z" fill="#FFD629"/>
<path d="M257.561 273.982C257.561 275.568 255.438 276.86 252.816 276.86C250.194 276.86 248.059 275.568 248.059 273.982C248.059 272.397 250.182 271.105 252.816 271.105C255.451 271.105 257.561 272.397 257.561 273.982Z" fill="#FFD629"/>
<path d="M299.624 339.54V324.884C299.624 323.03 298.128 321.533 296.274 321.533C294.419 321.533 292.923 323.03 292.923 324.884V339.54H299.612H299.624Z" fill="#FFF42C"/>
<g style="mix-blend-mode:multiply">
<path d="M85.6231 501.042C85.6231 501.042 100.331 500.71 118.415 483.994C136.498 467.279 150.874 459.426 150.874 459.426V454.336L201.557 424.589L214.282 416.109L213.911 337.149L194.421 354.913L193.039 403.717L131.882 443.568L85.6104 501.042H85.6231Z" fill="#D6EAF2"/>
</g>
<path d="M111.867 483.29C108.606 487.933 90.4705 504.52 85.1119 500.76C79.7532 497 89.2172 474.3 92.4784 469.67L192.899 326.738C196.16 322.096 203.143 321.392 208.502 325.152C213.86 328.912 215.561 335.729 212.3 340.359L111.88 483.29H111.867Z" fill="#305D7A"/>
<path d="M208.489 325.14C207.402 324.372 206.238 323.809 205.062 323.4C207.402 327.058 207.658 331.547 205.292 334.898L104.871 477.829C102.365 481.398 91.059 492.025 83.539 495.031C83.3727 497.717 83.7819 499.814 85.112 500.735C90.4707 504.495 108.606 487.907 111.867 483.265L212.288 340.333C215.549 335.691 213.848 328.887 208.489 325.127V325.14Z" fill="#305D7A"/>
<path d="M95.9698 464.669L92.4655 469.657C89.2043 474.299 79.7531 496.987 85.099 500.747C90.4576 504.507 108.593 487.92 111.854 483.277L115.358 478.29L95.957 464.656L95.9698 464.669Z" fill="#0A3A59"/>
<path d="M109.462 474.146L106.93 477.753C103.669 482.395 89.345 502.999 83.9863 499.239C84.2421 499.891 84.613 500.402 85.1118 500.748C90.4704 504.508 108.605 487.92 111.867 483.278L115.371 478.29L109.462 474.133V474.146Z" fill="#305D7A"/>
<path d="M166.95 408.793L151.859 398.191L143.878 392.576L187.694 330.216L210.766 346.42L166.95 408.793Z" fill="#305D7A"/>
<path d="M200.816 339.438L157.064 401.709L143.942 392.5L143.878 392.577L151.859 398.192L166.95 408.794L210.766 346.421L200.816 339.438Z" fill="#11385E"/>
<path d="M185.784 332.932L183.248 336.542L206.312 352.746L208.848 349.136L185.784 332.932Z" fill="#0A3A59"/>
<path d="M205.663 342.839C205.663 342.839 216.905 347.2 208.86 360.054C200.803 372.907 181.159 393.638 179.215 401.708C177.271 409.778 169.61 408.921 169.393 403.064C169.176 397.206 176.312 390.914 182.873 382.23C189.434 373.546 209.462 349.029 201.903 340.179C204.435 341.957 205.676 342.827 205.676 342.827L205.663 342.839Z" fill="#0A3A59"/>
<path d="M392.781 0.000457764L304.702 34.4673L342.686 38.9947L392.781 0.000457764Z" fill="#FFEAE0"/>
<path d="M342.072 38.9182L347.942 55.365L392.781 0.000701904L342.072 38.9182Z" fill="#F8A36C"/>
<path d="M354.657 42.7038L347.942 55.365L392.781 0.000701904L354.657 42.7038Z" fill="#F26628"/>
<path d="M392.781 0.000701904L380.926 58.0636L354.657 42.7038L392.781 0.000701904Z" fill="#FFEAE0"/>
<path d="M339.732 55.9281L337.775 54.2783C339.898 51.7589 341.087 50.3776 341.087 50.3776L343.031 52.0402C343.031 52.0402 341.855 53.4215 339.732 55.9281Z" fill="#252D53"/>
<path d="M368.993 334.463C367.689 334.463 366.371 334.463 365.041 334.425L365.08 331.867C368.494 331.918 371.858 331.905 375.247 331.816L375.311 334.374C373.214 334.425 371.078 334.463 368.98 334.463H368.993ZM354.772 334.041C351.792 333.862 348.722 333.632 345.653 333.338L344.54 333.236L344.796 330.691L345.909 330.793C348.953 331.074 351.996 331.317 354.938 331.483L354.784 334.041H354.772ZM385.581 333.849L385.389 331.304C388.804 331.049 392.193 330.69 395.492 330.268L395.825 332.801C392.487 333.236 389.047 333.581 385.594 333.849H385.581ZM334.322 332.021C330.894 331.535 327.48 330.972 324.18 330.358L324.653 327.851C327.914 328.465 331.278 329.015 334.68 329.501L334.322 332.033V332.021ZM405.979 331.202L405.506 328.683C408.844 328.056 412.182 327.34 415.418 326.534L416.032 329.015C412.745 329.834 409.369 330.563 405.967 331.202H405.979ZM314.14 328.184C310.764 327.365 307.426 326.444 304.216 325.46L304.971 323.017C308.13 323.989 311.416 324.897 314.742 325.703L314.14 328.184ZM425.956 326.214L425.176 323.784C428.425 322.748 431.635 321.597 434.704 320.37L435.65 322.748C432.517 324.002 429.256 325.166 425.943 326.227L425.956 326.214ZM294.483 322.096C291.235 320.843 288.038 319.474 285.007 318.029L286.107 315.727C289.074 317.147 292.207 318.49 295.404 319.717L294.483 322.109V322.096ZM445.076 318.541L443.951 316.252C447.007 314.742 450 313.118 452.826 311.417L454.144 313.604C451.253 315.344 448.197 317.006 445.076 318.541ZM275.888 313.195C272.883 311.417 269.967 309.512 267.243 307.529L268.752 305.457C271.412 307.401 274.251 309.256 277.18 310.982L275.888 313.182V313.195ZM462.751 307.875L461.229 305.816C463.978 303.795 466.6 301.659 469.043 299.447L470.757 301.339C468.25 303.603 465.551 305.803 462.738 307.875H462.751ZM259.224 300.994C256.653 298.654 254.223 296.16 251.985 293.589L253.916 291.914C256.09 294.408 258.456 296.838 260.95 299.101L259.224 300.994ZM478.047 293.986L476.128 292.297C478.379 289.752 480.451 287.092 482.318 284.368L484.428 285.813C482.51 288.614 480.361 291.364 478.047 293.986ZM245.667 285.366C243.749 282.514 241.984 279.495 240.424 276.426L242.7 275.275C244.209 278.255 245.923 281.171 247.79 283.946L245.667 285.378V285.366ZM489.71 276.874L487.421 275.723C488.93 272.704 490.222 269.584 491.245 266.463L493.675 267.256C492.613 270.505 491.283 273.74 489.71 276.874ZM236.318 266.898C235.154 263.688 234.17 260.35 233.377 256.961L235.871 256.373C236.651 259.659 237.61 262.908 238.735 266.028L236.331 266.898H236.318ZM496.118 257.14L493.585 256.743C494.059 253.712 494.302 250.643 494.302 247.612V246.768L496.847 246.73V247.599C496.847 250.758 496.604 253.955 496.105 257.127L496.118 257.14ZM231.548 246.781C231.139 243.417 230.883 239.939 230.806 236.46L233.364 236.409C233.441 239.798 233.684 243.187 234.08 246.474L231.535 246.781H231.548ZM493.291 236.844C492.677 233.595 491.756 230.359 490.58 227.239L492.971 226.331C494.199 229.592 495.158 232.968 495.798 236.358L493.291 236.844ZM233.633 226.318L231.075 226.139C231.318 222.75 231.714 219.297 232.264 215.882L234.784 216.291C234.246 219.642 233.863 223.018 233.62 226.331L233.633 226.318ZM486.283 218.197C484.633 215.358 482.727 212.582 480.617 209.935L482.612 208.336C484.812 211.086 486.794 213.964 488.495 216.918L486.283 218.197ZM236.804 206.367L234.323 205.753C235.142 202.428 236.101 199.09 237.188 195.841L239.618 196.647C238.556 199.844 237.61 203.106 236.804 206.367ZM243.199 187.183L240.846 186.173C242.214 182.976 243.71 179.842 245.296 176.85L247.56 178.052C246 180.98 244.542 184.05 243.199 187.183ZM252.714 169.355L250.565 167.961C252.33 165.25 254.236 162.372 256.244 159.418L258.354 160.85C256.359 163.792 254.466 166.644 252.714 169.355ZM264.16 152.461L262.063 150.99C263.994 148.24 265.989 145.452 268.01 142.651L270.082 144.148C268.061 146.936 266.079 149.711 264.148 152.461H264.16ZM276.118 135.899L274.059 134.377C276.08 131.64 278.126 128.903 280.185 126.166L282.231 127.701C280.172 130.425 278.139 133.162 276.118 135.886V135.899ZM288.421 119.58L286.388 118.019C288.473 115.295 290.57 112.584 292.642 109.924L294.662 111.497C292.591 114.157 290.506 116.855 288.409 119.58H288.421ZM300.968 103.452L298.96 101.867C301.108 99.1425 303.244 96.4567 305.316 93.8478L307.311 95.4464C305.239 98.0554 303.103 100.728 300.955 103.452H300.968ZM313.731 87.466L311.736 85.8545C313.961 83.0921 316.123 80.4319 318.182 77.8997L320.164 79.5111C318.105 82.0433 315.944 84.6907 313.718 87.4532L313.731 87.466ZM326.648 71.6202L324.679 69.9959C327.07 67.0928 329.257 64.4582 331.214 62.105L333.183 63.742C331.227 66.0825 329.04 68.717 326.661 71.6202H326.648Z" fill="#252D53"/>
<path d="M473.673 202.389C472.47 201.251 471.204 200.126 469.913 199.039L471.562 197.082C472.892 198.195 474.197 199.358 475.438 200.535L473.685 202.389H473.673Z" fill="#252D53"/>
<path d="M77.8478 256.731L75.4946 255.72C76.748 252.779 78.7559 249.364 78.7942 249.3V254.518C78.5129 255.158 78.7303 254.672 77.8478 256.731Z" fill="#444B6E"/>
<path d="M120.026 340.679C118.428 340.679 116.778 340.627 115.115 340.538L115.256 337.98C118.811 338.185 122.226 338.159 125.423 337.929L125.615 340.474C123.812 340.615 121.932 340.679 120.026 340.679ZM104.692 339.361C101.047 338.747 97.607 337.891 94.4736 336.842L95.2922 334.412C98.3104 335.422 101.61 336.241 105.127 336.829L104.705 339.348L104.692 339.361ZM136.026 338.85L135.412 336.369C138.763 335.55 141.96 334.412 144.889 333.018L145.988 335.32C142.893 336.791 139.543 337.98 136.013 338.85H136.026ZM84.8306 332.455C81.6717 330.562 78.8836 328.311 76.5176 325.779L78.3849 324.04C80.5846 326.406 83.1936 328.49 86.1351 330.268L84.8178 332.455H84.8306ZM154.992 329.718L153.393 327.723C155.977 325.664 158.356 323.272 160.466 320.612L162.474 322.198C160.248 324.999 157.729 327.531 154.992 329.718ZM70.5067 316.955C69.0232 313.885 67.9105 310.483 67.1943 306.838L69.701 306.34C70.3788 309.767 71.4148 312.952 72.8088 315.829L70.5067 316.942V316.955ZM168.178 313.284L165.901 312.12C167.372 309.23 168.664 306.071 169.725 302.746L172.168 303.526C171.068 306.992 169.725 310.266 168.19 313.284H168.178ZM66.1968 296.313V296.006C66.1968 292.77 66.4398 289.343 66.913 285.813L69.4452 286.158C68.9848 289.573 68.7546 292.885 68.7546 296.006V296.287H66.1968V296.313ZM174.662 293.32L172.142 292.873C172.718 289.65 173.14 286.235 173.396 282.744L175.953 282.923C175.698 286.504 175.263 290.008 174.675 293.32H174.662ZM71.3508 276.132L68.8697 275.53C69.6626 272.244 70.6474 268.867 71.7857 265.491L74.2156 266.309C73.1029 269.622 72.1437 272.934 71.3636 276.144L71.3508 276.132ZM173.651 272.512C173.6 269.2 173.408 265.76 173.089 262.281L175.634 262.051C175.953 265.593 176.145 269.098 176.196 272.474L173.639 272.512H173.651ZM171.835 252.101C171.324 248.788 170.684 245.399 169.955 241.997L172.449 241.46C173.191 244.9 173.83 248.353 174.355 251.704L171.823 252.101H171.835ZM167.513 232.009C166.63 228.748 165.645 225.435 164.584 222.161L167.014 221.368C168.088 224.681 169.086 228.044 169.981 231.344L167.513 232.009ZM161.297 212.339C160.248 209.052 159.276 205.689 158.407 202.325L160.888 201.686C161.745 204.998 162.704 208.323 163.74 211.559L161.297 212.339ZM156.066 192.183C155.376 188.794 154.775 185.341 154.263 181.927L156.795 181.556C157.294 184.932 157.895 188.334 158.573 191.685L156.066 192.196V192.183ZM153.035 171.567C152.716 168.101 152.498 164.597 152.383 161.17L154.941 161.08C155.056 164.457 155.273 167.91 155.58 171.337L153.035 171.567ZM154.89 150.81L152.332 150.747C152.421 147.229 152.639 143.725 152.946 140.336L155.491 140.579C155.184 143.917 154.979 147.357 154.877 150.823L154.89 150.81ZM156.808 130.399L154.289 129.977C154.877 126.473 155.593 123.032 156.437 119.746L158.918 120.372C158.1 123.582 157.396 126.959 156.821 130.386L156.808 130.399ZM161.911 110.614L159.507 109.744C160.734 106.355 162.128 103.107 163.65 100.101L165.94 101.252C164.469 104.168 163.113 107.314 161.924 110.614H161.911ZM171.145 92.543L169.06 91.0594C171.17 88.0796 173.485 85.381 175.928 83.0278L177.706 84.8695C175.378 87.1076 173.178 89.691 171.158 92.543H171.145ZM233.914 80.2909C230.73 78.7435 227.571 77.439 224.501 76.3903L225.32 73.9731C228.479 75.0474 231.74 76.403 235.014 77.9889L233.901 80.2909H233.914ZM185.635 78.769L184.33 76.5693C187.4 74.7404 190.674 73.3081 194.076 72.3233L194.792 74.7788C191.607 75.7124 188.538 77.0553 185.648 78.769H185.635ZM214.692 73.8836C211.252 73.3081 207.862 73.0779 204.652 73.2057L204.55 70.6479C207.952 70.52 211.507 70.7502 215.114 71.3641L214.692 73.8836Z" fill="#444B6E"/>
<path d="M247.355 88.0668C245.936 87.1204 244.503 86.1995 243.097 85.3299L244.427 83.1557C245.859 84.0382 247.33 84.9718 248.775 85.9437L247.355 88.0668Z" fill="#444B6E"/>
<g style="mix-blend-mode:multiply">
<path d="M473.072 367.689L465.986 371.526L461.037 368.853L413.525 394.585C406.747 398.255 406.747 404.202 413.525 407.873L414.126 408.205C420.904 411.876 431.89 411.876 438.669 408.205L473.059 389.571V367.676L473.072 367.689Z" fill="#C4DDE8"/>
</g>
<path d="M481.014 380.606L502.704 368.073V362.267L463.863 370.695L481.014 380.606Z" fill="#AAAAAA"/>
<path d="M481.014 374.8L502.704 362.267L485.554 352.368L463.863 364.888L481.014 374.8Z" fill="#FCFCFC"/>
<path d="M494.941 364.377L498.228 362.472L493.419 359.709L490.132 361.602L494.941 364.377Z" fill="#AAAAAA"/>
<path d="M493.419 360.208L490.567 361.858L490.132 361.602L493.419 359.709L498.228 362.472L497.793 362.727L493.419 360.208Z" fill="#4F4F4F"/>
<path d="M486.615 359.568L489.902 357.675L485.106 354.9L481.819 356.805L486.615 359.568Z" fill="#AAAAAA"/>
<path d="M485.106 355.411L482.254 357.048L481.819 356.805L485.106 354.9L489.902 357.675L489.48 357.931L485.106 355.411Z" fill="#4F4F4F"/>
<path d="M418.513 389.891L422.567 393.689C422.797 393.536 423.04 393.383 423.283 393.242L491.449 370.861V381.131L446.879 406.862C440.523 410.533 430.215 410.533 423.859 406.862L423.283 406.53C419.996 404.637 418.41 402.118 418.525 399.636V389.891H418.513Z" fill="#F26628"/>
<path d="M423.283 382.972L467.853 357.24L491.449 370.861L446.879 396.593C440.523 400.263 430.215 400.263 423.858 396.593L423.283 396.26C416.927 392.59 416.927 386.643 423.283 382.972Z" fill="#F8A36C"/>
<path d="M427.452 393.319C431.34 395.57 437.658 395.57 441.559 393.319C445.447 391.068 445.447 387.423 441.559 385.172C437.658 382.921 431.34 382.921 427.452 385.172C423.552 387.423 423.565 391.068 427.452 393.319Z" fill="#F26628"/>
<path d="M86.0839 76.4414C86.0839 76.4414 85.9048 85.6241 90.7008 87.6192C94.5631 86.8518 90.2531 76.9658 90.2531 76.9658L86.0967 76.4414H86.0839Z" fill="#0A3A59"/>
<g style="mix-blend-mode:multiply">
<path d="M144.697 150.312C145.387 149.915 145.886 149.353 146.257 148.7L143.021 150.517C143.955 150.427 144.633 150.363 144.697 150.325V150.312Z" fill="#E2E2E2"/>
</g>
<g style="mix-blend-mode:multiply">
<path d="M156.795 237.47C156.731 237.266 156.642 237.061 156.501 236.856C155.094 234.823 149.314 230.321 147.689 229.068C147.766 228.94 147.83 228.837 147.83 228.837C147.83 228.837 149.007 197.836 145.733 184.446C144.531 179.548 140.106 174.33 134.977 169.675L134.593 160.543L135.374 154.775L92.7983 178.627C100.676 182.234 110.077 186.441 110.077 186.441C110.077 186.441 115.96 244.683 116.266 244.901C116.1 245.041 115.972 245.195 115.947 245.387C115.857 246.103 115.768 246.678 115.768 247.164C115.768 247.203 115.768 247.241 115.768 247.279C115.768 247.471 115.806 247.65 115.844 247.817C115.844 247.817 115.844 247.829 115.844 247.842C115.896 248.008 115.985 248.149 116.1 248.29C116.126 248.315 116.151 248.354 116.19 248.379C116.318 248.507 116.471 248.648 116.663 248.763C117.852 249.441 119.144 250.285 125.232 253.495C125.603 253.687 125.948 253.853 126.306 254.007C126.421 254.058 126.523 254.096 126.638 254.134C126.869 254.224 127.099 254.326 127.316 254.403C127.444 254.454 127.559 254.48 127.687 254.518C127.879 254.582 128.084 254.646 128.263 254.697C128.391 254.736 128.506 254.748 128.621 254.787C128.8 254.825 128.966 254.863 129.145 254.889C129.26 254.915 129.375 254.927 129.49 254.94C129.644 254.966 129.81 254.979 129.951 254.991C130.066 254.991 130.168 254.991 130.283 255.004C130.424 255.004 130.552 255.004 130.693 255.004C130.795 255.004 130.897 255.004 131 254.991C131.115 254.991 131.23 254.966 131.345 254.94C131.447 254.927 131.55 254.915 131.639 254.889C131.729 254.863 131.818 254.838 131.908 254.812C132.01 254.787 132.112 254.748 132.202 254.723C132.253 254.697 132.317 254.672 132.368 254.646C132.47 254.595 132.585 254.556 132.675 254.493C133.468 254.007 133.788 253.252 133.532 252.446C133.468 252.242 133.378 252.037 133.238 251.832C131.92 249.927 126.766 245.847 124.784 244.325C124.912 244.21 124.989 244.121 124.989 244.121C124.989 244.121 124.95 214.437 123.07 200.791C122.367 195.726 127.47 200.407 123.607 195.624C129.657 198.067 133.673 185.943 133.673 185.943L138.801 231.331C138.801 231.331 138.903 231.382 139.07 231.446C139.044 231.728 139.018 231.984 139.018 232.214C139.018 232.252 139.018 232.291 139.018 232.329C139.018 232.521 139.057 232.7 139.095 232.866C139.095 232.866 139.095 232.879 139.095 232.892C139.146 233.058 139.236 233.199 139.351 233.339C139.377 233.378 139.402 233.403 139.44 233.429C139.568 233.569 139.722 233.685 139.914 233.812C141.103 234.49 142.395 235.334 148.482 238.544C148.841 238.736 149.199 238.903 149.544 239.056C149.659 239.107 149.761 239.146 149.876 239.197C150.107 239.286 150.337 239.376 150.554 239.465C150.682 239.516 150.797 239.542 150.925 239.58C151.117 239.644 151.322 239.708 151.513 239.747C151.641 239.785 151.756 239.798 151.872 239.836C152.051 239.875 152.217 239.913 152.396 239.938C152.511 239.964 152.626 239.977 152.741 239.99C152.895 240.015 153.061 240.028 153.202 240.041C153.317 240.041 153.419 240.041 153.534 240.041C153.675 240.041 153.803 240.041 153.943 240.041C154.046 240.041 154.161 240.041 154.25 240.015C154.365 240.015 154.481 239.99 154.596 239.964C154.698 239.951 154.8 239.926 154.89 239.913C154.979 239.887 155.069 239.862 155.158 239.836C155.261 239.811 155.363 239.772 155.453 239.734C155.504 239.708 155.555 239.683 155.619 239.657C155.721 239.606 155.836 239.555 155.926 239.504C156.719 239.018 157.038 238.263 156.783 237.457L156.795 237.47Z" fill="#E2E2E2"/>
</g>
<path d="M146.845 161.822C146.845 161.822 139.543 162.41 137.995 168.434C136.768 173.601 134.696 170.48 135.118 171.439C135.54 172.399 139.223 179.624 142.74 176.427C146.257 173.23 151.424 169.918 149.429 163.152C148.009 161.873 146.845 161.822 146.845 161.822Z" fill="#252D53"/>
<path d="M126.984 174.393C126.984 174.393 119.681 174.982 118.134 181.005C116.906 186.172 116.855 186.39 117.277 187.349C117.699 188.308 119.349 192.196 122.878 188.999C126.408 185.801 133.545 184.842 131.549 178.077C130.13 176.798 126.984 174.406 126.984 174.406V174.393Z" fill="#0A3A59"/>
<path d="M114.348 87.7086C114.348 87.7086 114.22 86.4169 110.716 94.1928C107.212 101.969 115.627 126.818 117.622 129.542C119.617 132.266 144.658 139.94 150.171 131.435C146.73 129.67 150.055 127.125 149.378 123.16C139.146 126.741 124.413 120.577 121.28 117.981C116.062 113.658 123.786 98.4771 114.348 87.7086Z" fill="url(#paint3_linear_82_8)"/>
<path d="M153.266 214.053C153.266 214.053 161.809 219.783 163.446 222.149C165.083 224.515 161.527 227.047 155.44 223.837C149.352 220.627 148.06 219.783 146.871 219.105C145.694 218.427 145.771 215.153 146.871 213.171C147.728 211.636 153.253 214.053 153.253 214.053H153.266Z" fill="#F8A36C"/>
<path d="M146.871 218.006C148.06 218.683 149.352 219.527 155.44 222.738C160.018 225.142 163.152 224.323 163.74 222.75C164.43 224.899 160.99 226.753 155.44 223.825C149.352 220.615 148.06 219.77 146.871 219.093C145.963 218.568 145.886 217.89 146.001 216.816C146.078 217.302 146.321 217.686 146.871 218.006Z" fill="#4C4C4C"/>
<path d="M89.0894 140.963C89.0894 140.963 89.3707 158.151 104.551 161.886C119.732 165.62 139.594 171.439 139.594 171.439L147.191 214.935C147.191 214.935 149.774 217.506 151.795 216.674C153.547 215.958 153.265 214.053 153.265 214.053C153.265 214.053 154.314 181.875 151.513 168.395C149.441 158.42 114.182 143.392 114.182 143.392L89.1021 140.963H89.0894Z" fill="url(#paint4_linear_82_8)"/>
<path d="M149.429 163.152C141.295 151.68 122.086 140.605 122.086 140.605L89.1025 140.963C89.1025 140.963 89.3839 158.152 104.565 161.886C117.418 165.045 133.315 173 137.151 174.777C137.279 167.718 142.651 160.096 149.442 163.152H149.429Z" fill="#0A3A59"/>
<path d="M130.961 228.991C130.961 228.991 138.571 234.733 140.195 237.112C141.832 239.478 138.277 242.01 132.189 238.8C126.101 235.59 124.81 234.746 123.62 234.068C122.444 233.39 122.431 229.796 123.723 227.507C124.58 225.972 130.949 228.991 130.949 228.991H130.961Z" fill="#F8A36C"/>
<path d="M123.633 232.981C124.823 233.659 126.114 234.503 132.202 237.713C136.78 240.117 139.914 239.299 140.502 237.726C141.193 239.874 137.752 241.729 132.202 238.8C126.114 235.59 124.823 234.746 123.633 234.068C122.725 233.544 122.648 232.866 122.763 231.792C122.84 232.278 123.083 232.661 123.633 232.981Z" fill="#4C4C4C"/>
<path d="M74.0622 151.117C74.0622 151.117 72.5915 168.242 87.3246 173.498C102.045 178.755 120.257 185.431 120.257 185.431L123.825 228.569C123.825 228.569 125.091 230.538 128.033 230.538C130.974 230.538 130.961 228.991 130.961 228.991C130.961 228.991 134.171 197.798 132.291 184.152C130.399 170.506 110.895 154.468 110.895 154.468L74.075 151.105L74.0622 151.117Z" fill="url(#paint5_linear_82_8)"/>
<path d="M131.55 178.077C125.961 166.17 110.882 154.468 110.882 154.468L74.0622 151.105C74.0622 151.105 72.5915 168.229 87.3246 173.486C100.267 178.103 115.141 187.285 118.172 189.101C120.154 182.579 123.16 176.107 131.55 178.064V178.077Z" fill="#305D7A"/>
<path d="M124.221 142.037C124.221 142.037 125.858 90.6886 110.192 84.6904C94.5248 78.6923 80.1754 92.965 74.0621 106.79C67.9361 120.615 69.5604 144.672 74.0621 153.611C95.548 168.396 124.835 149.135 124.221 142.037Z" fill="#F26628"/>
<path d="M74.0621 106.79C80.1882 92.965 94.5376 78.6923 110.192 84.6904C110.703 84.8823 111.202 85.1381 111.675 85.4322C100.139 86.903 90.33 97.9784 85.5468 108.772C79.4208 122.598 81.045 146.654 85.5468 155.594C87.6954 157.064 89.9207 158.19 92.1844 159.034C86.0712 159.059 79.7789 157.55 74.0621 153.611C69.5604 144.672 67.9361 120.615 74.0621 106.79Z" fill="#FF9E73"/>
<path d="M114.604 61.7975C114.604 61.7975 118.518 68.0514 115.014 81.6335C112.162 92.6322 111.752 98.7327 107.148 99.1931C102.557 99.6535 88.7957 96.3027 90.3049 84.8436C88.9364 84.5495 86.1356 79.3059 88.3481 75.1366C90.5607 70.9674 92.1081 75.5203 92.1081 75.5203C92.1081 75.5203 92.0186 66.44 98.4388 63.1276C104.859 59.8152 114.617 61.7847 114.617 61.7847L114.604 61.7975Z" fill="url(#paint6_linear_82_8)"/>
<path d="M99.5127 72.7068C99.5382 72.1825 104.411 79.1398 112.251 76.8889C109.565 76.0704 108.938 74.1776 108.938 74.1776C108.938 74.1776 111.56 77.6818 116.062 76.4924C114.143 75.6995 113.21 74.8426 113.21 74.8426C113.21 74.8426 116.203 76.4157 119.055 75.2775C117.251 74.4973 117.52 73.3079 117.52 73.3079C117.52 73.3079 119.118 74.9066 122.213 72.1953C120.947 72.029 121.075 66.2483 116.522 62.079C111.969 57.9098 108.26 56.9378 102.16 57.9737C103.656 56.4262 105.242 55.5566 107.391 55.9019C104.948 54.5462 99.8068 56.9762 98.2721 59.2398C93.5273 57.4238 84.6005 60.5699 87.5548 77.8481C87.6059 77.4132 88.0152 74.5996 89.6778 74.0753C91.3532 73.5381 92.76 76.8377 92.3763 77.669C91.9926 78.5003 91.8136 83.4242 91.8136 83.4242L93.975 84.5624C93.975 84.5624 93.2971 80.278 94.8446 78.9863C96.3921 77.6946 99.1929 79.2933 99.4871 72.7196L99.5127 72.7068Z" fill="#0A3A59"/>
<path d="M151.91 111.433L142.638 123.876L112.647 116.894L114.374 155.645L141.64 155.312L150.631 144.39L151.91 111.433Z" fill="white"/>
<path d="M151.91 106.189L142.638 123.877L141.64 155.312L150.631 144.391L151.91 106.189Z" fill="#E6F7FF"/>
<path d="M151.36 125.641C151.36 125.641 149.301 129.862 148.022 130.348C146.743 130.834 147.741 137.855 151.654 135.604C155.568 133.353 153.726 125.872 151.36 125.654V125.641Z" fill="url(#paint7_linear_82_8)"/>
<path d="M125.628 137.893C123.454 137.74 120.973 138.264 117.136 138.341C113.299 138.418 113.44 136.243 113.299 133.161C112.084 134.056 111.355 136.474 109.399 137.893C107.442 139.313 106.521 137.893 106.521 137.893L106.112 138.2C92.2355 135.745 82.439 132.304 80.2392 129.005C77.9883 125.628 84.1655 115.41 84.7027 106.189C84.7027 106.189 85.9304 94.6275 78.5127 98.8351C71.095 103.043 68.6011 132.675 68.6011 136.052C68.6011 139.428 93.4888 144.122 106.495 145.311C108.695 146.577 111.355 147.728 113.99 147.894C125.193 147.677 127.802 138.047 125.615 137.893H125.628Z" fill="url(#paint8_linear_82_8)"/>
<path d="M86.6082 105.179C86.6082 105.179 85.9432 94.6275 78.5255 98.8223C74.7143 100.984 70.788 112.353 67.8721 119.72C72.2204 122.981 76.8756 124.682 81.7995 125.628C83.6155 122.687 87.4779 114.898 86.6082 105.166V105.179Z" fill="#F26628"/>
<path d="M119.642 66.2999C119.642 66.2999 119.144 73.8583 87.4265 76.966C86.4034 75.8406 85.815 74.0885 85.5337 72.1445C84.9454 68.0776 85.7127 63.1665 86.7231 61.2098C88.2194 58.3322 87.8613 54.3931 86.0708 52.5771C84.2804 50.761 84.664 46.822 90.8668 49.5972C97.0695 52.3725 113.005 50.2622 119.642 66.2871V66.2999Z" fill="#F26628"/>
<path d="M85.5594 72.3108C85.5594 72.3108 91.468 74.0118 103.375 71.8504C115.281 69.689 118.249 65.5709 118.287 63.5119C121.676 63.6142 121.228 68.3718 120.768 69.2158C119.067 72.362 100.906 80.2145 87.5162 77.5928C84.8305 76.1732 84.8177 73.3467 85.5466 72.3108H85.5594Z" fill="white"/>
<path d="M84.7027 53.4977C87.2031 53.4977 89.23 51.4707 89.23 48.9703C89.23 46.47 87.2031 44.443 84.7027 44.443C82.2023 44.443 80.1753 46.47 80.1753 48.9703C80.1753 51.4707 82.2023 53.4977 84.7027 53.4977Z" fill="white"/>
<defs>
<linearGradient id="paint0_linear_82_8" x1="412.408" y1="87.2523" x2="384.803" y2="91.5603" gradientUnits="userSpaceOnUse">
<stop stop-color="#FFE2C4"/>
<stop offset="1" stop-color="#FFB870"/>
</linearGradient>
<linearGradient id="paint1_linear_82_8" x1="394.725" y1="150.005" x2="374.812" y2="153.112" gradientUnits="userSpaceOnUse">
<stop stop-color="#FFB870"/>
<stop offset="1" stop-color="#FFE2C4"/>
</linearGradient>
<linearGradient id="paint2_linear_82_8" x1="352.981" y1="141.026" x2="346.714" y2="141.998" gradientUnits="userSpaceOnUse">
<stop stop-color="#FFB870"/>
<stop offset="1" stop-color="#FFE2C4"/>
</linearGradient>
<linearGradient id="paint3_linear_82_8" x1="109.859" y1="111.471" x2="150.171" y2="111.471" gradientUnits="userSpaceOnUse">
<stop stop-color="#FFB870"/>
<stop offset="1" stop-color="#FFE2C4"/>
</linearGradient>
<linearGradient id="paint4_linear_82_8" x1="89.0894" y1="178.895" x2="153.457" y2="178.895" gradientUnits="userSpaceOnUse">
<stop stop-color="#FFE2C4"/>
<stop offset="1" stop-color="#FFB870"/>
</linearGradient>
<linearGradient id="paint5_linear_82_8" x1="74.0239" y1="190.828" x2="132.88" y2="190.828" gradientUnits="userSpaceOnUse">
<stop stop-color="#FFE2C4"/>
<stop offset="1" stop-color="#FFB870"/>
</linearGradient>
<linearGradient id="paint6_linear_82_8" x1="87.9733" y1="76.7034" x2="115.592" y2="81.0136" gradientUnits="userSpaceOnUse">
<stop stop-color="#FFE2C4"/>
<stop offset="1" stop-color="#FFB870"/>
</linearGradient>
<linearGradient id="paint7_linear_82_8" x1="147.677" y1="130.373" x2="153.943" y2="131.345" gradientUnits="userSpaceOnUse">
<stop stop-color="#FFB870"/>
<stop offset="1" stop-color="#FFE2C4"/>
</linearGradient>
<linearGradient id="paint8_linear_82_8" x1="68.6139" y1="122.892" x2="126.344" y2="122.892" gradientUnits="userSpaceOnUse">
<stop stop-color="#FFB870"/>
<stop offset="1" stop-color="#FFE2C4"/>
</linearGradient>
</defs>
</svg>
