<svg width="588" height="114" viewBox="0 0 588 114" fill="none" xmlns="http://www.w3.org/2000/svg">
<path d="M6.91 45.1399L48.66 58.4199C49.19 58.5899 49.76 58.6799 50.34 58.6799H52.84C53.42 58.6799 53.99 58.5899 54.52 58.4199L96.27 45.1399C99.06 44.2499 102.17 45.7499 102.17 47.9799V94.6199C102.17 95.8299 101.2 96.9299 99.69 97.4399L54.54 112.45C53.99 112.63 53.4 112.73 52.8 112.73H50.35C49.76 112.73 49.18 112.64 48.64 112.46L3.51 97.7799C1.99 97.2799 1 96.1799 1 94.9499V47.9799C1 45.7499 4.11 44.2599 6.9 45.1399H6.91Z" fill="#0E1366" stroke="#1E1F53" stroke-miterlimit="10"/>
<path d="M52.8496 58.1799H49.7496C49.5287 58.1799 49.3496 58.359 49.3496 58.5799V112.94C49.3496 113.161 49.5287 113.34 49.7496 113.34H52.8496C53.0705 113.34 53.2496 113.161 53.2496 112.94V58.5799C53.2496 58.359 53.0705 58.1799 52.8496 58.1799Z" fill="white"/>
<path d="M51.5896 50.48C65.5293 50.48 76.8296 39.1797 76.8296 25.24C76.8296 11.3003 65.5293 0 51.5896 0C37.6499 0 26.3496 11.3003 26.3496 25.24C26.3496 39.1797 37.6499 50.48 51.5896 50.48Z" fill="#1B68E2"/>
<path d="M176.56 68.4101H143.34V86.0601H179.99L178.21 98.3701H128.76V28.9001H178.02V41.2101H143.34V56.1001H176.56V68.4101Z" fill="#0E1366" stroke="#1E1F53" stroke-miterlimit="10"/>
<path d="M237.1 24.8201V84.0401C237.1 88.7901 237.1 93.6001 237.2 98.3701H223.31C223.02 96.8101 222.74 94.1101 222.65 92.9201C220.13 97.0301 215.64 99.5801 207.85 99.5801C194.66 99.5801 186.27 88.9901 186.27 72.7201C186.27 56.4501 195.19 45.0001 209.96 45.0001C217.46 45.0001 221.5 47.6501 222.65 49.9901V24.8201H237.09H237.1ZM201.11 72.3501C201.11 82.5201 205.07 88.0201 212.14 88.0201C222.07 88.0201 223.21 79.7401 223.21 72.2401C223.21 63.3201 221.95 56.5701 212.51 56.5701C204.93 56.5701 201.11 62.4901 201.11 72.3401V72.3501Z" fill="#0E1366" stroke="#1E1F53" stroke-miterlimit="10"/>
<path d="M295.84 83.22C295.84 88.25 295.85 93.71 295.94 98.38H281.79C281.59 96.98 281.49 94.19 281.4 92.36C278.31 97.6 273.7 99.59 267.04 99.59C256.41 99.59 249.63 93.13 249.63 80.2V46.22H264.06V77.3C264.06 83.06 265.85 87.82 272.1 87.82C278.68 87.82 281.41 84.31 281.41 73.98V46.22H295.85V83.22H295.84Z" fill="#0E1366" stroke="#1E1F53" stroke-miterlimit="10"/>
<path d="M324.72 70.5702V98.3802H310.04V28.9102H340.57C355.72 28.9102 363.87 37.2502 363.87 47.9802C363.87 57.3002 358.8 62.3502 353.77 64.4202C357.21 65.6902 362.4 69.2702 362.4 81.7102V85.1402C362.4 89.8102 362.44 95.1302 363.4 98.3902H349.16C347.94 95.3702 347.71 90.1702 347.71 82.7902V81.7702C347.71 74.1702 345.79 70.5802 334.6 70.5802H324.72V70.5702ZM324.72 58.6102H337.31C345.54 58.6102 348.71 55.4802 348.71 49.6702C348.71 43.8602 345.02 40.8602 337.67 40.8602H324.72V58.6102Z" fill="#0E1366" stroke="#1E1F53" stroke-miterlimit="10"/>
<path d="M385.84 75.39C385.85 81.91 389.12 88.29 396.31 88.29C402.32 88.29 404.04 85.88 405.41 82.72H419.86C418.01 89.1 412.31 99.59 395.93 99.59C379.55 99.59 371.3 86.74 371.3 73.06C371.3 56.7 379.7 45.01 396.45 45.01C414.36 45.01 420.45 57.97 420.45 70.99C420.45 72.76 420.45 73.9 420.26 75.39H385.84ZM405.98 66.52C405.88 60.45 403.45 55.34 396.42 55.34C389.39 55.34 386.72 60.11 386.14 66.52H405.98Z" fill="#0E1366" stroke="#1E1F53" stroke-miterlimit="10"/>
<path d="M473.53 84.9001C473.53 89.8701 473.93 97.1201 474.24 98.3801H460.44C460.04 97.3501 459.73 94.6001 459.71 93.2801C457.82 96.2101 454.27 99.5901 445.05 99.5901C432.47 99.5901 427.17 91.3201 427.17 83.2301C427.17 71.3501 436.71 65.8701 452 65.8701H459.44V62.6801C459.44 58.9701 458.11 55.3301 451.41 55.3301C445.31 55.3301 443.98 57.9201 443.31 61.7001H429.58C430.36 52.4301 436.09 44.9301 451.95 45.0201C465.92 45.1101 473.52 50.5701 473.52 62.9801V84.9101L473.53 84.9001ZM459.46 74.6301H453.58C444.88 74.6301 441.65 77.2901 441.65 82.3101C441.65 86.0901 443.97 89.2701 449.16 89.2701C458.34 89.2701 459.46 82.8901 459.46 76.0001V74.6301Z" fill="#0E1366" stroke="#1E1F53" stroke-miterlimit="10"/>
<path d="M531.46 81.52C529.66 90.21 523.55 99.58 508.01 99.58C492.47 99.58 483.43 88.35 483.43 72.67C483.43 56.99 492.83 45 508.7 45C526.29 45 531.17 57.62 531.46 63.52H517.36C516.47 59.27 514.06 56.3 508.42 56.3C501.82 56.3 498.08 62.09 498.08 72.2C498.08 83.3 502.04 88.37 508.36 88.37C513.32 88.37 515.98 85.44 517.27 81.52H531.46Z" fill="#0E1366" stroke="#1E1F53" stroke-miterlimit="10"/>
<path d="M554.75 24.8201V52.3801C557.04 49.0001 561.27 45.0101 569.69 45.0101C579.42 45.0101 587.16 50.7701 587.16 64.9101V98.3701H572.81V67.0701C572.81 60.2901 570.4 56.6801 564.35 56.6801C556.33 56.6801 554.75 62.6501 554.75 70.7001V98.3701H540.31V24.8101H554.75V24.8201Z" fill="#0E1366" stroke="#1E1F53" stroke-miterlimit="10"/>
</svg>
