<svg width="275" height="54" viewBox="0 0 275 54" fill="none" xmlns="http://www.w3.org/2000/svg">
<path d="M3.75273 21.111L23.2318 27.3205C23.4791 27.4 23.745 27.4421 24.0156 27.4421H25.182C25.4527 27.4421 25.7186 27.4 25.9659 27.3205L45.4449 21.111C46.7467 20.6949 48.1977 21.3963 48.1977 22.439V44.2468C48.1977 44.8126 47.7451 45.3269 47.0406 45.5654L25.9752 52.5837C25.7186 52.6679 25.4433 52.7147 25.1634 52.7147H24.0203C23.745 52.7147 23.4744 52.6726 23.2225 52.5884L2.17108 45.715C1.4619 45.4812 1 44.9669 1 44.3918V22.4296C1 21.3869 2.45102 20.6902 3.75273 21.1017V21.111Z" fill="white" stroke="white" stroke-miterlimit="10"/>
<path d="M25.1872 27.2085H23.7408C23.6378 27.2085 23.5542 27.2922 23.5542 27.3955V52.8131C23.5542 52.9164 23.6378 53.0001 23.7408 53.0001H25.1872C25.2902 53.0001 25.3738 52.9164 25.3738 52.8131V27.3955C25.3738 27.2922 25.2902 27.2085 25.1872 27.2085Z" fill="white"/>
<path d="M24.5988 23.6034C31.1026 23.6034 36.3749 18.3196 36.3749 11.8017C36.3749 5.28379 31.1026 0 24.5988 0C18.0951 0 12.8228 5.28379 12.8228 11.8017C12.8228 18.3196 18.0951 23.6034 24.5988 23.6034Z" fill="white"/>
<path d="M82.9058 31.9921H67.4065V40.2448H84.5061L83.6756 46.0007H60.604V13.5181H83.587V19.274H67.4065V26.2362H82.9058V31.9921Z" fill="white" stroke="white" stroke-miterlimit="10"/>
<path d="M111.152 11.6099V39.2999C111.152 41.5208 111.152 43.7699 111.199 46.0002H104.718C104.583 45.2708 104.452 44.0084 104.41 43.4519C103.234 45.3737 101.14 46.566 97.505 46.566C91.351 46.566 87.4365 41.6144 87.4365 34.0069C87.4365 26.3994 91.5983 21.0456 98.4894 21.0456C101.989 21.0456 103.874 22.2847 104.41 23.3788V11.6099H111.147H111.152ZM94.3603 33.8292C94.3603 38.5845 96.2079 41.1561 99.5066 41.1561C104.14 41.1561 104.671 37.2846 104.671 33.7777C104.671 29.607 104.084 26.4508 99.6792 26.4508C96.1426 26.4508 94.3603 29.2189 94.3603 33.8245V33.8292Z" fill="white" stroke="white" stroke-miterlimit="10"/>
<path d="M138.558 38.9166C138.558 41.2685 138.562 43.8215 138.604 46.0051H132.002C131.909 45.3505 131.862 44.0459 131.82 43.1903C130.379 45.6404 128.228 46.5709 125.12 46.5709C120.161 46.5709 116.998 43.5503 116.998 37.5045V21.6162H123.73V36.1485C123.73 38.8418 124.565 41.0675 127.481 41.0675C130.551 41.0675 131.825 39.4263 131.825 34.5962V21.6162H138.562V38.9166H138.558Z" fill="white" stroke="white" stroke-miterlimit="10"/>
<path d="M152.033 33.0021V46.0054H145.184V13.5181H159.428C166.496 13.5181 170.299 17.4177 170.299 22.4348C170.299 26.7926 167.933 29.1539 165.586 30.1218C167.191 30.7156 169.613 32.3895 169.613 38.2062V39.81C169.613 41.9936 169.632 44.4811 170.079 46.0054H163.436C162.866 44.5933 162.759 42.1619 162.759 38.7112V38.2343C162.759 34.6807 161.863 33.0021 156.642 33.0021H152.033ZM152.033 27.4098H157.907C161.747 27.4098 163.226 25.9463 163.226 23.2297C163.226 20.513 161.504 19.1103 158.075 19.1103H152.033V27.4098Z" fill="white" stroke="white" stroke-miterlimit="10"/>
<path d="M180.549 35.2507C180.554 38.2993 182.079 41.2824 185.434 41.2824C188.238 41.2824 189.04 40.1556 189.68 38.678H196.422C195.558 41.6612 192.899 46.5661 185.257 46.5661C177.614 46.5661 173.765 40.5577 173.765 34.1612C173.765 26.5116 177.684 21.0457 185.499 21.0457C193.855 21.0457 196.697 27.1055 196.697 33.1933C196.697 34.021 196.697 34.554 196.608 35.2507H180.549ZM189.946 31.1079C189.899 28.2697 188.765 25.8804 185.485 25.8804C182.205 25.8804 180.96 28.1108 180.689 31.1079H189.946Z" fill="white" stroke="white" stroke-miterlimit="10"/>
<path d="M221.461 39.7023C221.461 42.0262 221.648 45.4161 221.793 46.0053H215.354C215.168 45.5237 215.023 44.2378 215.014 43.6206C214.132 44.9906 212.475 46.5711 208.174 46.5711C202.304 46.5711 199.832 42.7042 199.832 38.9215C199.832 33.3666 204.283 30.8043 211.416 30.8043H214.888V29.3127C214.888 27.578 214.267 25.876 211.141 25.876C208.295 25.876 207.674 27.0871 207.362 28.8545H200.956C201.32 24.5201 203.993 21.0132 211.393 21.0553C217.911 21.0974 221.457 23.6504 221.457 29.453V39.707L221.461 39.7023ZM214.897 34.9003H212.154C208.094 34.9003 206.587 36.1441 206.587 38.4913C206.587 40.2587 207.67 41.7456 210.091 41.7456C214.374 41.7456 214.897 38.7625 214.897 35.5409V34.9003Z" fill="white" stroke="white" stroke-miterlimit="10"/>
<path d="M248.489 38.1216C247.649 42.1849 244.799 46.5661 237.548 46.5661C230.298 46.5661 226.08 41.3152 226.08 33.9835C226.08 26.6519 230.466 21.0457 237.87 21.0457C246.077 21.0457 248.354 26.9465 248.489 29.7052H241.911C241.495 27.718 240.371 26.3293 237.74 26.3293C234.66 26.3293 232.915 29.0366 232.915 33.7638C232.915 38.9539 234.763 41.3245 237.712 41.3245C240.026 41.3245 241.267 39.9545 241.869 38.1216H248.489Z" fill="white" stroke="white" stroke-miterlimit="10"/>
<path d="M259.356 11.6099V24.4963C260.425 22.9159 262.398 21.0503 266.327 21.0503C270.866 21.0503 274.477 23.7435 274.477 30.3551V46.0002H267.782V31.365C267.782 28.1949 266.658 26.5069 263.835 26.5069C260.093 26.5069 259.356 29.2984 259.356 33.0624V46.0002H252.619V11.6099H259.356Z" fill="white" stroke="white" stroke-miterlimit="10"/>
</svg>
