<svg width="553" height="349" viewBox="0 0 553 349" fill="none" xmlns="http://www.w3.org/2000/svg">
<path d="M547.281 249.027C553.204 229.861 554.586 209.457 550.33 189.846C543.693 159.168 522.32 122.028 460.647 106.006C343.889 75.6615 303.351 -13.0695 194.12 15.1949C194.12 15.1949 135.511 25.8496 107.771 122.838C80.0308 219.825 -28.6599 221.477 8.75068 305.921C14.864 319.719 31.3463 334.788 54.9899 349L497.93 347.507C528.544 310.7 538.072 278.863 547.281 249.011V249.027Z" fill="#FFF6F2"/>
<path d="M442.765 179.652H426.14V161.471C426.14 152.34 419.789 144.719 411.262 142.734V120.17H405.148V142.305C395.335 143.194 387.65 151.419 387.65 161.471V180.192H371.12V201.041H370.008V239.801L339.966 239.579V193.26H305.54V227.209H281.389V260.19H252.188V347.476H349.191H370.024H491.656V237.403H442.749L442.797 179.652H442.765Z" fill="#FFF6F2"/>
<path d="M99.8503 227.639V184.242H116.11V161.043H122.224V184.242H137.213V227.639H154.029V253.632H180.832V165.076H236.774V347.476H200.316H184.612H145.089H126.844H79.1602V227.639H99.8503Z" fill="#FFF6F2"/>
<path d="M405.481 347.033L150.498 347.24C140.844 347.24 133 339.427 133 329.773L422.964 329.551C422.964 339.205 415.151 347.049 405.497 347.049L405.481 347.033Z" fill="#1C8B8E"/>
<path d="M405.481 341.016L150.498 341.222C142.956 341.222 136.557 336.458 134.095 329.773H133.016C133.016 339.428 140.86 347.256 150.514 347.24L405.496 347.034C415.151 347.034 422.979 339.189 422.963 329.535H421.883C419.438 336.22 413.039 341.016 405.496 341.016H405.481Z" fill="#1C8B8E"/>
<path d="M294.452 335.49L261.504 335.522C258.265 335.522 255.645 332.902 255.645 329.678L300.296 329.646C300.296 332.886 297.676 335.506 294.452 335.506V335.49Z" fill="#40403E"/>
<path d="M408.035 329.55L147.924 329.756L147.797 172.746C147.797 163.743 155.085 156.439 164.089 156.423L391.585 156.248C400.588 156.248 407.892 163.536 407.908 172.54L408.035 329.534V329.55Z" fill="#2B8B8E"/>
<path d="M394.428 169.904H161.406V316.085H394.428V169.904Z" fill="#3FABAE"/>
<path d="M394.475 302.109H161.453V316.083H394.475V302.109Z" fill="#40403E"/>
<path d="M394.366 169.904H161.344V176.843H394.366V169.904Z" fill="#40403E"/>
<path opacity="0.16" d="M239.054 169.934L161.406 247.709L161.454 316.178H161.629L307.698 169.887L239.054 169.934Z" fill="#F3FFFF"/>
<path opacity="0.16" d="M191.543 316.166L225.952 316.134L372.022 169.826L337.612 169.874L191.543 316.166Z" fill="#F3FFFF"/>
<path opacity="0.16" d="M367.065 316.022L394.456 288.583L394.408 236.691L312.203 316.054L367.065 316.022Z" fill="#F3FFFF"/>
<path d="M408.039 232.338H147.801V261.063H408.039V232.338Z" fill="#FF611A"/>
<mask id="mask0_608_8698" style="mask-type:luminance" maskUnits="userSpaceOnUse" x="147" y="232" width="262" height="30">
<path d="M408.035 232.336H147.797V261.061H408.035V232.336Z" fill="white"/>
</mask>
<g mask="url(#mask0_608_8698)">
<path d="M180.268 271.142H157.863L177.14 227.047H199.529L180.268 271.142Z" fill="white"/>
<path d="M228.01 271.142H205.621L224.882 227.047H247.287L228.01 271.142Z" fill="white"/>
<path d="M275.76 271.142H253.371L272.648 227.047H295.037L275.76 271.142Z" fill="white"/>
<path d="M323.51 271.142H301.121L320.398 227.047H342.787L323.51 271.142Z" fill="white"/>
<path d="M371.256 271.142H348.867L368.144 227.047H390.533L371.256 271.142Z" fill="white"/>
</g>
<path d="M126.905 182.727L121.823 182.917L118.838 181.98C117.473 181.552 115.98 182.06 115.17 183.251L114.789 183.806L129.668 192.016L132.542 185.855L126.889 182.727H126.905Z" fill="#40403E"/>
<path d="M129.685 192.159L114.695 183.886L115.219 182.933C115.33 182.742 115.553 182.679 115.743 182.774L130.399 190.872L129.685 192.159Z" fill="#40403E"/>
<path d="M132.559 185.871L136.481 179.059L132.559 172.041L126.906 182.727L132.559 185.871Z" fill="#FFC3BC"/>
<path d="M163.332 146.762C163.332 146.762 142.134 140.68 140.101 146.397C138.053 152.113 125.699 177.44 125.699 177.44L134.925 182.251L148.771 158.21L167.397 156.591L163.348 146.762H163.332Z" fill="#40403E"/>
<path d="M146.111 190.449L141.966 193.085L138.902 193.705C137.489 193.99 136.441 195.165 136.314 196.595L136.25 197.261L153.24 197.23L152.764 190.434H146.111V190.449Z" fill="#40403E"/>
<path d="M153.317 197.355L136.199 197.387V196.307C136.199 196.101 136.374 195.926 136.58 195.926L153.317 195.895V197.371" fill="#40403E"/>
<path d="M152.775 190.464L153.314 179.063L146.55 178.301L146.105 190.448L152.775 190.464Z" fill="#FFC3BC"/>
<path d="M166.211 145.78L146.236 146.685C146.236 146.685 143.361 146.843 143.552 153.56C143.743 160.293 143.727 187.35 143.727 187.35L153.318 187.684L155.159 159.34L175.151 159.086C179.359 159.038 183.281 156.625 184.948 152.75C185.583 151.274 185.885 149.606 185.504 147.86L166.211 145.764V145.78Z" fill="#40403E"/>
<path d="M147.25 141.76C147.25 143.649 145.964 143.935 144.075 143.951C142.185 143.951 140.391 143.681 140.391 141.776C140.391 139.886 141.915 138.346 143.82 138.33C145.71 138.33 147.25 139.854 147.266 141.76H147.25Z" fill="#E2C8BF"/>
<path d="M149.66 143.697H145.69C144.658 143.697 143.801 142.855 143.801 141.823C143.801 140.791 144.642 139.934 145.674 139.934H149.644C150.676 139.934 151.534 140.775 151.534 141.807C151.534 142.839 150.692 143.697 149.66 143.697Z" fill="#E2C8BF"/>
<path d="M149.505 144.096L148.188 137.601L164.495 135.823L167.75 116.768C168.084 115.037 170.593 112.894 172.323 113.211L171.831 113.068C173.562 113.402 175.15 115.403 174.832 117.133L171.656 139.935C171.418 141.158 170.497 142.143 169.275 142.444L149.521 144.096H149.505Z" fill="#D6F7F7"/>
<path d="M182.09 113.64C182.423 113.672 182.757 113.735 183.074 113.862L183.233 113.926C186.028 115.022 187.933 118.023 188.06 120.833L185.504 147.875C168.609 147.732 166.211 145.779 166.211 145.779L167.561 118.118C167.767 115.514 168.958 113.053 171.927 112.814L182.09 113.64Z" fill="#F3FFFF"/>
<path d="M163.481 143.871C163.608 145.761 162.353 146.126 160.464 146.269C158.574 146.396 156.764 146.237 156.637 144.347C156.51 142.458 157.939 140.822 159.828 140.695C161.718 140.568 163.354 141.997 163.481 143.887V143.871Z" fill="#FFC3BC"/>
<path d="M166.005 145.648L162.051 145.918C161.019 145.981 160.114 145.203 160.035 144.171C159.971 143.139 160.749 142.234 161.782 142.154L165.735 141.884C166.768 141.821 167.673 142.599 167.736 143.631C167.8 144.663 167.022 145.568 165.989 145.648H166.005Z" fill="#FFC3BC"/>
<path d="M165.883 146.063L164.137 139.68L181.905 136.822L180.889 120.292C181.095 118.545 183.017 116.576 184.763 116.783C186.51 116.989 188.241 118.894 188.018 120.641L189.305 140.442C189.146 141.681 188.288 142.729 187.098 143.094L165.883 146.047V146.063Z" fill="#F3FFFF"/>
<path d="M135.135 124.106L154.523 125.932C155.159 125.995 155.667 126.487 155.746 127.123L157.779 144.605C157.874 145.463 157.159 146.193 156.302 146.114L136.58 144.256C135.929 144.192 135.421 143.684 135.358 143.033L133.643 125.582C133.563 124.741 134.278 124.026 135.119 124.106H135.135Z" fill="#091218"/>
<path d="M134.026 124.01L153.414 125.836C154.049 125.9 154.557 126.392 154.637 127.027L156.669 144.51C156.765 145.367 156.05 146.097 155.192 146.018L135.471 144.16C134.82 144.097 134.312 143.589 134.248 142.938L132.533 125.487C132.454 124.645 133.169 123.931 134.01 124.01H134.026Z" fill="#40403E"/>
<path d="M157.238 144.734L170.481 145.989C170.878 146.021 171.179 146.386 171.147 146.783C171.116 147.18 170.751 147.481 170.354 147.45L156.301 146.179L157.238 144.734Z" fill="#091218"/>
<path d="M145.122 134.601C145.011 135.76 143.979 136.618 142.804 136.522C141.644 136.411 140.787 135.379 140.882 134.204C140.993 133.045 142.026 132.187 143.201 132.283C144.36 132.394 145.217 133.426 145.122 134.601Z" fill="white"/>
<path d="M180.278 124.104L180.706 136.521L164.129 139.681L178.737 135.108L180.278 124.104Z" fill="#D6F7F7"/>
<path d="M171.48 111.992L172.592 114.961C172.989 116.041 173.989 116.771 175.133 116.851C177.308 116.994 178.864 114.802 178.007 112.802L176.069 108.229L171.496 111.976L171.48 111.992Z" fill="#FFC3BC"/>
<path d="M172.47 114.645C172.47 114.645 177.932 113.613 177.122 108.833C176.312 104.054 171.184 107.785 171.184 107.785L171.692 112.549L172.47 114.645Z" fill="#E16C5F"/>
<path d="M164.054 100.354C162.053 104.642 163.895 109.739 168.182 111.739C172.47 113.74 177.567 111.898 179.568 107.611C181.568 103.324 179.726 98.2266 175.439 96.2258C171.152 94.2251 166.055 96.067 164.054 100.354Z" fill="#FFC3BC"/>
<mask id="mask1_608_8698" style="mask-type:luminance" maskUnits="userSpaceOnUse" x="163" y="95" width="18" height="18">
<path d="M164.054 100.356C162.053 104.644 163.895 109.741 168.182 111.741C172.47 113.742 177.567 111.9 179.568 107.613C181.568 103.326 179.726 98.2285 175.439 96.2278C171.152 94.2271 166.055 96.069 164.054 100.356Z" fill="white"/>
</mask>
<g mask="url(#mask1_608_8698)">
<path d="M174.981 105.677C174.981 105.677 173.631 112.537 178.681 112.696C183.73 112.839 180.983 99.8179 180.983 99.8179L172.996 91.7832L160.785 94.7843L161.992 102.676C161.992 102.676 163.929 103.708 174.441 101.977L174.997 105.661L174.981 105.677Z" fill="#40403E"/>
<path d="M169.996 100.309L174.013 106.168L177.475 102.357L169.996 100.309Z" fill="#40403E"/>
</g>
<path d="M173.641 104.082C173.07 105.289 173.594 106.734 174.816 107.306C176.023 107.877 177.468 107.353 178.04 106.13C178.612 104.924 178.088 103.479 176.865 102.907C175.658 102.335 174.213 102.859 173.641 104.082Z" fill="#FFC3BC"/>
<path d="M162.383 102.558C162.383 102.558 160.525 95.8096 164.908 91.6335C168.513 88.1878 174.419 88.4101 177.627 92.2369C179.135 94.0312 180.342 96.7465 180.453 100.811L162.383 102.574V102.558Z" fill="#FF611A"/>
<path d="M163.302 102.431L163.254 98.2235C163.254 97.1596 164.08 96.2704 165.143 96.2228C166.191 96.1751 167.112 96.9532 167.208 98.0012L167.636 102.209" stroke="#FF611A" stroke-width="0.28" stroke-miterlimit="10"/>
<path d="M180.451 100.795L160.793 102.685" stroke="white" stroke-width="1.12" stroke-linecap="round" stroke-linejoin="round"/>
<path d="M359.438 328.58L363.837 332.851L358.819 335.551L354.516 331.343L359.438 328.58Z" fill="#FFC3BC"/>
<path d="M328.41 296.697L331.348 309.733C331.935 312.338 333.079 314.846 334.698 317.149L354.086 334.568L361.756 328.328L345.21 310.797L339.144 287.678L328.41 296.697Z" fill="#40403E"/>
<path d="M358.676 335.442L357.088 340.507L355.278 343.032C354.436 344.191 354.468 345.763 355.357 346.89L355.77 347.414L368.14 335.886L363.202 331.266L358.692 335.442H358.676Z" fill="#40403E"/>
<path d="M368.254 335.917L355.789 347.541L354.789 346.461L367.254 334.854L368.254 335.917Z" fill="#40403E"/>
<path d="M317.035 336.519L315.384 342.029L309.715 340.505L311.366 335.09L317.035 336.519Z" fill="#FFC3BC"/>
<path d="M324.66 282.15L308.766 335.9L318.801 338.409L327.757 311.463L338.745 293.837C339.301 293.043 339.856 292.233 340.317 291.376C341.19 289.756 341.587 288.01 341.571 286.247L341.54 282.754L324.676 282.166L324.66 282.15Z" fill="#40403E"/>
<path d="M310.033 339.98L305.015 341.838L301.887 341.949C300.442 341.997 299.22 342.997 298.854 344.379L298.68 345.03L315.48 347.793L316.131 340.997L310.017 339.98H310.033Z" fill="#40403E"/>
<path d="M315.544 347.904L298.617 345.125L298.855 343.664L315.782 346.459L315.544 347.904Z" fill="#40403E"/>
<path d="M302.466 227.561L296.035 237.596L299.116 239.803L305.769 229.196L302.466 227.561Z" fill="#3FABAE"/>
<path d="M294.114 210.949C294.114 210.949 297.084 223.382 312.137 228.273C312.565 228.416 312.899 228.781 312.962 229.226C313.153 230.671 313.153 233.783 309.834 234.704C309.517 234.783 309.167 234.72 308.897 234.561C306.595 233.116 295.273 226.51 284.285 228.416L294.13 210.965L294.114 210.949Z" fill="#3B4F50"/>
<path d="M294.114 210.949C294.114 210.949 291.351 223.351 284.27 228.4C284.27 228.4 285.27 217.523 294.114 210.949Z" fill="#3FABAE"/>
<path d="M293.937 236.942C293.477 239.229 295.351 242.007 297.637 242.468C299.924 242.928 302.147 241.467 302.607 239.181C303.068 236.894 301.194 234.116 298.907 233.655C296.621 233.195 294.398 234.655 293.937 236.942Z" fill="#FFC3BC"/>
<path d="M306.02 243.627L301.558 238.975L298.652 242.563L306.02 247.962" fill="#FFC3BC"/>
<path d="M305.31 239.324L300.594 246.327L313.471 258.109C314.25 258.331 315.075 258.411 315.885 258.347L332.891 256.14C335.575 256.013 337.639 253.742 337.512 251.059C337.385 248.375 337.893 244.501 335.225 244.628L315.472 248.693L305.31 239.324Z" fill="#D6F7F7"/>
<path d="M343.454 255.397C343.914 251.681 342.215 248.013 339.071 245.981C337.658 245.076 336.245 244.456 335.244 244.631C331.862 245.203 328.369 246.743 326.876 251.316C324.336 259.097 323.621 282.105 323.621 282.105L341.85 282.724L343.47 255.381L343.454 255.397Z" fill="#F3FFFF"/>
<path d="M336.723 255.982L342.201 276.117L343.312 259.031L336.723 255.982Z" fill="#D6F7F7"/>
<path d="M359.057 295.711C360.771 294.139 360.899 290.788 359.342 289.073C357.77 287.343 355.103 287.231 353.388 288.788C351.657 290.36 351.546 293.71 353.102 295.425C354.674 297.14 357.342 297.267 359.057 295.711Z" fill="#FFC3BC"/>
<path d="M350.785 281.373L354.104 289.566L358.566 288.391L355.803 279.689" fill="#FFC3BC"/>
<path d="M350.987 287.691L360.117 285.691L353.925 264.524C353.702 263.746 353.321 263 352.829 262.349L341.46 248.201C339.919 245.994 337.331 246.391 335.14 247.931C332.933 249.471 332.409 252.488 333.933 254.695L344.874 267.859L350.971 287.707L350.987 287.691Z" fill="#F3FFFF"/>
<path d="M330.965 241.865L331.314 245.057C331.441 246.216 332.219 247.184 333.331 247.534C335.427 248.217 337.491 246.454 337.158 244.279L336.395 239.309L330.981 241.849L330.965 241.865Z" fill="#FFC3BC"/>
<path d="M331.266 244.708C331.266 244.708 336.887 244.518 337.299 239.643C337.696 234.768 331.726 237.674 331.726 237.674L331.027 242.469L331.266 244.708Z" fill="#E16C5F"/>
<path d="M326.569 228.606C323.536 232.306 324.076 237.768 327.776 240.801C331.476 243.834 336.938 243.294 339.971 239.594C343.004 235.894 342.464 230.432 338.764 227.399C335.064 224.366 329.602 224.906 326.569 228.606Z" fill="#FFC3BC"/>
<mask id="mask2_608_8698" style="mask-type:luminance" maskUnits="userSpaceOnUse" x="324" y="225" width="18" height="18">
<path d="M326.573 228.606C323.54 232.306 324.08 237.768 327.78 240.801C331.48 243.834 336.942 243.294 339.975 239.594C343.008 235.894 342.468 230.432 338.768 227.399C335.068 224.366 329.606 224.906 326.573 228.606Z" fill="white"/>
</mask>
<g mask="url(#mask2_608_8698)">
<path d="M335.969 236.546C335.969 236.546 332.936 242.945 337.843 244.342C342.749 245.739 343.305 232.29 343.305 232.29L337.477 222.429L324.759 222.334L323.98 230.385C323.98 230.385 325.632 231.877 336.35 232.798L335.969 236.546Z" fill="#40403E"/>
<path d="M332.41 230.035L334.887 236.8L339.222 233.91L332.41 230.035Z" fill="#40403E"/>
</g>
<path d="M335.049 234.64C334.191 235.688 334.35 237.228 335.398 238.086C336.446 238.943 337.986 238.785 338.844 237.737C339.701 236.689 339.542 235.148 338.494 234.291C337.446 233.433 335.906 233.592 335.049 234.64Z" fill="#FFC3BC"/>
<path d="M324.333 231.1C324.333 231.1 323.904 224.034 329.112 220.811C333.4 218.159 339.195 219.604 341.577 224.066C342.689 226.162 343.324 229.084 342.593 233.133L324.349 231.1H324.333Z" fill="#FF611A"/>
<path d="M325.285 231.179L326.111 227.003C326.317 225.939 327.334 225.241 328.397 225.415C329.445 225.59 330.192 226.559 330.065 227.607L329.604 231.862" stroke="#FF611A" stroke-width="0.28" stroke-miterlimit="10"/>
<path d="M342.591 233.118L322.742 230.895" stroke="white" stroke-width="1.13" stroke-linecap="round" stroke-linejoin="round"/>
<path d="M462.075 284.502L441.527 304.747" stroke="#40403E" stroke-width="2.65" stroke-miterlimit="10"/>
<path d="M462.075 262.859L441.527 283.105" stroke="#40403E" stroke-width="2.65" stroke-miterlimit="10"/>
<path d="M462.075 241.217L441.527 261.478" stroke="#40403E" stroke-width="2.65" stroke-miterlimit="10"/>
<path d="M462.075 219.59L441.527 239.835" stroke="#40403E" stroke-width="2.65" stroke-miterlimit="10"/>
<path d="M462.075 197.945L441.527 218.191" stroke="#40403E" stroke-width="2.65" stroke-miterlimit="10"/>
<path d="M462.075 176.32L441.527 196.566" stroke="#40403E" stroke-width="2.65" stroke-miterlimit="10"/>
<path d="M462.075 154.676L441.527 174.921" stroke="#40403E" stroke-width="2.65" stroke-miterlimit="10"/>
<path d="M462.075 133.051L441.527 153.296" stroke="#40403E" stroke-width="2.65" stroke-miterlimit="10"/>
<path d="M462.075 111.406L441.527 131.652" stroke="#40403E" stroke-width="2.65" stroke-miterlimit="10"/>
<path d="M462.075 89.7637L441.527 110.009" stroke="#40403E" stroke-width="2.65" stroke-miterlimit="10"/>
<path d="M462.075 68.1367L441.527 88.3822" stroke="#40403E" stroke-width="2.65" stroke-miterlimit="10"/>
<path d="M441.527 283.107H462.075" stroke="#40403E" stroke-width="2.65" stroke-miterlimit="10"/>
<path d="M441.527 261.477H462.075" stroke="#40403E" stroke-width="2.65" stroke-miterlimit="10"/>
<path d="M441.527 239.836H462.075" stroke="#40403E" stroke-width="2.65" stroke-miterlimit="10"/>
<path d="M441.527 218.193H462.075" stroke="#40403E" stroke-width="2.65" stroke-miterlimit="10"/>
<path d="M441.527 196.566H462.075" stroke="#40403E" stroke-width="2.65" stroke-miterlimit="10"/>
<path d="M441.527 174.922H462.075" stroke="#40403E" stroke-width="2.65" stroke-miterlimit="10"/>
<path d="M441.527 153.295H462.075" stroke="#40403E" stroke-width="2.65" stroke-miterlimit="10"/>
<path d="M441.527 131.652H462.075" stroke="#40403E" stroke-width="2.65" stroke-miterlimit="10"/>
<path d="M441.527 110.008H462.075" stroke="#40403E" stroke-width="2.65" stroke-miterlimit="10"/>
<path d="M441.527 88.3809H462.075" stroke="#40403E" stroke-width="2.65" stroke-miterlimit="10"/>
<path d="M441.527 310.606V71.5977" stroke="#40403E" stroke-width="2.65" stroke-miterlimit="10"/>
<path d="M462.07 310.606V71.5977" stroke="#40403E" stroke-width="2.65" stroke-miterlimit="10"/>
<path d="M471.838 304.746H430.934V347.238H471.838V304.746Z" fill="#40403E"/>
<path d="M440.746 31.1191H462.119C465.882 31.1191 468.947 34.1838 468.947 37.947V64.7664C468.947 68.5297 465.882 71.5943 462.119 71.5943H440.746C436.983 71.5943 433.918 68.5297 433.918 64.7664V37.947C433.918 34.1838 436.983 31.1191 440.746 31.1191Z" fill="#FF611A"/>
<path d="M437.113 40.8711H450.88C453.738 40.8711 456.057 43.1894 456.057 46.0476V54.6381C456.057 57.4962 453.738 59.8146 450.88 59.8146H437.113V40.887V40.8711Z" fill="#F6D8CA"/>
<path d="M306.027 73.8066L322.446 121.523" stroke="#40403E" stroke-width="2.16" stroke-miterlimit="10"/>
<path d="M294.594 68.1367L262.551 111.407" stroke="#40403E" stroke-width="2.16" stroke-miterlimit="10"/>
<path d="M243.599 135.67L276.706 178.957C280.351 183.722 287.167 184.63 291.932 180.986L335.219 147.878C339.983 144.234 340.891 137.418 337.247 132.653L304.14 89.3663C300.496 84.6017 293.679 83.6934 288.915 87.3375L245.628 120.445C240.863 124.089 239.955 130.906 243.599 135.67Z" fill="#FF611A"/>
<path d="M252.108 135.399L279.205 170.828C282.183 174.722 287.754 175.465 291.648 172.486L327.077 145.389C330.971 142.411 331.713 136.84 328.735 132.946L301.638 97.517C298.66 93.6232 293.089 92.8808 289.195 95.859L253.766 122.956C249.872 125.935 249.13 131.505 252.108 135.399Z" stroke="#40403E" stroke-width="1.11" stroke-miterlimit="10"/>
<path d="M293.26 150.309C292.403 156.74 282.653 155.438 283.51 149.007C284.368 142.529 294.133 143.831 293.26 150.309ZM297.452 114.407L293.625 141.417L285.416 140.321C286.623 131.239 287.639 122.394 288.862 113.248L297.452 114.391V114.407Z" fill="#40403E"/>
<path d="M301.345 77.82C308.93 77.82 315.08 71.6705 315.08 64.0848C315.08 56.4991 308.93 50.3496 301.345 50.3496C293.759 50.3496 287.609 56.4991 287.609 64.0848C287.609 71.6705 293.759 77.82 301.345 77.82Z" fill="#40403E"/>
<path d="M311.045 64.085C311.045 69.4521 306.694 73.8029 301.327 73.8029C295.96 73.8029 291.609 69.4521 291.609 64.085C291.609 58.718 295.96 54.3672 301.327 54.3672C306.694 54.3672 311.045 58.718 311.045 64.085Z" fill="#3FABAE"/>
<path d="M355.207 2V31.1218" stroke="#40403E" stroke-width="2.65" stroke-miterlimit="10"/>
<path d="M329.082 2V31.1218" stroke="#40403E" stroke-width="2.65" stroke-miterlimit="10"/>
<path d="M381.215 2V31.1218" stroke="#40403E" stroke-width="2.65" stroke-miterlimit="10"/>
<path d="M410.133 2V31.1218" stroke="#40403E" stroke-width="2.65" stroke-miterlimit="10"/>
<path d="M437.109 2V31.1218" stroke="#40403E" stroke-width="2.65" stroke-miterlimit="10"/>
<path d="M465.07 2V31.1218" stroke="#40403E" stroke-width="2.65" stroke-miterlimit="10"/>
<path d="M492.539 2V31.1218" stroke="#40403E" stroke-width="2.65" stroke-miterlimit="10"/>
<path d="M327.734 31.1218L355.205 2" stroke="#40403E" stroke-width="2.65" stroke-miterlimit="10"/>
<path d="M355.207 31.1218L382.662 2" stroke="#40403E" stroke-width="2.65" stroke-miterlimit="10"/>
<path d="M382.66 31.1218L410.131 2" stroke="#40403E" stroke-width="2.65" stroke-miterlimit="10"/>
<path d="M410.133 31.1218L437.603 2" stroke="#40403E" stroke-width="2.65" stroke-miterlimit="10"/>
<path d="M437.598 31.1218L465.068 2" stroke="#40403E" stroke-width="2.65" stroke-miterlimit="10"/>
<path d="M465.07 31.1218L492.541 2" stroke="#40403E" stroke-width="2.65" stroke-miterlimit="10"/>
<path d="M301.344 31.1218H525.283L495.129 2H324.511L301.344 31.1218Z" stroke="#40403E" stroke-width="2.65" stroke-linecap="round" stroke-linejoin="round"/>
<path d="M301.344 31.123V64.0875" stroke="#40403E" stroke-width="2.65" stroke-linecap="round" stroke-linejoin="round"/>
<path d="M184.61 343.296L200.282 302.773C201.028 300.836 203.76 300.836 204.506 302.773L220.178 343.296H184.594H184.61Z" fill="#FF611A"/>
<mask id="mask3_608_8698" style="mask-type:luminance" maskUnits="userSpaceOnUse" x="184" y="301" width="37" height="43">
<path d="M184.606 343.292L200.278 302.769C201.024 300.832 203.756 300.832 204.502 302.769L220.174 343.292H184.59H184.606Z" fill="white"/>
</mask>
<g mask="url(#mask3_608_8698)">
<path d="M216.082 311.486H188.246V320.093H216.082V311.486Z" fill="#FAFAFA"/>
<path d="M218.206 327.746H186.719V336.352H218.206V327.746Z" fill="#FAFAFA"/>
</g>
<path d="M223.245 343.297H181.754V346.711H223.245V343.297Z" fill="#E77E4F"/>
<path d="M412.254 343.425L427.927 302.902C428.673 300.965 431.404 300.965 432.15 302.902L447.823 343.425H412.238H412.254Z" fill="#FF611A"/>
<mask id="mask4_608_8698" style="mask-type:luminance" maskUnits="userSpaceOnUse" x="412" y="301" width="36" height="43">
<path d="M412.262 343.425L427.934 302.902C428.681 300.965 431.412 300.965 432.158 302.902L447.831 343.425H412.246H412.262Z" fill="white"/>
</mask>
<g mask="url(#mask4_608_8698)">
<path d="M443.734 311.617H415.898V320.224H443.734V311.617Z" fill="#FAFAFA"/>
<path d="M445.859 327.877H414.371V336.483H445.859V327.877Z" fill="#FAFAFA"/>
</g>
<path d="M450.866 343.426H409.375V346.84H450.866V343.426Z" fill="#E77E4F"/>
<path d="M131.645 280.371C134.293 262.589 122.024 246.028 104.243 243.38C86.4611 240.732 69.8996 253 67.2516 270.782C64.6036 288.564 76.8719 305.125 94.6536 307.773C112.435 310.421 128.997 298.153 131.645 280.371Z" fill="#1C8B8E"/>
<path d="M99.4609 263.984V346.713" stroke="#1C8B8E" stroke-width="1.14" stroke-linecap="round" stroke-linejoin="round"/>
<path d="M86.8086 265.668L99.464 279.864" stroke="#1C8B8E" stroke-width="1.14" stroke-linecap="round" stroke-linejoin="round"/>
<path d="M110.687 279.084C109.782 279.989 99.4609 290.739 99.4609 290.739" stroke="#1C8B8E" stroke-width="1.14" stroke-linecap="round" stroke-linejoin="round"/>
<path d="M1.47656 347.508H547.55" stroke="#1C8B8E" stroke-width="1.14" stroke-linecap="round" stroke-linejoin="round"/>
</svg>
