<svg width="432" height="464" viewBox="0 0 432 464" fill="none" xmlns="http://www.w3.org/2000/svg">
<path d="M356.166 459.543C359.742 456.6 362.38 452.727 363.784 447.652C368.111 430.886 362.053 411.699 350.846 393.657C348.044 389.147 344.92 384.708 341.548 380.417C329.171 365.687 311.864 346.313 291.095 350.784C278.764 353.578 267.568 353.485 257.519 351.24C247.47 348.995 238.567 344.598 230.788 338.804C213.78 325.42 203.329 308.669 194.318 290.98C191.314 285.083 188.47 279.083 185.597 273.069C176.869 255.407 170.812 235.288 151.774 223.366C123.65 204.737 80.5032 203.703 54.8832 223.28C49.7592 227.199 45.3362 231.942 41.8752 237.559C31.4912 253.172 24.5682 283.723 24.5682 283.723C1.20316 320.98 -9.18084 366.433 9.97816 407.181C12.0922 411.833 14.9202 415.937 17.2652 420.155C24.8022 432.464 24.6622 447.363 30.0302 459.544H13.3692V463.088H417.943V459.544H356.166V459.543Z" fill="#FF611A"/>
<path d="M412.391 396.588C409.811 401.475 407.447 406.488 405.289 411.606C402.5 419.475 400.396 427.549 399.058 435.85C398.67 440.242 398.471 444.641 398.448 449.062C398.429 452.727 397.814 456.26 396.708 459.554H50.4431C47.2411 454.235 44.8161 448.929 42.4081 442.193C39.9671 435.363 39.2851 427.536 38.9271 420.327C38.1981 405.622 42.4991 389.681 49.3521 377.094C54.5901 367.472 61.9861 359.487 68.5911 350.954C71.2741 346.8 73.6141 342.428 75.6461 337.864C77.1571 333.368 78.3351 328.786 79.1411 324.078C80.6261 308.191 80.4241 291.954 84.7881 276.578C88.3831 263.912 94.4041 253.576 102.271 243.568C109.316 234.606 119.251 229.36 129.19 225.303C143.504 219.46 160.044 220.416 175.086 220.893C186.923 221.268 199.046 221.851 210.891 220.673C213.501 220.141 216.07 219.462 218.593 218.581C219.419 218.104 220.228 217.598 221.023 217.065C221.315 216.76 221.612 216.46 221.895 216.146C222.164 215.663 222.429 215.176 222.681 214.682C223.244 212.717 223.698 210.727 224.067 208.709C225.614 188.453 222.661 167.658 230.143 148.299C235.797 133.668 243.842 120.112 257.55 112.894C272.614 104.961 288.434 104.404 304.585 108.536C329.316 114.864 353.569 133.375 366.603 156.993C377.676 177.057 379.517 200.241 382.125 222.877C383.149 230.291 384.499 237.642 386.78 244.72C387.711 246.72 388.732 248.661 389.859 250.541C391.775 252.826 393.836 254.944 396.077 256.902C394.533 255.612 398.742 259.403 397.197 258.112C397.203 258.121 412.865 273.196 419.964 287.395C427.099 301.666 430.758 317.182 431.373 333.352C431.996 349.741 427.738 365.528 421.259 380.14C418.728 385.843 415.291 391.094 412.391 396.588Z" fill="white"/>
<path d="M192.565 71.166C208.863 72.149 204.15 94.839 201.469 103.756C201.185 104.699 201.899 105.647 202.884 105.647H235.589V110.395C235.589 110.395 204.299 118.197 189.715 118.197C175.131 118.197 187.274 84.065 187.274 84.065L192.565 71.166Z" fill="#09414F"/>
<path d="M131.785 62.2451C131.785 62.2451 140.431 75.1321 137.582 81.7651C132.509 93.5791 144.085 100.336 153.357 97.2281C161.478 94.5061 156.018 81.2521 158.083 73.1411C159.929 65.8901 150.12 52.5261 144.177 55.6741C138.963 58.4361 137.746 62.4041 131.785 62.2451Z" fill="#F26628"/>
<path d="M124.824 99.3841L117.412 100.067C117.312 100.086 117.209 100.088 117.108 100.074L116.077 100.793C115.246 100.675 113.337 97.8611 114.014 97.3661L115.683 95.8791C116.481 95.2961 117.058 95.7251 118 96.0241L123.971 96.8841L124.824 99.3841Z" fill="#EAC0AA"/>
<path d="M150.653 71.9939L140.86 89.1369L121.494 96.4949L121.834 99.9209C121.834 99.9209 141.521 98.8379 145.781 96.2549C150.041 93.6719 164.891 75.5539 150.653 71.9939Z" fill="#F26628"/>
<path opacity="0.3" d="M151.622 90.2589C156.457 83.8259 160.471 74.4489 150.652 71.9939L145.784 80.5149C148.593 82.9989 150.633 86.3319 151.622 90.2589Z" fill="#F26628"/>
<path d="M352.058 453.19C370.594 453.19 385.62 451.329 385.62 449.033C385.62 446.737 370.594 444.876 352.058 444.876C333.522 444.876 318.496 446.737 318.496 449.033C318.496 451.329 333.522 453.19 352.058 453.19Z" fill="#FFF6F2"/>
<path d="M232.464 437.388C289.066 437.388 334.95 435.527 334.95 433.231C334.95 430.935 289.066 429.074 232.464 429.074C175.863 429.074 129.978 430.935 129.978 433.231C129.978 435.527 175.863 437.388 232.464 437.388Z" fill="#FFF6F2"/>
<path d="M329.05 118.196H137.53C131.874 118.196 127.29 122.781 127.29 128.436V396.058C127.29 401.713 131.875 406.298 137.53 406.298H329.05C334.705 406.298 339.29 401.713 339.29 396.058V128.437C339.29 122.781 334.706 118.196 329.05 118.196Z" fill="#3FABAE"/>
<path d="M325.7 384.137L325.7 132.341L140.881 132.341L140.881 384.137H325.7Z" fill="white"/>
<path d="M325.7 135.661V132.341L140.881 132.341V135.661L325.7 135.661Z" fill="#FFF6F2"/>
<path d="M285.92 170.797H308.779V147.938H285.92V170.797Z" fill="#FFF6F2"/>
<path d="M278.3 148.029H214.487V152.61H278.3V148.029Z" fill="#3FABAE"/>
<path d="M278.3 157.077H164.483V161.658H278.3V157.077Z" fill="#3FABAE"/>
<path d="M278.301 166.037H157.34" stroke="#808080" stroke-width="1.8325" stroke-miterlimit="10"/>
<path d="M278.301 170.797H189.765" stroke="#808080" stroke-width="1.8325" stroke-miterlimit="10"/>
<path d="M180.199 202.422V204.422H178.199" stroke="#E6E6E6" stroke-miterlimit="10" stroke-linecap="round"/>
<path d="M174.427 204.422H161.226" stroke="#E6E6E6" stroke-miterlimit="10" stroke-linecap="round" stroke-dasharray="3.77 3.77"/>
<path d="M159.34 204.422H157.34V202.422" stroke="#E6E6E6" stroke-miterlimit="10" stroke-linecap="round"/>
<path d="M157.34 198.65V185.449" stroke="#E6E6E6" stroke-miterlimit="10" stroke-linecap="round" stroke-dasharray="3.77 3.77"/>
<path d="M157.34 183.564V181.564H159.34" stroke="#E6E6E6" stroke-miterlimit="10" stroke-linecap="round"/>
<path d="M163.112 181.564H176.313" stroke="#E6E6E6" stroke-miterlimit="10" stroke-linecap="round" stroke-dasharray="3.77 3.77"/>
<path d="M178.199 181.564H180.199V183.564" stroke="#E6E6E6" stroke-miterlimit="10" stroke-linecap="round"/>
<path d="M180.199 187.335V200.536" stroke="#E6E6E6" stroke-miterlimit="10" stroke-linecap="round" stroke-dasharray="3.77 3.77"/>
<path d="M301.635 181.654H187.818V186.235H301.635V181.654Z" fill="#3FABAE"/>
<path d="M272.03 190.702H187.818V195.283H272.03V190.702Z" fill="#3FABAE"/>
<path d="M187.818 199.662H308.779" stroke="#808080" stroke-width="1.8325" stroke-miterlimit="10"/>
<path d="M187.818 204.422H276.354" stroke="#808080" stroke-width="1.8325" stroke-miterlimit="10"/>
<path d="M180.199 357.422V359.422H178.199" stroke="#E6E6E6" stroke-miterlimit="10" stroke-linecap="round"/>
<path d="M174.427 359.422H161.226" stroke="#E6E6E6" stroke-miterlimit="10" stroke-linecap="round" stroke-dasharray="3.77 3.77"/>
<path d="M159.34 359.422H157.34V357.422" stroke="#E6E6E6" stroke-miterlimit="10" stroke-linecap="round"/>
<path d="M157.34 353.651V340.449" stroke="#E6E6E6" stroke-miterlimit="10" stroke-linecap="round" stroke-dasharray="3.77 3.77"/>
<path d="M157.34 338.564V336.564H159.34" stroke="#E6E6E6" stroke-miterlimit="10" stroke-linecap="round"/>
<path d="M163.112 336.564H176.313" stroke="#E6E6E6" stroke-miterlimit="10" stroke-linecap="round" stroke-dasharray="3.77 3.77"/>
<path d="M178.199 336.564H180.199V338.564" stroke="#E6E6E6" stroke-miterlimit="10" stroke-linecap="round"/>
<path d="M180.199 342.335V355.536" stroke="#E6E6E6" stroke-miterlimit="10" stroke-linecap="round" stroke-dasharray="3.77 3.77"/>
<path d="M301.635 336.654H187.818V341.235H301.635V336.654Z" fill="#3FABAE"/>
<path d="M272.03 345.702H187.818V350.283H272.03V345.702Z" fill="#3FABAE"/>
<path d="M187.818 354.662H308.779" stroke="#808080" stroke-width="1.8325" stroke-miterlimit="10"/>
<path d="M187.818 359.422H276.354" stroke="#808080" stroke-width="1.8325" stroke-miterlimit="10"/>
<path d="M285.92 238.048V240.048H287.92" stroke="#E6E6E6" stroke-miterlimit="10" stroke-linecap="round"/>
<path d="M291.692 240.048H304.893" stroke="#E6E6E6" stroke-miterlimit="10" stroke-linecap="round" stroke-dasharray="3.77 3.77"/>
<path d="M306.779 240.048H308.779V238.048" stroke="#E6E6E6" stroke-miterlimit="10" stroke-linecap="round"/>
<path d="M308.779 234.276V221.075" stroke="#E6E6E6" stroke-miterlimit="10" stroke-linecap="round" stroke-dasharray="3.77 3.77"/>
<path d="M308.779 219.189V217.189H306.779" stroke="#E6E6E6" stroke-miterlimit="10" stroke-linecap="round"/>
<path d="M303.007 217.189H289.806" stroke="#E6E6E6" stroke-miterlimit="10" stroke-linecap="round" stroke-dasharray="3.77 3.77"/>
<path d="M287.92 217.189H285.92V219.189" stroke="#E6E6E6" stroke-miterlimit="10" stroke-linecap="round"/>
<path d="M285.92 222.961V236.162" stroke="#E6E6E6" stroke-miterlimit="10" stroke-linecap="round" stroke-dasharray="3.77 3.77"/>
<path d="M278.301 217.28H194.089V221.861H278.301V217.28Z" fill="#3FABAE"/>
<path d="M278.3 226.328H164.483V230.909H278.3V226.328Z" fill="#3FABAE"/>
<path d="M278.301 235.288H157.34" stroke="#808080" stroke-width="1.8325" stroke-miterlimit="10"/>
<path d="M278.301 240.048H189.765" stroke="#808080" stroke-width="1.8325" stroke-miterlimit="10"/>
<path d="M180.199 277.673V279.673H178.199" stroke="#E6E6E6" stroke-miterlimit="10" stroke-linecap="round"/>
<path d="M174.427 279.673H161.226" stroke="#E6E6E6" stroke-miterlimit="10" stroke-linecap="round" stroke-dasharray="3.77 3.77"/>
<path d="M159.34 279.673H157.34V277.673" stroke="#E6E6E6" stroke-miterlimit="10" stroke-linecap="round"/>
<path d="M157.34 273.901V260.701" stroke="#E6E6E6" stroke-miterlimit="10" stroke-linecap="round" stroke-dasharray="3.77 3.77"/>
<path d="M157.34 258.815V256.815H159.34" stroke="#E6E6E6" stroke-miterlimit="10" stroke-linecap="round"/>
<path d="M163.112 256.815H176.313" stroke="#E6E6E6" stroke-miterlimit="10" stroke-linecap="round" stroke-dasharray="3.77 3.77"/>
<path d="M178.199 256.815H180.199V258.815" stroke="#E6E6E6" stroke-miterlimit="10" stroke-linecap="round"/>
<path d="M180.199 262.586V275.787" stroke="#E6E6E6" stroke-miterlimit="10" stroke-linecap="round" stroke-dasharray="3.77 3.77"/>
<path d="M304.452 256.904H187.818V261.486H304.452V256.904Z" fill="#3FABAE"/>
<path d="M240.314 265.953H187.818V270.535H240.314V265.953Z" fill="#3FABAE"/>
<path d="M187.818 274.914H308.779" stroke="#808080" stroke-width="1.8325" stroke-miterlimit="10"/>
<path d="M187.818 279.673H276.354" stroke="#808080" stroke-width="1.8325" stroke-miterlimit="10"/>
<path d="M285.92 317.299V319.299H287.92" stroke="#E6E6E6" stroke-miterlimit="10" stroke-linecap="round"/>
<path d="M291.692 319.299H304.893" stroke="#E6E6E6" stroke-miterlimit="10" stroke-linecap="round" stroke-dasharray="3.77 3.77"/>
<path d="M306.779 319.299H308.779V317.299" stroke="#E6E6E6" stroke-miterlimit="10" stroke-linecap="round"/>
<path d="M308.779 313.527V300.326" stroke="#E6E6E6" stroke-miterlimit="10" stroke-linecap="round" stroke-dasharray="3.77 3.77"/>
<path d="M308.779 298.44V296.44H306.779" stroke="#E6E6E6" stroke-miterlimit="10" stroke-linecap="round"/>
<path d="M303.007 296.44H289.806" stroke="#E6E6E6" stroke-miterlimit="10" stroke-linecap="round" stroke-dasharray="3.77 3.77"/>
<path d="M287.92 296.44H285.92V298.44" stroke="#E6E6E6" stroke-miterlimit="10" stroke-linecap="round"/>
<path d="M285.92 302.212V315.413" stroke="#E6E6E6" stroke-miterlimit="10" stroke-linecap="round" stroke-dasharray="3.77 3.77"/>
<path d="M278.301 296.53H161.667V301.112H278.301V296.53Z" fill="#3FABAE"/>
<path d="M278.3 305.578H164.483V310.16H278.3V305.578Z" fill="#3FABAE"/>
<path d="M278.301 314.539H157.34" stroke="#808080" stroke-width="1.8325" stroke-miterlimit="10"/>
<path d="M278.301 319.299H189.765" stroke="#808080" stroke-width="1.8325" stroke-miterlimit="10"/>
<path d="M256.29 128H218.29C217.185 128 216.29 127.105 216.29 126C216.29 124.895 217.185 124 218.29 124H256.29C257.395 124 258.29 124.895 258.29 126C258.29 127.105 257.395 128 256.29 128Z" fill="#4D4D4D"/>
<path d="M210.29 128C211.395 128 212.29 127.105 212.29 126C212.29 124.895 211.395 124 210.29 124C209.185 124 208.29 124.895 208.29 126C208.29 127.105 209.185 128 210.29 128Z" fill="#4D4D4D"/>
<path d="M233.29 403C237.156 403 240.29 399.866 240.29 396C240.29 392.134 237.156 389 233.29 389C229.424 389 226.29 392.134 226.29 396C226.29 399.866 229.424 403 233.29 403Z" fill="#3FABAE"/>
<path d="M233.29 403C237.156 403 240.29 399.866 240.29 396C240.29 392.134 237.156 389 233.29 389C229.424 389 226.29 392.134 226.29 396C226.29 399.866 229.424 403 233.29 403Z" stroke="#FFF6F2" stroke-miterlimit="10"/>
<path d="M297.401 168.502L289.794 158.36L292.751 156.141L296.672 161.369L304.586 144.552L307.931 146.125L297.401 168.502Z" fill="#AFEAC1"/>
<path d="M336.72 364.498L356.575 353.171L345.248 333.316L325.393 344.643L336.72 364.498Z" fill="white"/>
<path d="M345.557 356.789L333.924 351.749L335.394 348.357L341.39 350.955L339.932 332.426L343.617 332.135L345.557 356.789Z" fill="#AFEAC1"/>
<path d="M367.974 375.859C367.974 375.859 367.387 388.675 367.06 390.31C366.733 391.944 367.974 404.911 367.974 404.911L384.059 439.125H379.592C379.592 439.125 362.511 412.647 361.463 409.051C360.415 405.455 353.748 386.823 353.748 386.823L367.974 375.859Z" fill="#808080"/>
<path opacity="0.3" d="M356.068 393.349C359.266 391.309 362.215 389.363 363.984 388.045C366.01 386.535 367.083 384.507 367.636 382.538C367.825 379.105 367.974 375.859 367.974 375.859L353.747 386.823C353.747 386.823 354.766 389.67 356.068 393.349Z" fill="#808080"/>
<path d="M362.34 325.243C368.84 330.556 372.736 337.77 371.437 347.581C370.138 357.392 366.964 364.606 367.974 375.859L351.238 372.829C351.238 372.829 353.835 353.929 352.825 346.571C351.815 339.213 351.574 333.565 354.725 330.33C357.875 327.094 362.34 325.243 362.34 325.243Z" fill="#F26628"/>
<path opacity="0.3" d="M365.666 333.009L357.275 352.053L352.987 354.184C352.829 358.114 352.434 362.467 352.058 365.982C356.942 364.327 361.905 362.428 363.791 360.998C367.974 357.825 376.607 335.689 365.666 333.009Z" fill="#F26628"/>
<path d="M361.664 317.985C361.664 317.985 359.226 322.325 362.339 325.243C356.861 333.091 354.724 330.33 354.724 330.33C354.724 330.33 356.535 326.236 352.209 324.158L361.664 317.985Z" fill="#EAC0AA"/>
<path d="M360.791 322.125C362.339 322.662 362.573 320.33 364.686 317.985C366.799 315.64 368.509 304.874 363.68 306.182C363.68 306.182 363.781 301.956 360.863 301.453C357.945 300.95 351.808 305.779 348.89 303.063C345.972 300.346 340.571 309.816 349.359 310.514C358.146 311.213 360.791 322.125 360.791 322.125Z" fill="#0C5769"/>
<path d="M349.292 309.704C349.292 309.704 349.896 314.433 347.984 316.345L349.382 318.357C349.382 318.357 348.567 323.287 349.382 324.193C350.197 325.099 360.258 324.495 360.56 321.778V320.269V318.558C360.56 318.558 361.767 318.86 362.27 316.445C362.773 314.03 360.358 314.131 360.056 314.936V310.408C360.056 310.408 357.641 313.225 354.321 310.509C351.002 307.792 349.292 309.704 349.292 309.704Z" fill="#EAC0AA"/>
<path d="M365.666 333.009L357.275 352.053L336.478 360.647L337.244 367.346C337.244 367.346 359.03 362.152 363.214 358.978C367.397 355.805 376.607 335.689 365.666 333.009Z" fill="#F26628"/>
<path d="M336.667 362.297L332.629 357.403C332.629 357.403 328.706 359.018 330.668 362.297C332.629 365.575 337.088 365.983 337.088 365.983L336.667 362.297Z" fill="#EAC0AA"/>
<path d="M367.974 375.859C367.974 375.859 367.932 382.464 362.375 386.605C356.818 390.746 341.236 402.513 341.236 402.513C341.236 402.513 337.188 438.253 337.087 438.253C336.986 438.253 333.602 437.599 333.602 437.599C333.602 437.599 328.269 401.968 331.102 397.937C333.935 393.905 351.237 372.829 351.237 372.829L367.974 375.859Z" fill="#808080"/>
<path d="M384.059 439.125L385.62 444.566L377.121 449.033H369.486C368.859 449.033 368.676 448.178 369.248 447.921L378.117 443.339L379.592 439.125H384.059Z" fill="#F26628"/>
<path d="M337.088 438.254V444.152C337.088 445.496 335.727 446.414 334.481 445.91L316.562 438.663C315.955 438.417 316.154 437.511 316.808 437.543L331.356 438.254L333.602 437.6L337.088 438.254Z" fill="#F26628"/>
<path d="M145.793 74.3349C148.712 65.5139 155.299 64.7919 162.111 65.6689C168.768 66.5259 172.248 71.0259 192.001 70.6539C192.327 70.6479 192.601 70.8659 192.522 71.1829L188.799 86.1699C188.799 86.1699 173.674 83.8989 160.73 87.9649C153.644 90.1909 151.798 85.3499 149.392 81.8279C146.844 78.0979 145.793 74.3349 145.793 74.3349Z" fill="#F26628"/>
<path d="M116.427 135.661V0" stroke="#B3B3B3" stroke-miterlimit="10"/>
<path d="M144.902 64.01C144.902 64.01 145.7 68.482 149.432 69.315C149.941 69.429 150.315 69.857 150.346 70.378C150.876 79.34 148.031 77.966 148.031 77.966C148.031 77.966 146.058 73.006 141.173 74.205L144.902 64.01Z" fill="#EAC0AA"/>
<path d="M145.45 71.12C146.775 70.04 146.323 68.5 148.538 69.025C149.298 68.013 147.261 68.177 148.362 66.238C149.92 63.493 153.186 50.918 141.067 50.918C138.106 50.918 133.484 54.538 129.847 52.905C123.637 50.117 123.053 63.456 131.784 62.245C140.517 61.034 145.45 71.12 145.45 71.12Z" fill="#F26628"/>
<path d="M131.546 61.467C131.546 61.467 132.597 66.005 132.019 68.766C131.889 69.389 132.352 69.973 132.987 69.931L133.498 69.897C133.498 69.897 133.764 74.887 134.755 75.596C135.746 76.305 145.441 73.548 145.151 70.83L144.826 69.356L144.458 67.686C144.458 67.686 145.702 67.721 145.673 65.254C145.644 62.788 143.308 63.406 143.186 64.257L142.771 62.373C142.554 61.388 141.466 60.935 140.568 61.393C139.657 61.858 138.355 62.041 136.633 61.169C132.804 59.232 131.546 61.467 131.546 61.467Z" fill="#EAC0AA"/>
<path d="M151.553 71.8471L161.004 89.5421L155.414 113.487H159.012C159.012 113.487 169.653 95.6331 169.902 90.3881C170.151 85.1421 160.627 65.1731 151.553 71.8471Z" fill="#F26628"/>
<path d="M158.822 113.487L156.146 118.196H149.544L150.263 116.286C150.612 115.359 151.381 114.654 152.334 114.385L155.526 113.486L158.822 113.487Z" fill="#EAC0AA"/>
<path d="M192.565 71.166C208.863 72.149 204.15 94.839 201.469 103.756C201.185 104.699 201.899 105.647 202.884 105.647H235.589V110.395C235.589 110.395 211.983 118.197 197.399 118.197C182.815 118.197 189.658 86.482 189.658 86.482L188.85 85.958L192.565 71.166Z" fill="#0C5769"/>
<path d="M235.59 105.646H240.697C241.656 105.646 242.378 106.518 242.2 107.46L240.169 118.196H231.69L237.117 113.487L235.591 110.394V105.646H235.59Z" fill="#808080"/>
<path d="M84.2869 372.453L105.448 363.807L96.8022 342.647L75.6417 351.292L84.2869 372.453Z" fill="#E6E6E6"/>
<path d="M94.0291 365.992L83.1511 359.48L85.0491 356.308L90.6561 359.664L91.6211 341.103L95.3131 341.294L94.0291 365.992Z" fill="#AFEAC1"/>
<path d="M94.9727 366.919L117.576 370.325L120.982 347.722L98.3787 344.316L94.9727 366.919Z" fill="white"/>
<path d="M106.646 366.351L100.635 355.189L103.889 353.436L106.988 359.19L117.319 343.738L120.392 345.793L106.646 366.351Z" fill="#AFEAC1"/>
<path d="M115.361 389.547H82.6202C79.5282 389.547 77.0212 387.04 77.0212 383.948V365.06H120.961V383.947C120.961 387.04 118.454 389.547 115.361 389.547Z" fill="#3FABAE"/>
<path d="M98.9912 324.168L76.8872 362.453H121.095L98.9912 324.168Z" stroke="#B3B3B3" stroke-miterlimit="10"/>
<path d="M120.743 365.06H77.2392C75.6822 365.06 74.4202 363.798 74.4202 362.241C74.4202 360.684 75.6822 359.422 77.2392 359.422H120.743C122.3 359.422 123.562 360.684 123.562 362.241C123.562 363.798 122.3 365.06 120.743 365.06Z" fill="#808080"/>
<path d="M98.9912 324.168V0" stroke="#B3B3B3" stroke-miterlimit="10"/>
<path d="M98.9912 327.015C98.0832 327.015 97.3472 326.279 97.3472 325.371V322.432C97.3472 321.524 98.0832 320.788 98.9912 320.788C99.8992 320.788 100.635 321.524 100.635 322.432V325.371C100.635 326.279 99.8992 327.015 98.9912 327.015Z" fill="#3FABAE"/>
<path d="M116.427 140.078C115.519 140.078 114.783 139.342 114.783 138.434V135.495C114.783 134.587 115.519 133.851 116.427 133.851C117.335 133.851 118.071 134.587 118.071 135.495V138.434C118.071 139.342 117.335 140.078 116.427 140.078Z" fill="#3FABAE"/>
</svg>
