<svg width="91" height="92" viewBox="0 0 91 92" fill="none" xmlns="http://www.w3.org/2000/svg">
<mask id="path-1-outside-1_207_1833" maskUnits="userSpaceOnUse" x="-0.755371" y="-0.00195312" width="92" height="92" fill="black">
<rect fill="white" x="-0.755371" y="-0.00195312" width="92" height="92"/>
<path d="M82.9732 63.1482C82.9732 59.7195 80.1835 56.9298 76.7548 56.9298C73.3261 56.9298 70.536 59.7195 70.536 63.1482C70.536 66.577 73.3257 69.3666 76.7548 69.3666C80.1839 69.3666 82.9732 66.577 82.9732 63.1482ZM73.0867 63.1482C73.0867 61.1257 74.7323 59.4805 76.7548 59.4805C78.7773 59.4805 80.4225 61.1257 80.4225 63.1482C80.4225 65.1707 78.7773 66.8159 76.7548 66.8159C74.7323 66.8159 73.0867 65.1707 73.0867 63.1482ZM78.1354 71.3083H75.3738C69.9474 71.3083 65.5329 75.7229 65.5329 81.1492V89.7155C65.5329 90.4197 66.104 90.9908 66.8082 90.9908H86.7013C87.4055 90.9908 87.9766 90.4197 87.9766 89.7155V81.1492C87.9766 75.7228 83.5618 71.3083 78.1354 71.3083ZM85.426 88.4402H68.0836V81.1492C68.0836 77.1294 71.354 73.8589 75.3739 73.8589H78.1355C82.1557 73.8589 85.4261 77.1293 85.4261 81.1492L85.426 88.4402ZM86.3563 44.8852V11.1452C88.5835 10.5753 90.2375 8.55705 90.2375 6.15455C90.2375 3.31145 87.924 0.998047 85.081 0.998047H29.4679C26.6248 0.998047 24.3114 3.31155 24.3114 6.15455C24.3114 8.55715 25.9654 10.5753 28.1926 11.1452V41.5004L25.5139 42.2182C24.2814 41.3421 22.9181 40.622 21.4368 40.1118C21.3034 40.0658 21.1629 40.0421 21.0217 40.0421H11.4917C11.3505 40.0421 11.21 40.0658 11.0766 40.1118C4.59763 42.3426 0.244629 48.4294 0.244629 55.2583V71.6434C0.244629 72.3476 0.815729 72.9187 1.51993 72.9187H30.9934C31.6976 72.9187 32.2687 72.3476 32.2687 71.6434V55.2583C32.2687 55.1824 32.2608 55.108 32.2597 55.0322H85.081C87.9241 55.0322 90.2375 52.7187 90.2375 49.8757C90.2375 47.4735 88.5835 45.4552 86.3563 44.8852ZM26.8619 6.15455C26.8619 4.71765 28.0309 3.54865 29.4678 3.54865H85.0809C86.5178 3.54865 87.6868 4.71765 87.6868 6.15455C87.6868 7.59145 86.5178 8.76085 85.0809 8.76085H29.4678C28.0309 8.76085 26.8619 7.59185 26.8619 6.15455ZM30.7431 11.3114H83.8056V44.7191H44.9366C44.9695 44.6601 45.0153 44.6103 45.0453 44.5494C45.4211 43.7863 45.5431 42.9123 45.4282 42.0357L53.4894 28.0732C53.8415 27.4635 53.6325 26.6833 53.0224 26.3312C52.4127 25.9806 51.6329 26.1885 51.2804 26.7982L44.0714 39.2848C43.1111 38.361 41.7114 37.8772 40.0315 38.3281L30.7432 40.8171L30.7431 11.3114ZM27.8458 44.2335L40.6915 40.7912C42.3456 40.3531 42.8067 41.899 42.8545 42.0769C42.9023 42.2548 43.2729 43.8292 41.6236 44.271L30.1558 47.3439C29.5134 46.2192 28.7404 45.1736 27.8458 44.2335ZM29.718 70.3681H2.79523V55.2583C2.79523 49.5869 6.36883 44.5234 11.7099 42.5928H20.8033C26.1444 44.5241 29.718 49.5873 29.718 55.2583V70.3681ZM85.0809 52.4816H32.0175C31.8479 51.522 31.5889 50.5899 31.2533 49.6901L40.2852 47.2699H85.0809C86.5178 47.2699 87.6868 48.4389 87.6868 49.8758C87.6868 51.3127 86.5178 52.4816 85.0809 52.4816ZM54.9055 63.1483C54.9055 59.7196 52.1158 56.9299 48.6871 56.9299C45.2584 56.9299 42.4687 59.7196 42.4687 63.1483C42.4687 66.577 45.2584 69.3667 48.6871 69.3667C52.1158 69.3667 54.9055 66.577 54.9055 63.1483ZM45.0194 63.1483C45.0194 61.1258 46.6646 59.4806 48.6871 59.4806C50.7096 59.4806 52.3548 61.1258 52.3548 63.1483C52.3548 65.1708 50.7096 66.816 48.6871 66.816C46.6646 66.816 45.0194 65.1708 45.0194 63.1483ZM50.0677 71.3084H47.3065C41.8801 71.3084 37.4652 75.723 37.4652 81.1493V89.7156C37.4652 90.4198 38.0363 90.9909 38.7405 90.9909H58.6336C59.3378 90.9909 59.9089 90.4198 59.9089 89.7156V81.1493C59.9089 75.7229 55.4941 71.3084 50.0677 71.3084ZM57.3583 88.4403H40.0159V81.1493C40.0159 77.1295 43.2863 73.859 47.3065 73.859H50.0677C54.0879 73.859 57.3583 77.1294 57.3583 81.1493V88.4403ZM16.2564 36.9633C20.9978 36.9633 24.8553 33.1058 24.8553 28.3647C24.8553 23.6236 20.9978 19.7654 16.2564 19.7654C11.515 19.7654 7.65753 23.6233 7.65753 28.3647C7.65753 33.1061 11.515 36.9633 16.2564 36.9633ZM16.2564 22.3161C19.5917 22.3161 22.3047 25.0295 22.3047 28.3648C22.3047 31.7001 19.5917 34.4127 16.2564 34.4127C12.9211 34.4127 10.2081 31.6997 10.2081 28.3648C10.2081 25.0299 12.9211 22.3161 16.2564 22.3161ZM75.6333 17.9723H38.9155C38.2113 17.9723 37.6402 17.4012 37.6402 16.697C37.6402 15.9928 38.2113 15.4217 38.9155 15.4217H75.6333C76.3375 15.4217 76.9086 15.9928 76.9086 16.697C76.9086 17.4012 76.3375 17.9723 75.6333 17.9723ZM67.1741 25.8333C67.1741 26.5375 66.603 27.1086 65.8988 27.1086H63.6639V29.3439C63.6639 30.0481 63.0928 30.6192 62.3886 30.6192C61.6844 30.6192 61.1133 30.0481 61.1133 29.3439V27.1086H58.878C58.1738 27.1086 57.6027 26.5375 57.6027 25.8333C57.6027 25.1291 58.1738 24.558 58.878 24.558H61.1133V22.3227C61.1133 21.6185 61.6844 21.0474 62.3886 21.0474C63.0928 21.0474 63.6639 21.6185 63.6639 22.3227V24.558H65.8988C66.603 24.558 67.1741 25.1291 67.1741 25.8333ZM65.7728 35.4978L64.1921 37.0785L65.7725 38.6589C66.2703 39.157 66.2703 39.9643 65.7725 40.4624C65.5234 40.7115 65.1973 40.836 64.8708 40.836C64.5443 40.836 64.2181 40.7115 63.9691 40.4624L62.3887 38.882L60.8083 40.4624C60.5592 40.7115 60.2331 40.836 59.9066 40.836C59.5801 40.836 59.2539 40.7115 59.0049 40.4624C58.5071 39.9643 58.5071 39.157 59.0049 38.6589L60.5853 37.0785L59.0046 35.4978C58.5068 34.9997 58.5068 34.1924 59.0046 33.6943C59.5027 33.1962 60.31 33.1962 60.8081 33.6943L62.3888 35.275L63.9695 33.6943C64.4676 33.1962 65.2749 33.1962 65.773 33.6943C66.2708 34.1924 66.2706 34.9997 65.7728 35.4978ZM71.5668 24.558H78.588C79.2922 24.558 79.8633 25.1291 79.8633 25.8333C79.8633 26.5375 79.2922 27.1086 78.588 27.1086H71.5668C70.8626 27.1086 70.2915 26.5375 70.2915 25.8333C70.2915 25.1291 70.8626 24.558 71.5668 24.558ZM79.8633 37.0786C79.8633 37.7828 79.2922 38.3539 78.588 38.3539H71.5668C70.8626 38.3539 70.2915 37.7828 70.2915 37.0786C70.2915 36.3744 70.8626 35.8033 71.5668 35.8033H78.588C79.2922 35.8033 79.8633 36.3744 79.8633 37.0786ZM75.1126 35.0639C74.4084 35.0639 73.8024 34.4928 73.8024 33.7886C73.8024 33.0844 74.3383 32.5133 75.0425 32.5133H75.1125C75.8167 32.5133 76.3878 33.0844 76.3878 33.7886C76.3878 34.4928 75.8168 35.0639 75.1126 35.0639ZM76.3879 40.3683C76.3879 41.0725 75.8168 41.6436 75.1126 41.6436C74.4084 41.6436 73.8024 41.0725 73.8024 40.3683C73.8024 39.6641 74.3383 39.093 75.0425 39.093H75.1125C75.8167 39.093 76.3879 39.6641 76.3879 40.3683Z"/>
</mask>
<path d="M82.9732 63.1482C82.9732 59.7195 80.1835 56.9298 76.7548 56.9298C73.3261 56.9298 70.536 59.7195 70.536 63.1482C70.536 66.577 73.3257 69.3666 76.7548 69.3666C80.1839 69.3666 82.9732 66.577 82.9732 63.1482ZM73.0867 63.1482C73.0867 61.1257 74.7323 59.4805 76.7548 59.4805C78.7773 59.4805 80.4225 61.1257 80.4225 63.1482C80.4225 65.1707 78.7773 66.8159 76.7548 66.8159C74.7323 66.8159 73.0867 65.1707 73.0867 63.1482ZM78.1354 71.3083H75.3738C69.9474 71.3083 65.5329 75.7229 65.5329 81.1492V89.7155C65.5329 90.4197 66.104 90.9908 66.8082 90.9908H86.7013C87.4055 90.9908 87.9766 90.4197 87.9766 89.7155V81.1492C87.9766 75.7228 83.5618 71.3083 78.1354 71.3083ZM85.426 88.4402H68.0836V81.1492C68.0836 77.1294 71.354 73.8589 75.3739 73.8589H78.1355C82.1557 73.8589 85.4261 77.1293 85.4261 81.1492L85.426 88.4402ZM86.3563 44.8852V11.1452C88.5835 10.5753 90.2375 8.55705 90.2375 6.15455C90.2375 3.31145 87.924 0.998047 85.081 0.998047H29.4679C26.6248 0.998047 24.3114 3.31155 24.3114 6.15455C24.3114 8.55715 25.9654 10.5753 28.1926 11.1452V41.5004L25.5139 42.2182C24.2814 41.3421 22.9181 40.622 21.4368 40.1118C21.3034 40.0658 21.1629 40.0421 21.0217 40.0421H11.4917C11.3505 40.0421 11.21 40.0658 11.0766 40.1118C4.59763 42.3426 0.244629 48.4294 0.244629 55.2583V71.6434C0.244629 72.3476 0.815729 72.9187 1.51993 72.9187H30.9934C31.6976 72.9187 32.2687 72.3476 32.2687 71.6434V55.2583C32.2687 55.1824 32.2608 55.108 32.2597 55.0322H85.081C87.9241 55.0322 90.2375 52.7187 90.2375 49.8757C90.2375 47.4735 88.5835 45.4552 86.3563 44.8852ZM26.8619 6.15455C26.8619 4.71765 28.0309 3.54865 29.4678 3.54865H85.0809C86.5178 3.54865 87.6868 4.71765 87.6868 6.15455C87.6868 7.59145 86.5178 8.76085 85.0809 8.76085H29.4678C28.0309 8.76085 26.8619 7.59185 26.8619 6.15455ZM30.7431 11.3114H83.8056V44.7191H44.9366C44.9695 44.6601 45.0153 44.6103 45.0453 44.5494C45.4211 43.7863 45.5431 42.9123 45.4282 42.0357L53.4894 28.0732C53.8415 27.4635 53.6325 26.6833 53.0224 26.3312C52.4127 25.9806 51.6329 26.1885 51.2804 26.7982L44.0714 39.2848C43.1111 38.361 41.7114 37.8772 40.0315 38.3281L30.7432 40.8171L30.7431 11.3114ZM27.8458 44.2335L40.6915 40.7912C42.3456 40.3531 42.8067 41.899 42.8545 42.0769C42.9023 42.2548 43.2729 43.8292 41.6236 44.271L30.1558 47.3439C29.5134 46.2192 28.7404 45.1736 27.8458 44.2335ZM29.718 70.3681H2.79523V55.2583C2.79523 49.5869 6.36883 44.5234 11.7099 42.5928H20.8033C26.1444 44.5241 29.718 49.5873 29.718 55.2583V70.3681ZM85.0809 52.4816H32.0175C31.8479 51.522 31.5889 50.5899 31.2533 49.6901L40.2852 47.2699H85.0809C86.5178 47.2699 87.6868 48.4389 87.6868 49.8758C87.6868 51.3127 86.5178 52.4816 85.0809 52.4816ZM54.9055 63.1483C54.9055 59.7196 52.1158 56.9299 48.6871 56.9299C45.2584 56.9299 42.4687 59.7196 42.4687 63.1483C42.4687 66.577 45.2584 69.3667 48.6871 69.3667C52.1158 69.3667 54.9055 66.577 54.9055 63.1483ZM45.0194 63.1483C45.0194 61.1258 46.6646 59.4806 48.6871 59.4806C50.7096 59.4806 52.3548 61.1258 52.3548 63.1483C52.3548 65.1708 50.7096 66.816 48.6871 66.816C46.6646 66.816 45.0194 65.1708 45.0194 63.1483ZM50.0677 71.3084H47.3065C41.8801 71.3084 37.4652 75.723 37.4652 81.1493V89.7156C37.4652 90.4198 38.0363 90.9909 38.7405 90.9909H58.6336C59.3378 90.9909 59.9089 90.4198 59.9089 89.7156V81.1493C59.9089 75.7229 55.4941 71.3084 50.0677 71.3084ZM57.3583 88.4403H40.0159V81.1493C40.0159 77.1295 43.2863 73.859 47.3065 73.859H50.0677C54.0879 73.859 57.3583 77.1294 57.3583 81.1493V88.4403ZM16.2564 36.9633C20.9978 36.9633 24.8553 33.1058 24.8553 28.3647C24.8553 23.6236 20.9978 19.7654 16.2564 19.7654C11.515 19.7654 7.65753 23.6233 7.65753 28.3647C7.65753 33.1061 11.515 36.9633 16.2564 36.9633ZM16.2564 22.3161C19.5917 22.3161 22.3047 25.0295 22.3047 28.3648C22.3047 31.7001 19.5917 34.4127 16.2564 34.4127C12.9211 34.4127 10.2081 31.6997 10.2081 28.3648C10.2081 25.0299 12.9211 22.3161 16.2564 22.3161ZM75.6333 17.9723H38.9155C38.2113 17.9723 37.6402 17.4012 37.6402 16.697C37.6402 15.9928 38.2113 15.4217 38.9155 15.4217H75.6333C76.3375 15.4217 76.9086 15.9928 76.9086 16.697C76.9086 17.4012 76.3375 17.9723 75.6333 17.9723ZM67.1741 25.8333C67.1741 26.5375 66.603 27.1086 65.8988 27.1086H63.6639V29.3439C63.6639 30.0481 63.0928 30.6192 62.3886 30.6192C61.6844 30.6192 61.1133 30.0481 61.1133 29.3439V27.1086H58.878C58.1738 27.1086 57.6027 26.5375 57.6027 25.8333C57.6027 25.1291 58.1738 24.558 58.878 24.558H61.1133V22.3227C61.1133 21.6185 61.6844 21.0474 62.3886 21.0474C63.0928 21.0474 63.6639 21.6185 63.6639 22.3227V24.558H65.8988C66.603 24.558 67.1741 25.1291 67.1741 25.8333ZM65.7728 35.4978L64.1921 37.0785L65.7725 38.6589C66.2703 39.157 66.2703 39.9643 65.7725 40.4624C65.5234 40.7115 65.1973 40.836 64.8708 40.836C64.5443 40.836 64.2181 40.7115 63.9691 40.4624L62.3887 38.882L60.8083 40.4624C60.5592 40.7115 60.2331 40.836 59.9066 40.836C59.5801 40.836 59.2539 40.7115 59.0049 40.4624C58.5071 39.9643 58.5071 39.157 59.0049 38.6589L60.5853 37.0785L59.0046 35.4978C58.5068 34.9997 58.5068 34.1924 59.0046 33.6943C59.5027 33.1962 60.31 33.1962 60.8081 33.6943L62.3888 35.275L63.9695 33.6943C64.4676 33.1962 65.2749 33.1962 65.773 33.6943C66.2708 34.1924 66.2706 34.9997 65.7728 35.4978ZM71.5668 24.558H78.588C79.2922 24.558 79.8633 25.1291 79.8633 25.8333C79.8633 26.5375 79.2922 27.1086 78.588 27.1086H71.5668C70.8626 27.1086 70.2915 26.5375 70.2915 25.8333C70.2915 25.1291 70.8626 24.558 71.5668 24.558ZM79.8633 37.0786C79.8633 37.7828 79.2922 38.3539 78.588 38.3539H71.5668C70.8626 38.3539 70.2915 37.7828 70.2915 37.0786C70.2915 36.3744 70.8626 35.8033 71.5668 35.8033H78.588C79.2922 35.8033 79.8633 36.3744 79.8633 37.0786ZM75.1126 35.0639C74.4084 35.0639 73.8024 34.4928 73.8024 33.7886C73.8024 33.0844 74.3383 32.5133 75.0425 32.5133H75.1125C75.8167 32.5133 76.3878 33.0844 76.3878 33.7886C76.3878 34.4928 75.8168 35.0639 75.1126 35.0639ZM76.3879 40.3683C76.3879 41.0725 75.8168 41.6436 75.1126 41.6436C74.4084 41.6436 73.8024 41.0725 73.8024 40.3683C73.8024 39.6641 74.3383 39.093 75.0425 39.093H75.1125C75.8167 39.093 76.3879 39.6641 76.3879 40.3683Z" fill="#40403E"/>
<path d="M82.9732 63.1482C82.9732 59.7195 80.1835 56.9298 76.7548 56.9298C73.3261 56.9298 70.536 59.7195 70.536 63.1482C70.536 66.577 73.3257 69.3666 76.7548 69.3666C80.1839 69.3666 82.9732 66.577 82.9732 63.1482ZM73.0867 63.1482C73.0867 61.1257 74.7323 59.4805 76.7548 59.4805C78.7773 59.4805 80.4225 61.1257 80.4225 63.1482C80.4225 65.1707 78.7773 66.8159 76.7548 66.8159C74.7323 66.8159 73.0867 65.1707 73.0867 63.1482ZM78.1354 71.3083H75.3738C69.9474 71.3083 65.5329 75.7229 65.5329 81.1492V89.7155C65.5329 90.4197 66.104 90.9908 66.8082 90.9908H86.7013C87.4055 90.9908 87.9766 90.4197 87.9766 89.7155V81.1492C87.9766 75.7228 83.5618 71.3083 78.1354 71.3083ZM85.426 88.4402H68.0836V81.1492C68.0836 77.1294 71.354 73.8589 75.3739 73.8589H78.1355C82.1557 73.8589 85.4261 77.1293 85.4261 81.1492L85.426 88.4402ZM86.3563 44.8852V11.1452C88.5835 10.5753 90.2375 8.55705 90.2375 6.15455C90.2375 3.31145 87.924 0.998047 85.081 0.998047H29.4679C26.6248 0.998047 24.3114 3.31155 24.3114 6.15455C24.3114 8.55715 25.9654 10.5753 28.1926 11.1452V41.5004L25.5139 42.2182C24.2814 41.3421 22.9181 40.622 21.4368 40.1118C21.3034 40.0658 21.1629 40.0421 21.0217 40.0421H11.4917C11.3505 40.0421 11.21 40.0658 11.0766 40.1118C4.59763 42.3426 0.244629 48.4294 0.244629 55.2583V71.6434C0.244629 72.3476 0.815729 72.9187 1.51993 72.9187H30.9934C31.6976 72.9187 32.2687 72.3476 32.2687 71.6434V55.2583C32.2687 55.1824 32.2608 55.108 32.2597 55.0322H85.081C87.9241 55.0322 90.2375 52.7187 90.2375 49.8757C90.2375 47.4735 88.5835 45.4552 86.3563 44.8852ZM26.8619 6.15455C26.8619 4.71765 28.0309 3.54865 29.4678 3.54865H85.0809C86.5178 3.54865 87.6868 4.71765 87.6868 6.15455C87.6868 7.59145 86.5178 8.76085 85.0809 8.76085H29.4678C28.0309 8.76085 26.8619 7.59185 26.8619 6.15455ZM30.7431 11.3114H83.8056V44.7191H44.9366C44.9695 44.6601 45.0153 44.6103 45.0453 44.5494C45.4211 43.7863 45.5431 42.9123 45.4282 42.0357L53.4894 28.0732C53.8415 27.4635 53.6325 26.6833 53.0224 26.3312C52.4127 25.9806 51.6329 26.1885 51.2804 26.7982L44.0714 39.2848C43.1111 38.361 41.7114 37.8772 40.0315 38.3281L30.7432 40.8171L30.7431 11.3114ZM27.8458 44.2335L40.6915 40.7912C42.3456 40.3531 42.8067 41.899 42.8545 42.0769C42.9023 42.2548 43.2729 43.8292 41.6236 44.271L30.1558 47.3439C29.5134 46.2192 28.7404 45.1736 27.8458 44.2335ZM29.718 70.3681H2.79523V55.2583C2.79523 49.5869 6.36883 44.5234 11.7099 42.5928H20.8033C26.1444 44.5241 29.718 49.5873 29.718 55.2583V70.3681ZM85.0809 52.4816H32.0175C31.8479 51.522 31.5889 50.5899 31.2533 49.6901L40.2852 47.2699H85.0809C86.5178 47.2699 87.6868 48.4389 87.6868 49.8758C87.6868 51.3127 86.5178 52.4816 85.0809 52.4816ZM54.9055 63.1483C54.9055 59.7196 52.1158 56.9299 48.6871 56.9299C45.2584 56.9299 42.4687 59.7196 42.4687 63.1483C42.4687 66.577 45.2584 69.3667 48.6871 69.3667C52.1158 69.3667 54.9055 66.577 54.9055 63.1483ZM45.0194 63.1483C45.0194 61.1258 46.6646 59.4806 48.6871 59.4806C50.7096 59.4806 52.3548 61.1258 52.3548 63.1483C52.3548 65.1708 50.7096 66.816 48.6871 66.816C46.6646 66.816 45.0194 65.1708 45.0194 63.1483ZM50.0677 71.3084H47.3065C41.8801 71.3084 37.4652 75.723 37.4652 81.1493V89.7156C37.4652 90.4198 38.0363 90.9909 38.7405 90.9909H58.6336C59.3378 90.9909 59.9089 90.4198 59.9089 89.7156V81.1493C59.9089 75.7229 55.4941 71.3084 50.0677 71.3084ZM57.3583 88.4403H40.0159V81.1493C40.0159 77.1295 43.2863 73.859 47.3065 73.859H50.0677C54.0879 73.859 57.3583 77.1294 57.3583 81.1493V88.4403ZM16.2564 36.9633C20.9978 36.9633 24.8553 33.1058 24.8553 28.3647C24.8553 23.6236 20.9978 19.7654 16.2564 19.7654C11.515 19.7654 7.65753 23.6233 7.65753 28.3647C7.65753 33.1061 11.515 36.9633 16.2564 36.9633ZM16.2564 22.3161C19.5917 22.3161 22.3047 25.0295 22.3047 28.3648C22.3047 31.7001 19.5917 34.4127 16.2564 34.4127C12.9211 34.4127 10.2081 31.6997 10.2081 28.3648C10.2081 25.0299 12.9211 22.3161 16.2564 22.3161ZM75.6333 17.9723H38.9155C38.2113 17.9723 37.6402 17.4012 37.6402 16.697C37.6402 15.9928 38.2113 15.4217 38.9155 15.4217H75.6333C76.3375 15.4217 76.9086 15.9928 76.9086 16.697C76.9086 17.4012 76.3375 17.9723 75.6333 17.9723ZM67.1741 25.8333C67.1741 26.5375 66.603 27.1086 65.8988 27.1086H63.6639V29.3439C63.6639 30.0481 63.0928 30.6192 62.3886 30.6192C61.6844 30.6192 61.1133 30.0481 61.1133 29.3439V27.1086H58.878C58.1738 27.1086 57.6027 26.5375 57.6027 25.8333C57.6027 25.1291 58.1738 24.558 58.878 24.558H61.1133V22.3227C61.1133 21.6185 61.6844 21.0474 62.3886 21.0474C63.0928 21.0474 63.6639 21.6185 63.6639 22.3227V24.558H65.8988C66.603 24.558 67.1741 25.1291 67.1741 25.8333ZM65.7728 35.4978L64.1921 37.0785L65.7725 38.6589C66.2703 39.157 66.2703 39.9643 65.7725 40.4624C65.5234 40.7115 65.1973 40.836 64.8708 40.836C64.5443 40.836 64.2181 40.7115 63.9691 40.4624L62.3887 38.882L60.8083 40.4624C60.5592 40.7115 60.2331 40.836 59.9066 40.836C59.5801 40.836 59.2539 40.7115 59.0049 40.4624C58.5071 39.9643 58.5071 39.157 59.0049 38.6589L60.5853 37.0785L59.0046 35.4978C58.5068 34.9997 58.5068 34.1924 59.0046 33.6943C59.5027 33.1962 60.31 33.1962 60.8081 33.6943L62.3888 35.275L63.9695 33.6943C64.4676 33.1962 65.2749 33.1962 65.773 33.6943C66.2708 34.1924 66.2706 34.9997 65.7728 35.4978ZM71.5668 24.558H78.588C79.2922 24.558 79.8633 25.1291 79.8633 25.8333C79.8633 26.5375 79.2922 27.1086 78.588 27.1086H71.5668C70.8626 27.1086 70.2915 26.5375 70.2915 25.8333C70.2915 25.1291 70.8626 24.558 71.5668 24.558ZM79.8633 37.0786C79.8633 37.7828 79.2922 38.3539 78.588 38.3539H71.5668C70.8626 38.3539 70.2915 37.7828 70.2915 37.0786C70.2915 36.3744 70.8626 35.8033 71.5668 35.8033H78.588C79.2922 35.8033 79.8633 36.3744 79.8633 37.0786ZM75.1126 35.0639C74.4084 35.0639 73.8024 34.4928 73.8024 33.7886C73.8024 33.0844 74.3383 32.5133 75.0425 32.5133H75.1125C75.8167 32.5133 76.3878 33.0844 76.3878 33.7886C76.3878 34.4928 75.8168 35.0639 75.1126 35.0639ZM76.3879 40.3683C76.3879 41.0725 75.8168 41.6436 75.1126 41.6436C74.4084 41.6436 73.8024 41.0725 73.8024 40.3683C73.8024 39.6641 74.3383 39.093 75.0425 39.093H75.1125C75.8167 39.093 76.3879 39.6641 76.3879 40.3683Z" stroke="#40403E" stroke-width="0.4" mask="url(#path-1-outside-1_207_1833)"/>
</svg>
