<svg width="320" height="220" viewBox="0 0 320 220" fill="none" xmlns="http://www.w3.org/2000/svg">
<path d="M236.268 193.633V118.734H228.432V193.633L223.445 195.09V197.347H241.254V195.09L236.268 193.633Z" fill="#2E353A"/>
<path d="M140.545 118.734H132.709V193.633L127.723 195.09V197.347H145.531V195.09L140.545 193.633V118.734Z" fill="#2E353A"/>
<path d="M236.268 127.469H228.432V193.629L223.445 195.087V197.346H241.254V195.087L236.268 193.629V127.469Z" fill="white"/>
<path d="M140.545 127.469H132.709V193.629L127.723 195.087V197.346H145.531V195.087L140.545 193.629V127.469Z" fill="white"/>
<path d="M259.062 120.918V3L109.915 3V120.918L259.062 120.918Z" fill="#2E353A"/>
<path opacity="0.2" d="M259.062 120.918V3L109.915 3V120.918L259.062 120.918Z" fill="white"/>
<path d="M256.836 5.18359H112.141V118.735H256.836V5.18359Z" fill="#F26628"/>
<path opacity="0.3" d="M256.836 5.18359H112.141V118.735H256.836V5.18359Z" fill="white"/>
<path fill-rule="evenodd" clip-rule="evenodd" d="M127.723 16.1035L178.923 46.6749H127.723V16.1035ZM128.408 17.282V46.0232H176.542L128.408 17.282Z" fill="#263238"/>
<path fill-rule="evenodd" clip-rule="evenodd" d="M127.723 44.4883H132.175V46.672H131.32V44.9075H127.723V44.4883Z" fill="#263238"/>
<path d="M155.597 27.0198C155.432 27.0198 155.272 26.9494 155.116 26.8086C154.962 26.6649 154.855 26.4537 154.794 26.175L154.9 26.0371L154.818 26.9336H154.434V20.4688H154.866V23.5374L154.775 23.4167C154.855 23.184 154.97 22.9943 155.119 22.8478C155.268 22.6984 155.427 22.6237 155.597 22.6237C155.817 22.6237 156.006 22.7271 156.164 22.934C156.323 23.138 156.445 23.4081 156.53 23.7443C156.616 24.0776 156.66 24.4367 156.66 24.8217C156.66 25.2326 156.612 25.6047 156.518 25.938C156.423 26.2684 156.296 26.5313 156.136 26.7267C155.975 26.9221 155.796 27.0198 155.597 27.0198ZM155.544 26.3302C155.682 26.3302 155.801 26.2627 155.902 26.1276C156.003 25.9897 156.081 25.8073 156.136 25.5803C156.19 25.3504 156.217 25.0976 156.217 24.8217C156.217 24.5344 156.19 24.2772 156.136 24.0503C156.081 23.8233 156.003 23.6437 155.902 23.5115C155.801 23.3794 155.682 23.3133 155.544 23.3133C155.421 23.3133 155.305 23.3693 155.198 23.4814C155.092 23.5905 155.007 23.7572 154.941 23.9813C154.875 24.2025 154.842 24.4827 154.842 24.8217C154.842 25.1751 154.875 25.4625 154.941 25.6837C155.007 25.9049 155.092 26.0687 155.198 26.175C155.305 26.2785 155.421 26.3302 155.544 26.3302Z" fill="#263238"/>
<path d="M132.276 72.8772C131.946 72.8772 131.626 72.8068 131.315 72.666C131.007 72.5223 130.792 72.3112 130.67 72.0325L130.882 71.8945L130.718 72.791H129.949V66.3262H130.815V69.3948L130.632 69.2741C130.792 69.0414 131.021 68.8518 131.319 68.7052C131.618 68.5558 131.937 68.4811 132.276 68.4811C132.715 68.4811 133.094 68.5846 133.411 68.7914C133.728 68.9954 133.972 69.2655 134.142 69.6017C134.315 69.935 134.401 70.2941 134.401 70.6792C134.401 71.09 134.307 71.4621 134.118 71.7954C133.929 72.1258 133.674 72.3887 133.353 72.5841C133.033 72.7795 132.674 72.8772 132.276 72.8772ZM132.17 72.1876C132.446 72.1876 132.685 72.1201 132.887 71.985C133.089 71.8471 133.244 71.6647 133.353 71.4377C133.462 71.2078 133.517 70.955 133.517 70.6792C133.517 70.3918 133.462 70.1347 133.353 69.9077C133.244 69.6807 133.089 69.5011 132.887 69.3689C132.685 69.2368 132.446 69.1707 132.17 69.1707C131.924 69.1707 131.693 69.2267 131.478 69.3388C131.267 69.448 131.095 69.6146 130.964 69.8387C130.832 70.06 130.767 70.3401 130.767 70.6792C130.767 71.0326 130.832 71.3199 130.964 71.5411C131.095 71.7624 131.267 71.9261 131.478 72.0325C131.693 72.1359 131.924 72.1876 132.17 72.1876Z" fill="#263238"/>
<path d="M148.39 53.2248C147.765 53.2248 147.239 53.1291 146.814 52.9379C146.392 52.7438 146.072 52.484 145.853 52.1586C145.639 51.8304 145.531 51.4664 145.531 51.0668C145.531 50.65 145.635 50.2747 145.842 49.9407C146.053 49.6067 146.375 49.3427 146.808 49.1486C147.241 48.9545 147.795 48.8574 148.469 48.8574C148.759 48.8574 149.032 48.8803 149.288 48.9259C149.548 48.9687 149.78 49.0287 149.983 49.1058L149.825 49.7823C149.618 49.7081 149.398 49.6495 149.164 49.6067C148.934 49.5639 148.695 49.5425 148.447 49.5425C147.836 49.5425 147.371 49.6738 147.051 49.9364C146.731 50.199 146.571 50.5644 146.571 51.0325C146.571 51.4892 146.723 51.856 147.028 52.1329C147.334 52.4098 147.799 52.5483 148.424 52.5483C148.68 52.5483 148.925 52.5254 149.159 52.4798C149.396 52.4341 149.622 52.3713 149.837 52.2914L149.972 52.9079C149.821 52.9878 149.601 53.0606 149.311 53.1263C149.021 53.1919 148.714 53.2248 148.39 53.2248Z" fill="#263238"/>
<path d="M131.379 81.6114C131.066 81.6114 130.803 81.5636 130.59 81.468C130.38 81.3709 130.219 81.241 130.11 81.0783C130.003 80.9142 129.949 80.7322 129.949 80.5324C129.949 80.324 130.001 80.1364 130.105 79.9694C130.21 79.8024 130.371 79.6704 130.588 79.5733C130.804 79.4763 131.081 79.4277 131.418 79.4277C131.563 79.4277 131.7 79.4392 131.828 79.462C131.958 79.4834 132.074 79.5134 132.175 79.5519L132.096 79.8902C131.993 79.8531 131.882 79.8238 131.766 79.8024C131.651 79.781 131.531 79.7703 131.407 79.7703C131.102 79.7703 130.869 79.8359 130.709 79.9672C130.549 80.0985 130.469 80.2812 130.469 80.5153C130.469 80.7436 130.545 80.927 130.698 81.0655C130.85 81.2039 131.083 81.2732 131.396 81.2732C131.524 81.2732 131.646 81.2617 131.763 81.2389C131.882 81.2161 131.995 81.1847 132.102 81.1447L132.17 81.453C132.094 81.4929 131.984 81.5293 131.839 81.5622C131.694 81.595 131.541 81.6114 131.379 81.6114Z" fill="#263238"/>
<path d="M124.77 33.5705C124.469 33.5705 124.205 33.5177 123.98 33.412C123.755 33.3064 123.579 33.1623 123.453 32.9796C123.331 32.7969 123.27 32.5885 123.27 32.3545C123.27 32.1175 123.329 31.9149 123.448 31.7465C123.571 31.5752 123.733 31.4339 123.935 31.3226C124.141 31.2084 124.369 31.1185 124.621 31.0528C124.873 30.9843 125.133 30.9358 125.401 30.9072C125.673 30.8758 125.933 30.8587 126.181 30.8559C126.181 30.4562 126.09 30.1951 125.908 30.0723C125.726 29.9496 125.462 29.8882 125.118 29.8882C124.936 29.8882 124.74 29.9125 124.532 29.961C124.326 30.0095 124.094 30.1108 123.836 30.265L123.707 29.6399C123.902 29.5114 124.146 29.4072 124.437 29.3273C124.729 29.2445 125.035 29.2031 125.356 29.2031C125.767 29.2031 126.099 29.2659 126.35 29.3915C126.602 29.5143 126.786 29.7226 126.902 30.0166C127.018 30.3107 127.076 30.7103 127.076 31.2155V32.0719C127.076 32.2717 127.086 32.4372 127.106 32.5686C127.129 32.697 127.178 32.7941 127.255 32.8597C127.334 32.9225 127.46 32.9539 127.632 32.9539H127.722L127.583 33.5705H127.513C127.225 33.5705 127.001 33.5462 126.842 33.4977C126.687 33.4492 126.567 33.3792 126.484 33.2879C126.402 33.1965 126.327 33.0852 126.261 32.9539C126.079 33.1366 125.863 33.285 125.615 33.3992C125.366 33.5134 125.085 33.5705 124.77 33.5705ZM124.939 32.9539C125.178 32.9539 125.408 32.9025 125.63 32.7998C125.855 32.697 126.039 32.56 126.181 32.3887V31.3868C125.708 31.4011 125.323 31.441 125.029 31.5067C124.737 31.5723 124.523 31.6708 124.388 31.8021C124.252 31.9334 124.184 32.1033 124.184 32.3116C124.184 32.5372 124.253 32.7013 124.393 32.804C124.535 32.904 124.717 32.9539 124.939 32.9539Z" fill="#263238"/>
<path d="M130.7 64.1427C130.549 64.1427 130.417 64.0899 130.304 63.9843C130.192 63.8787 130.104 63.7345 130.041 63.5519C129.98 63.3692 129.949 63.1608 129.949 62.9267C129.949 62.6898 129.979 62.4871 130.039 62.3187C130.1 62.1475 130.181 62.0062 130.282 61.8948C130.385 61.7807 130.499 61.6907 130.625 61.6251C130.751 61.5566 130.881 61.5081 131.015 61.4795C131.151 61.4481 131.281 61.431 131.405 61.4281C131.405 61.0285 131.36 60.7673 131.268 60.6446C131.177 60.5218 131.046 60.4605 130.873 60.4605C130.782 60.4605 130.685 60.4847 130.58 60.5333C130.478 60.5818 130.362 60.6831 130.232 60.8373L130.168 60.2121C130.266 60.0837 130.387 59.9795 130.533 59.8996C130.679 59.8168 130.832 59.7754 130.993 59.7754C131.198 59.7754 131.364 59.8382 131.49 59.9638C131.615 60.0865 131.707 60.2949 131.765 60.5889C131.823 60.8829 131.852 61.2826 131.852 61.7878V62.6441C131.852 62.844 131.857 63.0095 131.867 63.1408C131.879 63.2693 131.904 63.3663 131.942 63.432C131.982 63.4948 132.044 63.5262 132.131 63.5262H132.175L132.106 64.1427H132.071C131.927 64.1427 131.815 64.1185 131.736 64.0699C131.658 64.0214 131.598 63.9515 131.557 63.8601C131.515 63.7688 131.478 63.6575 131.445 63.5262C131.354 63.7089 131.246 63.8573 131.122 63.9715C130.998 64.0856 130.857 64.1427 130.7 64.1427ZM130.784 63.5262C130.903 63.5262 131.018 63.4748 131.129 63.372C131.242 63.2693 131.334 63.1323 131.405 62.961V61.9591C131.168 61.9733 130.976 62.0133 130.829 62.079C130.683 62.1446 130.576 62.2431 130.508 62.3744C130.44 62.5057 130.406 62.6755 130.406 62.8839C130.406 63.1094 130.441 63.2735 130.511 63.3763C130.582 63.4762 130.673 63.5262 130.784 63.5262Z" fill="#263238"/>
<path fill-rule="evenodd" clip-rule="evenodd" d="M205.633 22.6524H190.051V20.4688H205.633V22.6524Z" fill="#263238"/>
<path fill-rule="evenodd" clip-rule="evenodd" d="M207.859 31.3868H190.051V29.2031H207.859V31.3868Z" fill="#263238"/>
<path fill-rule="evenodd" clip-rule="evenodd" d="M232.349 92.5294H221.219V90.3457H232.349V92.5294Z" fill="#263238"/>
<path fill-rule="evenodd" clip-rule="evenodd" d="M232.349 101.266H221.219V99.082H232.349V101.266Z" fill="#263238"/>
<path fill-rule="evenodd" clip-rule="evenodd" d="M136.627 101.266H127.723V99.082H136.627V101.266Z" fill="#263238"/>
<path fill-rule="evenodd" clip-rule="evenodd" d="M138.853 110H127.723V107.816H138.853V110Z" fill="#263238"/>
<path fill-rule="evenodd" clip-rule="evenodd" d="M243.477 31.3868H225.668V29.2031H243.477V31.3868Z" fill="#263238"/>
<path fill-rule="evenodd" clip-rule="evenodd" d="M239.024 35.7559H225.668V33.5723H239.024V35.7559Z" fill="#263238"/>
<path fill-rule="evenodd" clip-rule="evenodd" d="M206.747 62.4679C200.272 62.4679 195.023 67.6172 195.023 73.9692C195.023 80.3212 200.272 85.4705 206.747 85.4705C213.223 85.4705 218.472 80.3212 218.472 73.9692C218.472 67.6172 213.223 62.4679 206.747 62.4679ZM194.504 73.9692C194.504 67.3361 199.985 61.959 206.747 61.959C213.509 61.959 218.991 67.3361 218.991 73.9692C218.991 80.6022 213.509 85.9794 206.747 85.9794C199.985 85.9794 194.504 80.6022 194.504 73.9692Z" fill="#263238"/>
<path fill-rule="evenodd" clip-rule="evenodd" d="M205.637 61.959H206.34V74.3714H218.993V75.061H205.637V61.959Z" fill="#263238"/>
<path opacity="0.6" d="M256.836 5.18359H112.141V118.735H256.836V5.18359Z" fill="white"/>
<path d="M203.071 66.3267L191.935 60.7316C191.935 60.7316 189.483 60.9435 186.619 60.5198C183.756 60.0961 183.114 60.065 183.46 58.1086C183.806 56.146 183.323 53.5291 184.181 53.2487C185.04 52.9684 191.113 55.1927 192.166 56.688L203.41 60.1646L203.078 66.3267H203.071Z" fill="#B97964"/>
<path d="M232.348 55.4082V68.7553C232.348 68.7553 229.755 69.6965 226.534 70.6821C222.841 71.8086 218.324 72.9943 215.974 72.8684C211.585 72.6312 196.73 64.1679 196.73 64.1679L199.431 58.5208C199.431 58.5208 215.636 64.5829 217.662 64.1457C219.688 63.7085 232.348 55.4082 232.348 55.4082Z" fill="#F26628"/>
<path opacity="0.2" d="M232.347 61.959V68.7756C232.347 68.7756 230.361 69.7125 227.895 70.6937C228.805 66.7395 231.075 63.5156 232.347 61.959Z" fill="black"/>
<path d="M236.157 99.082C236.157 99.082 229.047 137.884 227.152 153.818C224.673 174.603 214.539 205.007 214.539 205.007L218.592 206.082C218.592 206.082 232.878 180.246 235.665 156.996C247.012 133.235 247.93 103.979 247.93 103.979L236.164 99.0887L236.157 99.082Z" fill="#B97964"/>
<path d="M206.056 214.133C206.762 213.818 207.524 213.633 208.293 213.578C208.293 213.578 210.975 212.043 213.629 206.094L216.615 206.08C217.652 206.094 218.563 206.731 218.909 207.677C218.958 207.807 218.986 207.944 218.993 208.081C218.965 208.781 218.887 209.48 218.76 210.172C218.492 212.345 217.017 216.998 217.017 216.998L216.509 216.875L217.426 212.543C217.73 211.07 216.142 212.495 215.401 213.976C214.66 215.456 213.53 216.95 210.227 216.217C206.381 215.347 204.835 214.805 206.035 214.133H206.056Z" fill="#2E353A"/>
<path d="M243.477 99.082C243.477 99.082 244.435 138.044 245.906 153.825C247.823 174.414 243.739 205.896 243.739 205.896L248.264 206.082C248.264 206.082 257.746 178.14 255.615 155.112C262.44 129.796 257.014 101.35 257.014 101.35L243.477 99.082Z" fill="#B97964"/>
<path d="M237.173 215.282C237.877 214.888 238.656 214.625 239.473 214.494C239.473 214.494 242.117 212.675 244.222 206.423L247.376 206.091C248.47 205.994 249.511 206.534 249.983 207.447C250.051 207.571 250.095 207.703 250.118 207.841C250.17 208.546 250.17 209.259 250.118 209.964C250.088 212.17 249.084 216.998 249.084 216.998L248.537 216.928L248.994 212.488C249.144 210.981 247.631 212.571 247.031 214.141C246.425 215.704 245.406 217.323 241.84 216.942C237.682 216.472 235.982 216.099 237.173 215.296V215.282Z" fill="#2E353A"/>
<path d="M259.435 31.7371C259.435 31.7371 261.612 31.8525 263.445 35.3911C265.279 38.9297 262.985 42.8555 262.532 44.7436C262.072 46.625 259.785 48.289 263.562 51.1348C267.339 53.9807 269.598 57.0031 266.536 60.0798C263.473 63.1566 266.838 65.527 262.395 67.7887C257.951 70.0504 241.697 66.6544 239.636 62.2397C237.576 57.8249 240.062 54.4697 240.193 53.1521C240.323 51.8344 237.576 50.4828 236.889 46.1767C236.203 41.8706 239.719 40.9401 240.193 38.9705C240.666 37.0008 238.462 34.5082 240.193 30.3243C241.923 26.1405 259.201 25.2304 259.435 31.7371Z" fill="#2E353A"/>
<path d="M269.624 90.3313C267.111 90.6602 264.207 85.6929 262.106 81.0612C260.316 77.1343 259.062 73.4423 259.062 73.4423L260.382 69.6564L263.843 59.7754C263.843 59.7754 266.269 63.1921 269.909 76.2012C270.492 78.2956 271.195 80.6383 271.838 83.2562C271.838 83.2562 271.752 84.0416 272.415 85.1022C272.415 87.069 272.647 89.9353 269.63 90.3313H269.624Z" fill="#F26628"/>
<path opacity="0.2" d="M261.188 79.4301C259.929 75.6707 259.062 72.1362 259.062 72.1362L259.999 68.5117C260.647 71.018 261.602 75.5614 261.188 79.4301Z" fill="black"/>
<path opacity="0.2" d="M272.41 85.2962C270.994 86.3229 269.515 86.3074 268.686 84.4471C267.009 80.6879 268.63 76.9672 269.784 75.0605C270.407 77.4689 271.136 80.163 271.822 83.1734C271.822 83.1734 271.709 84.0766 272.417 85.2962H272.41Z" fill="black"/>
<path d="M232.348 88.4981C232.348 88.4981 245.991 93.3187 259.061 92.4178C259.061 92.4178 257.878 76.5508 251.039 73.727C244.2 70.9032 232.348 74.9372 232.348 88.4981Z" fill="#F26628"/>
<path opacity="0.2" d="M232.348 88.4981C232.348 88.4981 245.991 93.3187 259.061 92.4178C259.061 92.4178 257.878 76.5508 251.039 73.727C244.2 70.9032 232.348 74.9372 232.348 88.4981Z" fill="black"/>
<path d="M232.902 90.5345L255.919 92.5307C256.282 86.7874 256.645 82.403 258.367 75.5532C258.918 73.3399 259.608 70.8676 260.494 68.01C260.968 66.4831 261.491 64.8442 262.076 63.0792C262.516 61.7415 262.99 60.3197 263.513 58.8209C260.382 57.8193 257.195 57.0419 253.96 56.5026C250.55 55.8932 247.092 55.529 243.626 55.4099C239.15 55.3749 234.004 55.8792 234.004 55.8792C234.004 55.8792 233.272 56.0543 232.811 60.824C232.393 65.2995 231.982 74.2505 232.902 90.5345Z" fill="#F26628"/>
<path d="M232.953 92.8653L255.995 94.7143C256.358 89.1402 256.631 81.6083 258.357 74.9601C258.909 72.8121 259.6 70.4125 260.488 67.639C260.963 66.1571 261.487 64.5664 262.074 62.8534C262.514 61.555 262.989 60.1751 263.513 58.7204C260.376 57.7483 257.183 56.9938 253.941 56.4703C250.524 55.8789 247.059 55.5255 243.587 55.4099C239.101 55.3759 233.945 55.8653 233.945 55.8653C233.945 55.8653 233.211 56.0353 232.75 60.6645C232.331 65.0083 232.03 77.0606 232.953 92.8653Z" fill="#2E353A"/>
<path d="M245.306 59.7758C250.743 59.1389 252.381 57.0079 252.381 57.0079C248.931 54.0257 251.799 48.8574 251.799 48.8574L245.253 49.978C245.427 50.9701 245.5 51.8029 245.507 52.501C245.554 56.1384 243.762 56.1751 243.762 56.1751C242.612 58.1469 245.313 59.7697 245.313 59.7697L245.306 59.7758Z" fill="#B97964"/>
<path opacity="0.2" d="M245.703 50.2007C245.88 51.3897 245.956 52.388 245.962 53.2248C250.471 53.2248 252.381 48.8574 252.381 48.8574L245.703 50.2007Z" fill="black"/>
<path d="M249.983 31.4109C244.262 31.1034 242.252 33.9886 241.513 39.7068C240.585 46.8511 241.93 52.0327 249.169 50.8813C259.004 49.3176 259.488 31.9212 249.983 31.4109Z" fill="#B97964"/>
<path d="M245.703 40.123C245.703 40.123 244.619 41.1742 243.477 41.7728C243.477 41.7728 244.035 42.3568 245.302 42.3033L245.703 40.123Z" fill="#A24E3F"/>
<path d="M247.936 38.9753C247.87 39.5785 248.305 40.0869 248.911 40.1213C249.53 40.1558 250.083 39.6905 250.149 39.0873C250.215 38.4841 249.78 37.9757 249.174 37.9413C248.555 37.9068 248.002 38.3721 247.936 38.9753Z" fill="#2E353A"/>
<path d="M241.261 38.9753C241.195 39.5785 241.629 40.0869 242.235 40.1213C242.854 40.1558 243.408 39.6905 243.473 39.0873C243.539 38.4841 243.105 37.9757 242.499 37.9413C241.88 37.9068 241.326 38.3721 241.261 38.9753Z" fill="#2E353A"/>
<path fill-rule="evenodd" clip-rule="evenodd" d="M248.128 36.4681L248.13 36.4679L248.138 36.467C248.145 36.4663 248.157 36.4653 248.173 36.4646C248.205 36.4631 248.252 36.4626 248.31 36.4668C248.428 36.4753 248.59 36.5028 248.771 36.578C249.134 36.7298 249.548 37.0666 249.822 37.7909C249.881 37.9496 249.997 37.985 250.079 37.8701C250.162 37.7551 250.18 37.5333 250.121 37.3746C249.773 36.453 249.259 36.0556 248.849 35.8846C248.643 35.7985 248.458 35.7674 248.324 35.7577C248.257 35.7529 248.203 35.7534 248.164 35.7552C248.145 35.7561 248.13 35.7573 248.119 35.7584L248.106 35.7597L248.103 35.7602L248.101 35.7604L248.101 35.7604C248.101 35.7605 248.101 35.7605 248.114 36.1143L248.101 35.7604C247.999 35.775 247.923 35.9453 247.93 36.1407C247.938 36.336 248.026 36.4826 248.128 36.4681ZM248.128 36.4681C248.128 36.4681 248.128 36.4681 248.128 36.4681V36.4681Z" fill="#2E353A"/>
<path d="M245.703 45.1434C245.872 45.6766 246.022 46.672 246.022 46.672C246.091 46.672 246.164 46.672 246.233 46.6618C247.188 46.6059 247.618 46.159 247.803 45.6817C247.902 45.4227 247.929 45.1485 247.929 44.925C247.929 44.6711 247.887 44.4883 247.887 44.4883C247.396 44.9199 246.505 45.0672 246.029 45.118C245.83 45.1434 245.703 45.1434 245.703 45.1434Z" fill="#2E353A"/>
<path d="M245.703 45.7612L245.825 46.672C246.881 46.5581 247.614 46.1441 247.929 45.3783C247.929 44.8609 247.88 44.4883 247.88 44.4883C247.304 45.368 246.261 45.6681 245.703 45.7716V45.7612Z" fill="white"/>
<path d="M256.111 42.0228C256.111 42.0228 253.56 36.9331 254.198 33.1423C254.198 33.1423 242.514 27.629 241.26 39.6792C241.26 39.6792 240.679 28.8856 251.066 29.2103C261.432 29.535 260.575 44.6489 254.97 48.8562C254.97 48.8562 257.691 45.2066 256.111 42.0228Z" fill="#2E353A"/>
<path d="M254.662 42.1674C254.755 41.3034 255.847 39.8907 257.65 40.1556C259.509 40.4268 260.19 43.8892 255.486 44.482C254.811 44.5703 254.471 43.9712 254.662 42.1674Z" fill="#B97964"/>
<path d="M259.062 58.2888C259.062 58.2888 252.082 64.2415 245.585 64.1417C239.088 64.0418 236.801 56.3686 236.801 56.3686C236.801 56.3686 246.879 53.2348 259.062 58.2888Z" fill="#B97964"/>
<path d="M257.312 57.5918C257.312 57.5918 245.837 76.423 257.904 92.5306C257.904 92.5306 259.542 72.6662 263.513 59.3696L257.304 57.5918H257.312Z" fill="#F26628"/>
<path d="M239.025 55.4082C239.025 55.4082 238.903 68.8427 236.419 73.83C233.943 78.8173 230.732 88.1633 230.732 88.1633C230.732 88.1633 228.327 65.8017 233.059 55.861L239.017 55.4082H239.025Z" fill="#F26628"/>
<path fill-rule="evenodd" clip-rule="evenodd" d="M254.494 32.2071C254.494 32.2071 254.494 32.2072 254.437 32.4031L254.494 32.2072C254.584 32.2445 254.632 32.3626 254.601 32.4708C254.57 32.579 254.471 32.6364 254.381 32.5991C254.381 32.5991 254.381 32.5991 254.381 32.5991L254.381 32.5991L254.381 32.5989L254.379 32.5981L254.37 32.5945C254.362 32.5913 254.35 32.5866 254.334 32.5803C254.302 32.5679 254.254 32.5497 254.192 32.5271C254.066 32.4818 253.883 32.4189 253.65 32.3488C253.184 32.2086 252.523 32.0402 251.742 31.9279C250.178 31.703 248.148 31.7055 246.256 32.5961C244.394 33.4723 243.716 35.0576 243.259 36.5722C243.185 36.818 243.115 37.0663 243.047 37.3107C242.908 37.8091 242.773 38.2914 242.611 38.7043C242.365 39.3312 242.038 39.8559 241.489 40.1095C241.4 40.1506 241.3 40.0974 241.266 39.9905C241.231 39.8837 241.276 39.7637 241.365 39.7225C241.794 39.5242 242.07 39.1107 242.298 38.528C242.452 38.1363 242.575 37.6935 242.71 37.2105C242.78 36.9609 242.852 36.7006 242.934 36.4311C243.405 34.8692 244.132 33.15 246.129 32.2101C248.096 31.2847 250.19 31.2872 251.783 31.5163C252.581 31.631 253.257 31.8031 253.734 31.9467C253.973 32.0185 254.162 32.0832 254.291 32.1302C254.356 32.1536 254.406 32.1727 254.441 32.186C254.458 32.1926 254.471 32.1978 254.48 32.2014L254.49 32.2055L254.493 32.2067L254.494 32.207L254.494 32.2071Z" fill="#2E353A"/>
<path d="M287.993 52.6129L286.152 51.565L279.396 53.4023L270.237 51.041L268.158 57.9433C268.158 57.9433 267.723 65.6281 268.158 65.712C268.594 65.7958 278.609 66.3267 278.609 66.3267L283.701 63.0991L288 52.6129H287.993Z" fill="#E0E0E0"/>
<path d="M267.396 53.2246L263.512 67.2813L275.502 68.5103L283.777 66.429L287.999 53.2246L278.542 55.4665L267.396 53.2246Z" fill="#F26628"/>
<path opacity="0.4" d="M279.094 55.4656L275.943 68.5103L263.512 67.2818L267.539 53.2246L279.094 55.4656Z" fill="white"/>
<path opacity="0.2" d="M279.578 55.4665L276.871 68.5103L284.241 66.429L288.002 53.2246L279.578 55.4665Z" fill="white"/>
<path d="M267.965 83.7956L273.529 72.6149C273.529 72.6149 273.192 70.2291 273.529 67.4057C273.867 64.5822 273.867 63.954 276.005 64.187C278.143 64.4199 280.949 63.8129 281.286 64.6387C281.623 65.4646 279.485 71.5137 277.913 72.6219L274.642 83.7956H267.965Z" fill="#B97964"/>
<path d="M267.965 89.0729C271.171 92.2523 274.835 89.522 276.869 80.3759L270.56 79.4277L267.965 89.08V89.0729Z" fill="#F26628"/>
<path d="M269.401 77.2461L267.965 80.2133L276.869 81.6134V78.5666L269.401 77.2461Z" fill="#2E353A"/>
<path d="M196.73 64.8132L199.421 66.3265L201.183 57.7046L198.336 57.5918L196.73 64.8132Z" fill="#2E353A"/>
<path d="M233.325 92.538L218.992 175.261C218.992 175.261 253.681 179.329 265.444 176.946C265.444 176.946 268.332 117.737 256.059 94.3722L233.332 92.5312L233.325 92.538Z" fill="#F26628"/>
<path opacity="0.4" d="M233.325 92.538L218.992 175.261C218.992 175.261 253.681 179.329 265.444 176.946C265.444 176.946 268.332 117.737 256.059 94.3722L233.332 92.5312L233.325 92.538Z" fill="white"/>
<path d="M186.839 57.579C186.839 57.579 185.399 56.1128 183.235 53.9136C181.086 51.7075 178.164 48.8094 175.256 45.8976C173.796 44.452 172.335 42.9996 170.964 41.643C169.594 40.2865 168.314 39.0258 167.215 37.9434C166.116 36.8609 165.204 35.9565 164.564 35.3262C164.244 35.011 163.994 34.7644 163.82 34.5931C163.618 34.4561 163.34 34.5451 163.34 34.5451L164.321 33.5723C164.321 33.5723 164.223 33.8463 164.369 34.045C164.543 34.2163 164.794 34.4629 165.114 34.7781C165.761 35.4084 166.679 36.2991 167.785 37.3816C168.891 38.464 170.178 39.711 171.562 41.0607C172.947 42.4035 174.422 43.8354 175.903 45.2673C178.874 48.1106 181.83 50.9744 184.084 53.0846C186.331 55.2016 187.827 56.6198 187.827 56.6198L186.846 57.5927L186.839 57.579Z" fill="#2E353A"/>
<path d="M213.971 206.137C213.971 206.137 210.09 213.12 207.859 214.471C207.859 214.471 210.853 216.005 213.971 212.59C217.999 208.17 218.99 209.401 218.99 209.401C218.99 209.401 218.821 207.886 218.506 207.147C217.897 205.72 213.971 206.137 213.971 206.137Z" fill="#B97964"/>
<path d="M243.787 206.08C243.787 206.08 242.835 208.435 241.566 211.025C240.297 213.616 239.027 214.646 239.027 214.646C239.027 214.646 241.23 215.297 242.423 214.042C243.616 212.787 245.647 208.262 247.932 208.78C247.932 208.78 247.767 208.239 247.424 207.727C247.081 207.214 243.787 206.08 243.787 206.08Z" fill="#B97964"/>
<path d="M129.499 216.999L129.948 134.02H125.496L125.94 216.999H129.499Z" fill="#F26628"/>
<path opacity="0.5" d="M125.94 216.999H129.505L129.861 150.562L129.948 134.02H125.496L125.584 150.562L125.94 216.999Z" fill="white"/>
<path opacity="0.2" d="M129.948 134.02L129.861 151.489H125.584L125.496 134.02H129.948Z" fill="black"/>
<path d="M172.244 216.999L168.031 134.02H163.34L168.493 216.999H172.244Z" fill="#F26628"/>
<path opacity="0.5" d="M168.493 216.999H172.244L168.285 138.945L168.031 134.02H163.34L163.651 138.945L168.493 216.999Z" fill="white"/>
<path opacity="0.2" d="M167.792 138.387H163.62L163.34 134.02H167.563L167.792 138.387Z" fill="black"/>
<path d="M85.6686 216.999L92.1031 134.02H86.2385L80.9727 216.999H85.6686Z" fill="#F26628"/>
<path opacity="0.3" d="M85.6614 216.999L91.7136 138.945L92.1031 134.02H86.2385L85.9211 138.945L80.9727 216.999H85.6614Z" fill="white"/>
<path opacity="0.2" d="M87.8809 134.02H92.1045L91.824 138.387H87.6523L87.8809 134.02Z" fill="black"/>
<path d="M83.1992 131.838H172.243V134.975C172.243 135.653 171.584 136.205 170.775 136.205H84.6665C83.8581 136.205 83.1992 135.653 83.1992 134.975V131.838Z" fill="#F26628"/>
<path opacity="0.4" d="M83.1992 131.838H172.243V134.975C172.243 135.653 171.584 136.205 170.775 136.205H84.6665C83.8581 136.205 83.1992 135.653 83.1992 134.975V131.838Z" fill="white"/>
<path opacity="0.2" d="M172.243 131.838H83.1992V134.022H172.243V131.838Z" fill="black"/>
<path d="M175.214 131.836H80.2256C79.4105 131.836 78.7461 131.346 78.7461 130.744C78.7461 130.143 79.4105 129.652 80.2256 129.652H175.214C176.03 129.652 176.694 130.143 176.694 130.744C176.694 131.346 176.03 131.836 175.214 131.836Z" fill="#F26628"/>
<path opacity="0.4" d="M175.214 131.836H80.2256C79.4105 131.836 78.7461 131.346 78.7461 130.744C78.7461 130.143 79.4105 129.652 80.2256 129.652H175.214C176.03 129.652 176.694 130.143 176.694 130.744C176.694 131.346 176.03 131.836 175.214 131.836Z" fill="white"/>
<path fill-rule="evenodd" clip-rule="evenodd" d="M123.27 131.107L130.684 118.734L132.174 119.463L124.76 131.836L123.27 131.107Z" fill="#2E353A"/>
<path d="M76.5234 106.324C76.5234 106.324 82.1119 96.8526 83.0233 95.0014C83.9347 93.1502 86.4146 80.111 86.4146 80.111C86.4146 80.111 85.9766 78.8455 85.9766 78.1723C85.9766 77.4991 86.4146 74.3891 86.4146 74.3891C86.4146 74.3891 86.4146 74.1333 88.1809 73.6352C89.9472 73.1371 91.8901 72.4572 92.0667 73.2178C92.2433 73.9785 91.7982 79.1955 91.2754 79.6937C90.7526 80.1918 90.145 81.04 90.145 81.04C90.145 81.04 88.6613 94.9542 87.9831 97.0006C87.3048 99.0471 81.7446 109.999 81.7446 109.999L76.5305 106.331L76.5234 106.324Z" fill="#E4897B"/>
<path d="M102.138 116.551C102.138 116.551 115.203 122.642 117.093 123.406C118.982 124.17 124.704 124.425 124.704 124.425C124.704 124.425 125.937 123.936 126.6 123.895C127.27 123.855 130.386 124.096 130.386 124.096C130.386 124.096 130.634 124.083 131.237 125.725C131.84 127.367 132.61 129.169 131.867 129.384C131.123 129.592 125.917 129.471 125.387 129.002L124.858 128.526C124.858 128.526 117.455 130.067 115.384 129.545C113.314 129.022 98.7812 124.378 98.7812 124.378L102.145 116.551H102.138Z" fill="#E4897B"/>
<path d="M83.2007 106.767C82.8969 108.975 81.7423 111.574 80.277 113.781C77.4275 118.103 73.4099 120.948 72.3228 116.482C70.6685 109.735 77.6841 101.266 77.6841 101.266L83.2007 106.767Z" fill="#F26628"/>
<path opacity="0.2" d="M83.1987 107.816C83.0231 109.878 82.3559 112.305 81.5091 114.367C81.1501 113.664 80.9121 112.833 80.9862 111.92C81.2125 109.101 83.1987 107.816 83.1987 107.816Z" fill="black"/>
<path d="M98.2223 101.91C97.8345 103.341 97.0385 104.567 95.9772 105.527C94.426 106.944 92.317 107.775 90.1603 107.816C88.1397 107.85 86.0783 107.196 84.391 105.67C81.2683 102.85 81.3635 99.6076 80.9893 94.09C80.6151 88.5791 86.6021 84.3762 92.6639 86.5764C98.7257 88.7767 99.583 96.9578 98.2223 101.91Z" fill="#E4897B"/>
<path d="M89.8789 84.2959C89.8789 84.2959 94.9094 82.6861 98.438 85.2491C101.967 87.812 101.765 93.99 98.438 96.8989C98.438 96.8989 99.3424 95.8398 96.7262 93.2839C94.11 90.728 89.8789 84.303 89.8789 84.303V84.2959Z" fill="#2E353A"/>
<path opacity="0.2" d="M96.5572 105.633C94.7763 106.985 92.3549 107.777 89.8789 107.816C90.8709 106.166 92.0269 105.633 92.0269 105.633C93.4953 106.257 95.3152 105.964 96.5572 105.633Z" fill="black"/>
<path d="M96.5572 194.818L95.9077 199.54L95.3134 203.899H89.8789L90.3507 198.322L90.7979 192.98L96.5572 194.818Z" fill="#E4897B"/>
<path d="M94.7529 202.09L88.6742 201.717C88.4648 201.697 88.2757 201.843 88.2487 202.056L87.6543 206.792C87.6206 207.311 88.0191 207.757 88.5391 207.791C90.6599 207.884 91.6798 207.831 94.3544 207.97C95.9957 208.07 99.2309 208.41 101.5 208.197C103.763 207.984 103.486 205.779 102.507 205.673C100.183 205.413 97.1169 203.728 95.6647 202.456C95.4081 202.236 95.0906 202.11 94.7529 202.09Z" fill="#2E353A"/>
<path opacity="0.2" d="M96.5572 194.816L95.8584 199.531L89.8789 198.315L90.3602 192.98L96.5572 194.816Z" fill="black"/>
<path d="M104.158 162.21C101.217 158.604 93.6075 156.775 87.4873 155.857L85.4258 170.125C89.1981 170.85 90.7657 172.792 90.9733 173.59C91.9683 177.408 87.2153 197.316 87.2153 197.316L97.1006 199.531C97.1006 199.531 109.405 168.635 104.158 162.203V162.21Z" fill="#2E353A"/>
<path opacity="0.2" d="M104.158 162.21C101.217 158.604 93.6075 156.775 87.4873 155.857L85.4258 170.125C89.1981 170.85 90.7657 172.792 90.9733 173.59C91.9683 177.408 87.2153 197.316 87.2153 197.316L97.1006 199.531C97.1006 199.531 109.405 168.635 104.158 162.203V162.21Z" fill="black"/>
<path d="M114.366 194.818L113.716 199.54L113.122 203.899H107.688L108.159 198.322L108.607 192.98L114.366 194.818Z" fill="#E4897B"/>
<path d="M112.562 202.09L106.483 201.717C106.273 201.697 106.084 201.843 106.057 202.056L105.463 206.792C105.429 207.311 105.828 207.757 106.348 207.791C108.469 207.884 109.488 207.831 112.163 207.97C113.804 208.07 117.04 208.41 119.309 208.197C121.572 207.984 121.295 205.779 120.315 205.673C117.992 205.413 114.925 203.728 113.473 202.456C113.217 202.236 112.899 202.11 112.562 202.09Z" fill="#2E353A"/>
<path d="M112.306 201.706C112.306 201.706 112.257 201.712 112.228 201.706C112.18 201.688 112.141 201.651 112.141 201.614C112.141 201.57 112.112 200.121 112.938 199.67C113.162 199.553 113.454 199.51 113.736 199.541C114.056 199.559 114.309 199.714 114.358 199.917C114.484 200.46 113.22 201.453 112.413 201.712C112.384 201.719 112.345 201.712 112.316 201.706H112.306ZM113.57 199.781C113.424 199.775 113.279 199.806 113.172 199.874C112.666 200.145 112.539 200.954 112.51 201.422C113.22 201.089 114.037 200.337 113.988 199.973C113.988 199.905 113.92 199.825 113.658 199.794H113.57V199.781Z" fill="#F26628"/>
<path opacity="0.2" d="M114.366 194.816L113.667 199.531L107.688 198.315L108.169 192.98L114.366 194.816Z" fill="black"/>
<path d="M83.7479 106.078C83.7479 109.106 83.3105 111.98 80.9727 113.329C84.1932 115.529 87.7954 117.348 91.6601 118.735C95.803 116.394 93.8866 114.454 93.8866 114.454C90.2685 112.864 91.3976 109.163 92.5268 106.797C92.5268 106.797 91.6362 105.646 86.5629 105.633C84.3125 105.627 83.7479 106.084 83.7479 106.084V106.078Z" fill="#E4897B"/>
<path d="M66.479 151.488C66.479 151.488 60.1196 168.958 78.1447 168.958C96.1698 168.958 97.6263 162.129 96.1014 154.092L66.479 151.488Z" fill="#2E353A"/>
<path d="M96.8182 153.674C96.8182 153.674 116.769 154.482 121.98 161.103C127.184 167.725 114.979 199.531 114.979 199.531L105.175 197.251C105.175 197.251 110.563 175.551 108.533 172.744C106.502 169.936 95.4621 169.758 80.5597 169.012C65.6572 168.266 96.8182 153.674 96.8182 153.674Z" fill="#2E353A"/>
<path d="M80.9795 111.813L82.7645 107.816C82.7645 107.816 93.0675 108.167 96.1963 112.587C99.3251 117.006 80.9727 111.807 80.9727 111.807L80.9795 111.813Z" fill="#F26628"/>
<path d="M100.92 119.304C101.226 124.338 100.92 134.682 97.0834 153.673L67.6172 151.107C67.8076 147.094 74.0451 133.346 72.7187 115.238C72.5146 112.547 74.6232 110.204 77.4256 110.007C77.4801 110.007 77.5413 110.001 77.5957 110.001C79.0445 109.948 87.8803 112.456 92.0295 113.058C93.628 113.34 95.1788 113.713 96.4984 114.073C98.9811 114.734 100.756 116.829 100.92 119.304Z" fill="#F26628"/>
<path opacity="0.2" d="M100.92 119.304C101.226 124.338 100.92 134.682 97.0834 153.673L67.6172 151.107C67.8076 147.094 74.0451 133.346 72.7187 115.238C72.5146 112.547 74.6232 110.204 77.4256 110.007C77.4801 110.007 77.5413 110.001 77.5957 110.001C79.0445 109.948 87.8803 112.456 92.0295 113.058C93.628 113.34 95.1788 113.713 96.4984 114.073C98.9811 114.734 100.756 116.829 100.92 119.304Z" fill="black"/>
<path d="M96.9561 114.402C93.8804 113.744 93.538 122.628 95.7737 125.182C98.0094 127.737 109.931 129.653 109.931 129.653L112.141 121.67C112.141 121.67 102.339 115.551 96.9561 114.402Z" fill="#F26628"/>
<path d="M83.0134 105.09C83.0134 105.09 78.7747 103.961 76.8049 95.1293C74.8352 86.2971 83.5076 82.3575 93.3215 84.2699C103.135 86.1823 98.3468 99.8326 89.7996 105.09C89.7996 105.09 86.9112 106.313 83.0204 105.09H83.0134Z" fill="#2E353A"/>
<path d="M94.372 97.8999C94.5037 99.1506 94.8679 100.255 95.3948 100.988C96.0651 101.868 96.5842 100.525 96.5571 98.7955C96.5261 97.2513 96.1426 94.8964 95.3948 94.7266C94.6471 94.5567 94.1899 96.263 94.372 97.8999Z" fill="#E4897B"/>
<path d="M123.27 131.838V134.26C123.27 135.335 124.281 136.205 125.531 136.205H170.815C171.602 136.205 172.243 135.654 172.243 134.977V131.844H123.27V131.838Z" fill="#F26628"/>
<path opacity="0.6" d="M123.27 131.838V134.26C123.27 135.335 124.281 136.205 125.531 136.205H170.815C171.602 136.205 172.243 135.654 172.243 134.977V131.844H123.27V131.838Z" fill="white"/>
<path opacity="0.2" d="M172.243 131.838H123.27V134.022H172.243V131.838Z" fill="black"/>
<path d="M175.116 129.657H120.304C119.485 129.657 118.816 130.147 118.816 130.747C118.816 131.347 119.485 131.836 120.304 131.836H175.206C176.081 131.836 176.776 131.286 176.687 130.631C176.611 130.061 175.902 129.652 175.123 129.652L175.116 129.657Z" fill="#F26628"/>
<path opacity="0.6" d="M175.116 129.657H120.304C119.485 129.657 118.816 130.147 118.816 130.747C118.816 131.347 119.485 131.836 120.304 131.836H175.206C176.081 131.836 176.776 131.286 176.687 130.631C176.611 130.061 175.902 129.652 175.123 129.652L175.116 129.657Z" fill="white"/>
<path d="M82.0881 217H86.5284L87.3952 183.326L87.6509 173.326H80.9727L81.2284 183.326L82.0881 217Z" fill="#F26628"/>
<path opacity="0.4" d="M82.0881 217H86.5284L87.3952 183.326L87.6509 173.326H80.9727L81.2284 183.326L82.0881 217Z" fill="white"/>
<path opacity="0.2" d="M87.6509 173.326L87.3952 182.061H81.2284L80.9727 173.326H87.6509Z" fill="black"/>
<path d="M107.686 217L104.784 173.326H98.7812L102.844 217H107.686Z" fill="#F26628"/>
<path opacity="0.5" d="M102.84 217H107.686L105.119 178.345L104.789 173.326H98.7812L99.2445 178.345L102.84 217Z" fill="white"/>
<path opacity="0.2" d="M98.7812 173.326L99.2693 177.694H105.46L105.111 173.326H98.7812Z" fill="black"/>
<path d="M65.7791 217L69.8418 173.326H63.8395L60.9375 217H65.7791Z" fill="#F26628"/>
<path opacity="0.5" d="M65.7831 217L69.3786 178.345L69.8418 173.326H63.8345L63.5037 178.345L60.9375 217H65.7831Z" fill="white"/>
<path opacity="0.2" d="M69.8423 173.326L69.3542 177.694H63.1641L63.5127 173.326H69.8423Z" fill="black"/>
<path d="M64.4303 166.775H104.193C106.121 166.775 107.685 168.449 107.685 170.511V175.51H60.9375V170.511C60.9375 168.449 62.5023 166.775 64.4303 166.775Z" fill="#F26628"/>
<path d="M79.3138 123.925L75.9219 124.381L82.6424 172.507L86.0343 172.051L79.3138 123.925Z" fill="#F26628"/>
<path d="M58.0872 123.931L54.6953 124.387L61.4158 172.513L64.8077 172.057L58.0872 123.931Z" fill="#F26628"/>
<path d="M79.3138 123.925L75.9219 124.381L82.6424 172.507L86.0343 172.051L79.3138 123.925Z" fill="white"/>
<path d="M58.0872 123.931L54.6953 124.387L61.4158 172.513L64.8077 172.057L58.0872 123.931Z" fill="white"/>
<path d="M108.511 171.143H60.1183C59.3432 171.143 58.7148 171.816 58.7148 172.646V174.007C58.7148 174.837 59.3432 175.51 60.1183 175.51H108.511C109.287 175.51 109.915 174.837 109.915 174.007V172.646C109.915 171.816 109.287 171.143 108.511 171.143Z" fill="#F26628"/>
<path opacity="0.6" d="M108.511 171.143H60.1183C59.3432 171.143 58.7148 171.816 58.7148 172.646V174.007C58.7148 174.837 59.3432 175.51 60.1183 175.51H108.511C109.287 175.51 109.915 174.837 109.915 174.007V172.646C109.915 171.816 109.287 171.143 108.511 171.143Z" fill="white"/>
<path d="M83.2004 140.571H54.3442L52.0352 120.918H80.8914L83.2004 140.571Z" fill="#F26628"/>
<path opacity="0.6" d="M83.2004 140.571H54.3442L52.0352 120.918H80.8914L83.2004 140.571Z" fill="white"/>
</svg>
